<svg width="160" height="158" viewBox="0 0 160 158" fill="none" xmlns="http://www.w3.org/2000/svg">
<path d="M142.297 107.742H152.454V103.449H142.297V107.742Z" fill="#EBEBEB"/>
<path d="M147.967 113.155L153.088 113.047L155.612 113.005C156.452 112.986 157.288 113.005 158.124 112.982L157.952 113.155V108.862L158.144 109.054L153.065 109.031C151.373 109.031 149.677 108.985 147.986 108.966L148.089 108.862C148.089 109.564 148.059 110.27 148.039 110.983L147.967 113.155ZM147.967 113.155L147.898 111.049C147.878 110.335 147.851 109.61 147.848 108.881V108.747H147.955C149.647 108.724 151.342 108.686 153.034 108.682L158.113 108.659H158.305V108.851L158.282 113.143V113.316H158.113C157.257 113.316 156.398 113.316 155.543 113.297L152.988 113.254L147.967 113.155Z" fill="#EBEBEB"/>
<path d="M73.149 70.993L78.2739 70.8856L80.7942 70.8434C81.6342 70.8243 82.4705 70.8434 83.3067 70.8243L83.1341 70.993L83.1149 66.7006L83.3067 66.8924L78.2279 66.8693C76.5362 66.8693 74.8407 66.8271 73.149 66.8041L73.2526 66.7006C73.2526 67.4025 73.2219 68.1084 73.2027 68.8257L73.149 70.993ZM73.149 70.993L73.0953 68.8526C73.0761 68.1391 73.0531 67.4141 73.0454 66.6852V66.5816H73.1528C74.8445 66.5625 76.54 66.5203 78.2317 66.5164L83.3106 66.4934H83.5024V66.6852L83.4832 70.9777V71.1542H83.3144C82.459 71.1542 81.5997 71.1542 80.7481 71.1311L78.1895 71.0889L73.149 70.993Z" fill="#EBEBEB"/>
<path d="M78.8147 76.4056H88.9724V72.1131H78.8147V76.4056Z" fill="#EBEBEB"/>
<path d="M67.3948 76.4056L72.5197 76.2982L75.0438 76.256C75.8839 76.2368 76.7163 76.256 77.5526 76.2368L77.3838 76.4056L77.3608 72.1131L77.5526 72.3049L72.4737 72.2819C70.782 72.2819 69.0904 72.2397 67.3948 72.2166L67.5022 72.1131C67.5022 72.8151 67.4677 73.5209 67.4524 74.2382L67.3948 76.4056ZM67.3948 76.4056L67.3411 74.2804C67.3411 73.5669 67.2989 72.8419 67.2913 72.1131V72.0095H67.3948C69.0904 72.0095 70.782 71.9481 72.4737 71.9443L77.5526 71.9213H77.7482V72.1131L77.729 76.4056V76.5782H77.5564C76.701 76.5782 75.8417 76.5782 74.9901 76.5552L72.4354 76.513L67.3948 76.4056Z" fill="#EBEBEB"/>
<path d="M1.87579 113.155L7.0007 113.047L9.52479 113.005C10.361 112.986 11.1973 113.005 12.0335 112.982L11.8648 113.155L11.8417 108.862L12.0335 109.054L6.95467 109.031C5.26299 109.031 3.56747 108.985 1.87579 108.966L1.97936 108.862C1.97936 109.564 1.94867 110.27 1.92949 110.983L1.87579 113.155ZM1.87579 113.155L1.82209 111.049C1.80291 110.335 1.77989 109.61 1.77222 108.881V108.747H1.87579C3.56747 108.724 5.26299 108.686 6.95467 108.682L12.0335 108.659H12.2253V108.851V113.143V113.316H12.0527C11.1973 113.316 10.338 113.316 9.48643 113.297L6.93165 113.254L1.87579 113.155Z" fill="#EBEBEB"/>
<path d="M7.54153 4.4843L12.6664 4.37689L15.1905 4.33469C16.0306 4.31551 16.863 4.33469 17.6993 4.31168L17.5305 4.4843L17.5075 0.187965L17.6993 0.379766L12.6204 0.356749C10.9287 0.356749 9.23704 0.310718 7.54153 0.291538L7.64894 0.187965C7.64894 0.889955 7.61441 1.59578 7.59523 2.31312L7.54153 4.4843ZM7.54153 4.4843L7.49933 2.35915C7.49933 1.64565 7.45713 0.920643 7.44946 0.191801V0.0882295H7.55304C9.24855 0.0690495 10.9402 0.0268526 12.6319 0.0230166L17.7108 0H17.9064V0.187965L17.8566 4.4843V4.65692H17.6839C16.8285 4.65692 15.9692 4.65692 15.1176 4.6339L12.5629 4.59171L7.54153 4.4843Z" fill="#EBEBEB"/>
<path d="M147.967 4.4843L153.088 4.37689L155.612 4.33469C156.452 4.31551 157.288 4.33469 158.124 4.31168L157.952 4.4843V0.191801L158.144 0.383601L153.065 0.360586C151.373 0.360586 149.677 0.314553 147.986 0.295373L148.089 0.191801C148.089 0.893791 148.059 1.59962 148.039 2.31695L147.967 4.4843ZM147.967 4.4843L147.898 2.35915C147.878 1.64565 147.851 0.920643 147.848 0.191801V0.0882295H147.955C149.647 0.0690495 151.342 0.0268526 153.034 0.0230166L158.113 0H158.305V0.187965L158.293 4.4843V4.65692H158.124C157.269 4.65692 156.41 4.65692 155.554 4.6339L152.999 4.59171L147.967 4.4843Z" fill="#EBEBEB"/>
<path d="M49.032 127.072H21.4319V157.633H49.032V127.072Z" fill="#EBEBEB"/>
<path d="M7.18501 157.637H21.4358L21.4358 127.072H7.18501L7.18501 157.637Z" fill="#DBDBDB"/>
<path d="M8.16309 155.546C9.22183 153.373 10.2678 151.199 11.3009 149.025L14.4043 142.416L17.4731 135.814C18.496 133.609 19.4985 131.397 20.4805 129.178C19.4218 131.351 18.3758 133.531 17.3427 135.718L14.2508 142.293L11.182 148.895C10.1616 151.102 9.15533 153.319 8.16309 155.546Z" fill="#EBEBEB"/>
<path d="M8.16309 129.178C9.15533 131.4 10.1578 133.612 11.1705 135.814L14.2393 142.416L17.3312 148.991C18.3669 151.177 19.4128 153.351 20.469 155.512C19.4768 153.292 18.4743 151.08 17.4616 148.876L14.3928 142.274L11.3009 135.699C10.2652 133.525 9.21927 131.351 8.16309 129.178Z" fill="#EBEBEB"/>
<path d="M49.032 80.913H21.4319V109.368H49.032V80.913Z" fill="#EBEBEB"/>
<path d="M7.18501 109.372H21.4358L21.4358 80.913H7.18501L7.18501 109.372Z" fill="#DBDBDB"/>
<path d="M32.8899 87.5186H33.4768H33.9141L34.1634 87.0084L34.5164 87.5186L34.992 86.4713L35.4447 87.5186H36.7374H37.3243L37.5391 86.8204L37.7386 87.5186H38.1222V80.913H32.8899V87.5186Z" fill="#DBDBDB"/>
<path d="M8.16309 107.558C9.22182 105.538 10.2678 103.504 11.3009 101.459L14.3928 95.321L17.4616 89.1833C18.4845 87.1375 19.487 85.0775 20.469 83.0035C19.4103 85.029 18.3643 87.0595 17.3312 89.0951L14.2393 95.2136L11.1705 101.351C10.1578 103.42 9.15533 105.489 8.16309 107.558Z" fill="#EBEBEB"/>
<path d="M8.16309 83.0189C9.15533 85.0827 10.1578 87.1375 11.1705 89.1834L14.2393 95.321L17.3312 101.459C18.3669 103.504 19.4128 105.535 20.469 107.55C19.4768 105.484 18.4743 103.424 17.4616 101.37L14.3928 95.2328L11.3009 89.1143C10.2652 87.0761 9.21927 85.0443 8.16309 83.0189Z" fill="#EBEBEB"/>
<path d="M23.25 107.604H26.3149V104.539H23.25V107.604Z" fill="white"/>
<path d="M47.1943 109.372H19.5942V127.072H47.1943V109.372Z" fill="#DBDBDB"/>
<path d="M5.34346 127.072H19.5942L19.5942 109.372H5.34346L5.34346 127.072Z" fill="#C7C7C7"/>
<path d="M31.0525 115.978H31.6356H32.0767L32.326 115.468L32.679 115.978L33.1546 114.931L33.6073 115.978H34.8962H35.4869L35.6979 115.28L35.9012 115.978H36.2848V109.372H31.0525V115.978Z" fill="white"/>
<path d="M6.32568 126.009C7.38187 124.73 8.42782 123.44 9.46354 122.138L12.5554 118.249L15.6242 114.34C16.6318 113.036 17.633 111.726 18.6278 110.412C17.5741 111.69 16.5282 112.981 15.4899 114.282L12.3981 118.176L9.32928 122.081C8.31913 123.393 7.31793 124.702 6.32568 126.009Z" fill="#DBDBDB"/>
<path d="M6.32568 110.423C7.32049 111.738 8.32297 113.047 9.33312 114.351L12.4019 118.26L15.4937 122.15C16.5167 123.444 17.5601 124.73 18.6239 126.009C17.6342 124.695 16.633 123.385 15.6203 122.081L12.5515 118.176L9.4597 114.282C8.42654 112.999 7.38187 111.712 6.32568 110.423Z" fill="#DBDBDB"/>
<path d="M154.656 130.9H127.056V157.637H154.656V130.9Z" fill="#DBDBDB"/>
<path d="M112.809 157.637H127.06V130.9H112.809V157.637Z" fill="#C7C7C7"/>
<path d="M138.515 137.506H139.098H139.539L139.788 136.995L140.141 137.506L140.617 136.458L141.069 137.506H142.358H142.949L143.164 136.804L143.363 137.506H143.747V130.9H138.515V137.506Z" fill="white"/>
<path d="M113.788 156.045C114.844 154.104 115.89 152.155 116.925 150.199L120.017 144.322L123.086 138.422C124.109 136.451 125.11 134.474 126.09 132.492C125.036 134.433 123.99 136.382 122.952 138.338L119.86 144.211L116.81 150.115C115.798 152.086 114.79 154.063 113.788 156.045Z" fill="#DBDBDB"/>
<path d="M113.788 132.492C114.782 134.474 115.785 136.451 116.795 138.422L119.845 144.322L122.936 150.199C123.972 152.155 125.018 154.104 126.074 156.045C125.085 154.061 124.083 152.084 123.071 150.115L120.002 144.211L116.91 138.338C115.885 136.382 114.844 134.433 113.788 132.492Z" fill="#DBDBDB"/>
<path d="M114.029 126.028H75.792V157.622H114.029V126.028Z" fill="#1867FF"/>
<path opacity="0.1" d="M114.029 126.028H75.792V157.622H114.029V126.028Z" fill="black"/>
<path d="M129.182 126.032H114.029V157.625H129.182V126.032Z" fill="#1867FF"/>
<path opacity="0.2" d="M129.182 126.032H114.029V157.625H129.182V126.032Z" fill="black"/>
<path d="M128.134 155.447C127.014 153.201 125.903 150.948 124.801 148.688L121.513 141.89L118.268 135.066C117.194 132.787 116.129 130.501 115.073 128.207C116.198 130.455 117.31 132.708 118.41 134.966L121.693 141.764L124.939 148.588C126.018 150.866 127.083 153.153 128.134 155.447Z" fill="#1867FF"/>
<path d="M128.134 128.207C127.081 130.509 126.015 132.795 124.939 135.066L121.693 141.89L118.41 148.688C117.308 150.946 116.195 153.199 115.073 155.447C116.129 153.145 117.194 150.859 118.268 148.588L121.513 141.764L124.801 134.97C125.903 132.707 127.014 130.452 128.134 128.207Z" fill="#1867FF"/>
<path d="M97.6151 132.856H97.0128H96.5563L96.2993 132.331L95.9349 132.856L95.4401 131.775L94.9759 132.856H93.641H93.031L92.8086 132.135L92.6014 132.856H92.2063V126.032H97.6151V132.856Z" fill="white"/>
<path d="M116.335 94.4386H87.8062V126.028H116.335V94.4386Z" fill="#1867FF"/>
<path d="M131.065 94.4386H116.335V126.032H131.065V94.4386Z" fill="#1867FF"/>
<path opacity="0.1" d="M131.065 94.4386H116.335V126.032H131.065V94.4386Z" fill="black"/>
<g opacity="0.1">
<path d="M114.244 123.853C112.15 121.605 110.073 119.352 108.014 117.094L101.865 110.281L95.8082 103.457C93.7981 101.179 91.8085 98.8923 89.8394 96.5984C91.9364 98.8463 94.0129 101.101 96.069 103.361L102.207 110.155L108.264 116.979C110.281 119.268 112.275 121.559 114.244 123.853Z" fill="black"/>
<path d="M114.244 96.6138C112.272 98.9154 110.283 101.202 108.275 103.473L102.218 110.281L96.0805 117.079C94.0346 119.337 91.9581 121.59 89.8508 123.838C91.8225 121.536 93.8122 119.25 95.8197 116.979L101.865 110.17L108.003 103.377C110.067 101.113 112.147 98.8591 114.244 96.6138Z" fill="black"/>
</g>
<path d="M128.994 120.685H126.412V124.329H128.994V120.685Z" fill="white"/>
<path d="M0 157.637L20.001 157.541L40.0019 157.51L80 157.445L119.998 157.51L139.999 157.541L160 157.637L139.999 157.729L119.998 157.764L80 157.829L40.0019 157.764L20.001 157.729L0 157.637Z" fill="#263238"/>
<path d="M95.2367 48.8286C95.0219 48.6905 94.8071 48.5563 94.5923 48.4259L94.7419 48.1765L95.394 48.587L95.2367 48.8286Z" fill="#263238"/>
<path d="M85.8692 87.2654H85.593V86.9777C86.1052 86.9891 86.6176 86.9699 87.1274 86.9202L87.1581 87.2079C86.74 87.2386 86.3027 87.2654 85.8692 87.2654ZM88.7155 86.9509L88.6542 86.6708C89.1531 86.5578 89.6429 86.4078 90.1195 86.222L90.2231 86.4905C89.7325 86.6786 89.2286 86.8299 88.7155 86.9432V86.9509ZM91.6424 85.8001L91.5005 85.5507C91.9414 85.2933 92.3609 85.0008 92.7549 84.6761L92.939 84.8948C92.533 85.2335 92.0993 85.5376 91.6424 85.8039V85.8001ZM94.0706 83.8053L93.8596 83.6097C94.2038 83.2314 94.5205 82.8288 94.8071 82.4052L95.045 82.5663C94.7509 83.005 94.4252 83.4217 94.0706 83.813V83.8053ZM95.8275 81.2007L95.5666 81.0779C95.7853 80.6159 95.9637 80.1359 96.0999 79.6433L96.3761 79.72C96.2367 80.2298 96.0532 80.7266 95.8275 81.2045V81.2007ZM96.6561 78.1626L96.3684 78.1396C96.3684 77.9324 96.3952 77.7214 96.3952 77.5181C96.3941 77.2336 96.3775 76.9493 96.3454 76.6665C96.0468 76.6465 95.7497 76.6093 95.4554 76.5553L95.5053 76.2714C95.9737 76.356 96.4486 76.3996 96.9246 76.4018H97.0243V76.6895H96.9208H96.6331C96.6638 76.9672 96.6792 77.2464 96.6791 77.5258C96.6829 77.7329 96.6714 77.9516 96.6561 78.1664V78.1626ZM98.6009 76.4977L98.5357 76.2177C99.0291 76.1009 99.5069 75.9257 99.9589 75.696L100.089 75.953C99.6166 76.1941 99.117 76.3782 98.6009 76.5016V76.4977ZM93.9287 76.141C93.4326 75.9621 92.9516 75.7441 92.4902 75.4889L92.6321 75.2395C93.0787 75.4862 93.5443 75.6966 94.0246 75.8686L93.9287 76.141ZM95.9924 75.1283C95.8242 74.6487 95.6029 74.1893 95.3327 73.7588L95.5743 73.6054C95.8585 74.053 96.0902 74.5318 96.2648 75.0324L95.9924 75.1283ZM101.409 75.0669L101.225 74.8483C101.614 74.5195 101.97 74.1533 102.287 73.755L102.51 73.9353C102.182 74.3523 101.813 74.7353 101.409 75.0784V75.0669ZM91.1898 74.6066L91.1092 74.5299C90.7295 74.1963 90.4271 73.7839 90.2231 73.3215L90.4916 73.2141C90.6787 73.6374 90.9563 74.0145 91.3048 74.3189L91.3816 74.3879L91.1898 74.6066ZM103.4 72.6464L103.154 72.4968C103.423 72.0518 103.672 71.5953 103.891 71.1465L104.152 71.2731C103.929 71.7296 103.676 72.1937 103.4 72.6464ZM94.3775 72.5888C94.027 72.2494 93.6412 71.9485 93.2267 71.6912L93.1691 71.6529L93.3187 71.4074L93.3801 71.4457C93.8078 71.7156 94.2052 72.0307 94.5655 72.3855L94.3775 72.5888ZM90.5683 71.8485L90.3305 71.6874C90.4947 71.4566 90.7124 71.2691 90.9649 71.1408C91.2175 71.0125 91.4973 70.9474 91.7805 70.9509V71.2386C91.5446 71.2372 91.3118 71.2917 91.1011 71.3978C90.8904 71.5038 90.7078 71.6583 90.5683 71.8485ZM104.762 69.8269L104.493 69.7272C104.671 69.2457 104.823 68.7553 104.95 68.258L105.226 68.327C105.102 68.8356 104.948 69.3365 104.765 69.8269H104.762ZM105.529 66.785L105.241 66.7466C105.31 66.2378 105.349 65.7255 105.36 65.2122H105.648C105.637 65.7382 105.598 66.2633 105.529 66.785ZM105.306 63.6778C105.26 63.1629 105.187 62.6507 105.088 62.1434L105.372 62.0858C105.472 62.5996 105.546 63.1182 105.594 63.6394L105.306 63.6778ZM104.712 60.6627C104.566 60.1793 104.393 59.6922 104.194 59.2088L104.462 59.1014C104.662 59.5886 104.846 60.0873 104.988 60.5783L104.712 60.6627ZM103.561 57.8049C103.331 57.356 103.074 56.9034 102.794 56.4584L103.039 56.3088C103.315 56.7576 103.576 57.2179 103.806 57.6744L103.561 57.8049ZM101.946 55.1734C101.651 54.7591 101.332 54.3486 101.002 53.9497L101.225 53.7655C101.558 54.1683 101.881 54.5864 102.18 55.0046L101.946 55.1734ZM99.9819 52.7874C99.6328 52.4038 99.2646 52.047 98.8886 51.6941L99.0843 51.4831C99.4679 51.8437 99.8515 52.2158 100.189 52.5917L99.9819 52.7874ZM97.7302 50.666C97.3466 50.34 96.9284 50.0178 96.518 49.7109L96.6868 49.4807C97.1049 49.7876 97.5192 50.1137 97.9143 50.4474L97.7302 50.666Z" fill="#263238"/>
<path d="M83.9855 87.1272C83.7274 87.0952 83.4713 87.0491 83.2183 86.9891L83.2873 86.7091C83.2873 86.7091 83.5635 86.7782 84.0238 86.8434L83.9855 87.1272Z" fill="#263238"/>
<path d="M80.1152 86.5557C79.9349 88.0901 83.0689 88.9494 83.3067 86.9393C83.5445 84.9293 80.2954 85.0098 80.1152 86.5557Z" fill="#263238"/>
<path d="M84.2196 89.0952C83.9281 89.6744 82.8962 89.755 81.8298 89.0108C81.1056 88.4579 80.4936 87.7717 80.0269 86.9892C80.9287 86.8952 81.8401 86.9747 82.7121 87.2232C83.9741 87.649 84.5265 88.5083 84.2196 89.0952Z" fill="#EBEBEB"/>
<path d="M80.0383 86.9893C80.6444 87.2616 81.239 87.557 81.8336 87.8485C82.4282 88.1401 83.0151 88.4508 83.5943 88.773C82.9882 88.5006 82.3936 88.2053 81.7991 87.9137C81.2045 87.6222 80.6176 87.3115 80.0383 86.9893Z" fill="#263238"/>
<path d="M82.8234 89.0837C82.6857 88.9239 82.5576 88.7561 82.4398 88.5812C82.3239 88.4075 82.2189 88.2269 82.1252 88.0403C82.263 88.2 82.3911 88.3678 82.5089 88.5428C82.6255 88.716 82.7306 88.8966 82.8234 89.0837Z" fill="#263238"/>
<path d="M81.5344 87.7373C81.7455 87.6824 81.9593 87.6389 82.175 87.6069C82.3925 87.5761 82.6115 87.5569 82.831 87.5493C82.4062 87.6551 81.9718 87.7181 81.5344 87.7373Z" fill="#263238"/>
<path d="M81.2008 87.9904C81.0688 87.8262 80.9745 87.635 80.9246 87.4303C81.0565 87.5945 81.1508 87.7857 81.2008 87.9904Z" fill="#263238"/>
<path d="M84.726 85.0789C84.5764 84.4459 83.5944 84.1314 82.386 84.6071C81.5521 84.9783 80.7969 85.5057 80.1611 86.1606C81.0234 86.4592 81.935 86.5894 82.8463 86.5442C84.1391 86.4368 84.8794 85.731 84.726 85.0789Z" fill="#EBEBEB"/>
<path d="M80.1611 86.1607C80.8133 86.0379 81.4615 85.8845 82.106 85.7349C82.7504 85.5853 83.3949 85.4242 84.024 85.2439C83.3757 85.3666 82.7274 85.5201 82.083 85.6697C81.4385 85.8193 80.8017 85.9804 80.1611 86.1607Z" fill="#263238"/>
<path d="M83.3566 84.7644C83.1896 84.8831 83.0295 85.0112 82.8771 85.148C82.7248 85.2913 82.5802 85.4424 82.4436 85.6007C82.6122 85.4842 82.7725 85.356 82.9231 85.2171C83.0763 85.0747 83.221 84.9236 83.3566 84.7644Z" fill="#263238"/>
<path d="M81.7837 85.7771C82.1723 85.9794 82.5812 86.1401 83.0035 86.2566C82.6157 86.0526 82.2066 85.8918 81.7837 85.7771Z" fill="#263238"/>
<path d="M81.5344 85.4548C81.4509 85.5174 81.3749 85.5895 81.3081 85.6696C81.2418 85.7519 81.184 85.8405 81.1355 85.9343C81.2192 85.8705 81.2951 85.7971 81.3618 85.7157C81.4315 85.6374 81.4896 85.5496 81.5344 85.4548Z" fill="#263238"/>
<path d="M80.1151 86.5556C80.2249 86.5684 80.3286 86.6134 80.4129 86.6851C80.4972 86.7567 80.5584 86.8517 80.5888 86.958C80.6192 87.0644 80.6174 87.1774 80.5837 87.2828C80.5499 87.3881 80.4857 87.4811 80.3992 87.55C80.3126 87.6189 80.2076 87.6607 80.0974 87.67C79.9871 87.6793 79.8766 87.6557 79.7798 87.6023C79.6829 87.5488 79.604 87.4679 79.5531 87.3697C79.5022 87.2715 79.4815 87.1604 79.4936 87.0504C79.511 86.9027 79.586 86.7677 79.7024 86.675C79.8188 86.5823 79.9671 86.5394 80.1151 86.5556Z" fill="#455A64"/>
<path d="M80.2456 85.4395C80.3189 85.448 80.3897 85.4709 80.4542 85.5069C80.5186 85.5429 80.5754 85.5912 80.6211 85.6491C80.6669 85.7069 80.7008 85.7733 80.721 85.8443C80.7411 85.9153 80.7471 85.9895 80.7385 86.0628C80.7299 86.1361 80.707 86.207 80.671 86.2715C80.6351 86.3359 80.5868 86.3926 80.5289 86.4384C80.471 86.4842 80.4047 86.5181 80.3337 86.5382C80.2627 86.5584 80.1884 86.5643 80.1151 86.5557C79.9671 86.5385 79.832 86.4631 79.7396 86.3462C79.6471 86.2293 79.6049 86.0804 79.6222 85.9324C79.6395 85.7844 79.7149 85.6493 79.8318 85.5568C79.9487 85.4644 80.0975 85.4222 80.2456 85.4395Z" fill="#455A64"/>
<path d="M45.4758 122.676C45.4758 122.676 37.2974 139.052 37.2936 139.052C36.6185 142.431 36.0891 145.412 35.9548 146.977C35.9528 146.986 35.9528 146.995 35.9548 147.004C35.884 147.366 35.8985 147.741 35.997 148.097C35.995 148.106 35.995 148.115 35.997 148.124C36.8678 149.006 63.7429 155.194 64.7671 155.094C65.7913 154.994 65.5727 152.106 64.7211 151.035C63.8695 149.965 54.6362 142.98 54.6362 142.98L62.6305 126.577L45.4758 122.676Z" fill="#D3766A"/>
<path d="M64.3605 155.109C63.3516 155.209 36.8793 149.018 36.0124 148.139C36.0111 148.13 36.0111 148.121 36.0124 148.112C35.912 147.756 35.8962 147.382 35.9664 147.019C35.9631 147.01 35.9631 147.001 35.9664 146.992C36.0968 145.427 36.63 142.446 37.3013 139.063L39.2577 135.143L56.2167 139.792L54.6516 143.007C54.6516 143.007 63.4744 149.977 64.3298 151.062C65.1853 152.148 65.3732 155.013 64.3605 155.109Z" fill="#EBEBEB"/>
<path d="M64.729 154.68C63.7048 154.756 36.7645 147.89 35.9052 146.977C35.5753 146.635 36.3464 142.65 37.4166 137.862L37.4511 137.713L54.882 141.952L54.8014 142.243C54.8014 142.243 63.9349 149.486 64.775 150.59C65.6151 151.695 65.7494 154.607 64.729 154.68Z" fill="#263238"/>
<path d="M64.6867 153.556C60.1756 152.29 41.8548 147.594 37.2976 146.682C37.2592 146.682 37.2515 146.701 37.2976 146.712C41.7435 148.066 60.1027 152.612 64.679 153.617C64.7673 153.652 64.7826 153.582 64.6867 153.556Z" fill="white"/>
<path d="M56.2474 142.669C54.5442 141.879 52.2886 141.595 50.6008 142.523C50.5355 142.558 50.6008 142.65 50.6468 142.646C52.4954 142.53 54.3511 142.612 56.1822 142.892C56.209 142.893 56.2357 142.886 56.2577 142.87C56.2797 142.855 56.2959 142.832 56.3034 142.806C56.311 142.78 56.3096 142.753 56.2994 142.728C56.2892 142.703 56.2709 142.682 56.2474 142.669Z" fill="white"/>
<path d="M57.3366 143.774C55.6373 142.987 53.3817 142.704 51.69 143.628C51.6248 143.663 51.69 143.755 51.7399 143.755C53.5885 143.637 55.4444 143.719 57.2752 144C57.3032 144.003 57.3312 143.996 57.3544 143.98C57.3775 143.964 57.3942 143.94 57.4016 143.913C57.4089 143.886 57.4064 143.857 57.3945 143.832C57.3826 143.806 57.3621 143.786 57.3366 143.774Z" fill="white"/>
<path d="M58.4301 144.882C56.7269 144.092 54.4714 143.808 52.7835 144.733C52.7183 144.771 52.7835 144.863 52.8334 144.859C54.6807 144.744 56.5351 144.826 58.3649 145.105C58.3918 145.106 58.4184 145.099 58.4405 145.083C58.4625 145.068 58.4786 145.045 58.4862 145.02C58.4938 144.994 58.4923 144.966 58.4822 144.941C58.472 144.916 58.4536 144.895 58.4301 144.882Z" fill="white"/>
<path d="M65.3849 153.82C65.8184 154.127 65.3005 155.719 64.9208 155.761C64.541 155.804 35.1994 148.185 34.7352 147.944C34.271 147.702 34.9078 145.96 35.5024 146.026C36.097 146.091 65.3849 153.82 65.3849 153.82Z" fill="#1867FF"/>
<path d="M41.1297 141.863C39.4266 140.39 37.1326 143.037 38.8281 144.514C40.5237 145.991 42.8368 143.34 41.1297 141.863Z" fill="white"/>
<path d="M39.3076 133.835L58.9633 138.791C58.9633 138.791 77.2841 105.728 76.8737 97.3236C76.3098 85.7311 62.6996 50.0869 62.6996 50.0869H46.4042C46.4042 50.0869 57.218 88.6196 57.3676 95.1025C57.4328 98.4935 39.3076 133.835 39.3076 133.835Z" fill="#455A64"/>
<path d="M59.8035 134.801C58.7563 134.383 49.4003 131.683 42.4187 130.198C42.411 130.201 42.4044 130.206 42.3996 130.212C42.3949 130.219 42.3923 130.227 42.3923 130.235C42.3923 130.243 42.3949 130.251 42.3996 130.257C42.4044 130.264 42.411 130.269 42.4187 130.271C44.6167 131.038 58.4878 134.694 59.7882 134.874C59.8189 134.886 59.8495 134.832 59.8035 134.801Z" fill="#263238"/>
<path d="M58.7176 86.8244C57.4211 81.385 56.0324 75.9609 54.5747 70.5713C53.1171 65.1817 51.5558 59.7422 49.8411 54.3948C49.634 53.7388 49.4153 53.0906 49.2043 52.4384C49.1982 52.4176 49.1841 52.4 49.165 52.3896C49.146 52.3791 49.1235 52.3767 49.1027 52.3828C49.0818 52.3889 49.0642 52.4031 49.0538 52.4221C49.0434 52.4412 49.0409 52.4636 49.0471 52.4845C50.5815 57.8127 52.1159 63.1294 53.5697 68.4768C55.0236 73.8242 56.4084 79.1869 57.7126 84.588C58.0387 85.923 58.3571 87.2541 58.6678 88.5928C59.0289 89.965 59.3081 91.3573 59.504 92.7626C59.6653 94.1053 59.5729 95.4664 59.2317 96.7751C58.8615 98.061 58.3775 99.3113 57.7855 100.511C55.4353 105.613 53.0864 110.716 50.7387 115.821C48.3911 120.938 48.0113 122.104 45.7519 127.264C45.4719 127.904 45.1919 128.545 44.9233 129.182C44.9233 129.224 44.9655 129.262 44.9886 129.216C47.5587 124.16 47.9538 122.944 50.359 117.796C52.7641 112.648 55.154 107.439 57.54 102.257C58.6141 99.9167 59.8761 97.5307 60.0372 94.9146C60.1983 92.1833 59.3391 89.4444 58.7176 86.8244Z" fill="#263238"/>
<path d="M59.6079 129.151L60.237 147.18C60.3406 150.633 60.4902 153.652 60.7165 155.205C60.7147 155.214 60.7147 155.223 60.7165 155.232C60.7294 155.601 60.8265 155.962 61.0004 156.287L61.0234 156.31C62.0706 156.974 89.6477 156.958 90.6106 156.632C91.5734 156.306 90.7218 153.544 89.6515 152.689C88.5813 151.833 78.0169 147.119 78.0169 147.119L77.2152 129.109L59.6079 129.151Z" fill="#D3766A"/>
<path d="M60.1064 143.49C60.1064 143.49 60.2369 147.18 60.2369 147.192C60.3404 150.644 60.49 153.663 60.7164 155.217C60.7145 155.225 60.7145 155.235 60.7164 155.243C60.7688 155.605 60.8641 155.959 61.0002 156.298L61.0233 156.321C62.0705 156.985 89.6476 156.97 90.6104 156.644C91.5732 156.317 90.7216 153.556 89.6514 152.7C88.5812 151.845 78.0168 147.13 78.0168 147.13L77.9362 143.375L60.1064 143.49Z" fill="#EBEBEB"/>
<path d="M90.6258 156.613C89.6514 156.924 61.8557 156.494 60.8046 155.803C60.421 155.546 60.2292 151.496 60.1602 146.597V146.444L78.0973 146.52V146.827C78.0973 146.827 88.6656 151.749 89.7358 152.627C90.8061 153.506 91.6039 156.314 90.6258 156.613Z" fill="#263238"/>
<path d="M90.3303 155.547C85.6465 155.359 66.735 155.044 62.0896 155.217C62.0512 155.217 62.0512 155.244 62.0896 155.244C66.7273 155.531 85.6427 155.696 90.3303 155.627C90.4262 155.604 90.43 155.547 90.3303 155.547Z" fill="white"/>
<path d="M79.5933 146.896C77.7559 146.513 75.4926 146.77 74.0656 148.047C74.0081 148.097 74.0656 148.174 74.1423 148.158C75.9133 147.618 77.7367 147.267 79.5818 147.111C79.604 147.104 79.6236 147.09 79.6378 147.072C79.6521 147.053 79.6604 147.031 79.6616 147.008C79.6629 146.984 79.657 146.961 79.6448 146.941C79.6326 146.922 79.6146 146.906 79.5933 146.896Z" fill="white"/>
<path d="M80.913 147.717C79.0717 147.334 76.8123 147.594 75.3853 148.887C75.3277 148.937 75.3853 149.014 75.4582 148.995C77.2301 148.453 79.055 148.104 80.9015 147.951C80.9292 147.948 80.9549 147.935 80.9739 147.914C80.993 147.893 81.0042 147.867 81.0055 147.839C81.0069 147.811 80.9984 147.783 80.9814 147.761C80.9645 147.739 80.9403 147.723 80.913 147.717Z" fill="white"/>
<path d="M82.2288 148.542C80.3914 148.158 78.132 148.415 76.7011 149.693C76.6474 149.743 76.7011 149.819 76.7779 149.804C78.549 149.264 80.3723 148.913 82.2173 148.757C82.2396 148.75 82.2591 148.736 82.2733 148.717C82.2876 148.699 82.2959 148.677 82.2971 148.653C82.2984 148.63 82.2925 148.607 82.2803 148.587C82.2681 148.567 82.2502 148.551 82.2288 148.542Z" fill="white"/>
<path d="M91.0669 155.623C91.5617 155.823 91.4275 157.491 91.0669 157.618C90.7063 157.745 60.3788 157.142 59.8839 157.02C59.3891 156.897 59.5886 155.052 60.1908 154.963C60.7931 154.875 91.0669 155.623 91.0669 155.623Z" fill="#1867FF"/>
<path d="M64.702 149.62C62.7035 148.58 61.0847 151.687 63.0871 152.727C65.0895 153.767 66.7044 150.659 64.702 149.62Z" fill="white"/>
<path d="M62.4961 50.0562C62.4232 50.39 58.3609 66.4513 57.8545 66.7506C57.2791 67.092 72.6155 87.7259 74.4338 97.8568C75.5846 104.336 78.2698 142.101 78.2698 142.101H58.7138C58.7138 142.101 56.7958 110.028 56.159 99.4602C55.9097 95.3595 40.5273 76.402 39.0658 63.7623C38.6054 59.7805 41.4671 50.0409 41.4671 50.0409L62.4961 50.0562Z" fill="#455A64"/>
<path d="M58.2192 126.842C57.989 121.529 57.778 116.204 57.3906 110.899C57.1719 107.892 56.7423 104.98 56.4431 101.984C56.4431 101.827 56.3012 101.789 56.305 101.95C56.4431 107.286 56.8842 112.564 57.1681 117.896C57.452 123.228 57.7243 124.471 58.0274 129.788C58.1962 132.795 58.3458 135.803 58.5798 138.806C58.5823 138.814 58.5872 138.821 58.5937 138.825C58.6003 138.83 58.6081 138.833 58.6162 138.833C58.6243 138.833 58.6322 138.83 58.6387 138.825C58.6452 138.821 58.6501 138.814 58.6527 138.806C58.6642 133.466 58.4532 132.174 58.2192 126.842Z" fill="#263238"/>
<path d="M74.4531 98.1099C74.2858 96.7068 74.014 95.3181 73.6399 93.9555C73.237 92.6348 72.7064 91.3565 72.0556 90.1387C70.7245 87.5839 69.2093 85.1135 67.7478 82.6316C66.2862 80.1497 64.7633 77.6141 63.2213 75.136C62.3543 73.7449 61.4836 72.3549 60.6089 70.9663C59.719 69.5662 58.7792 68.1929 57.8624 66.8119C57.8552 66.8002 57.8438 66.7918 57.8304 66.7886C57.8171 66.7853 57.8031 66.7875 57.7914 66.7946C57.7797 66.8018 57.7713 66.8132 57.7681 66.8265C57.7648 66.8399 57.767 66.8539 57.7741 66.8656C59.2702 69.3744 60.7509 71.8869 62.2469 74.3957C63.743 76.9044 65.216 79.4209 66.689 81.9373C68.162 84.4537 69.5929 86.8934 70.9815 89.4098C71.6653 90.6046 72.254 91.8513 72.7422 93.1384C73.1964 94.4721 73.5264 95.8448 73.7281 97.2391C74.2498 100.488 74.6756 103.76 75.3277 106.979C75.3302 106.986 75.3351 106.993 75.3417 106.998C75.3482 107.003 75.3561 107.005 75.3642 107.005C75.3722 107.005 75.3801 107.003 75.3867 106.998C75.3932 106.993 75.3981 106.986 75.4006 106.979C75.1973 104.017 74.8444 101.052 74.4531 98.1099Z" fill="#263238"/>
<path d="M76.5474 138.749C75.4312 138.603 66.9114 138.307 59.7841 138.614C59.738 138.614 59.7419 138.683 59.7841 138.687C62.1049 138.891 75.2279 138.983 76.5359 138.829C76.5705 138.825 76.5858 138.756 76.5474 138.749Z" fill="#263238"/>
<path d="M60.4057 65.6535C58.4132 66.3794 56.4879 67.2779 54.6517 68.3387C54.6359 68.3458 54.6236 68.3589 54.6175 68.3751C54.6114 68.3913 54.6119 68.4092 54.6191 68.425C54.6262 68.4408 54.6393 68.4531 54.6555 68.4592C54.6717 68.4653 54.6896 68.4647 54.7054 68.4576C56.6464 67.6214 58.6296 66.8235 60.5246 65.8837C60.5551 65.8679 60.5781 65.8406 60.5886 65.8079C60.599 65.7752 60.596 65.7396 60.5802 65.7091C60.5645 65.6786 60.5372 65.6556 60.5045 65.6452C60.4717 65.6347 60.4362 65.6377 60.4057 65.6535Z" fill="#263238"/>
<path d="M60.9925 52.3578C60.9925 52.2926 60.8698 52.2772 60.8698 52.3578C60.8702 54.5254 60.7613 56.6917 60.5437 58.8483C60.4516 59.8495 59.6461 65.3695 57.9122 64.9859C57.6207 64.9169 57.4749 64.633 57.4289 64.1919C57.4337 63.6193 57.511 63.0496 57.659 62.4964C57.8508 61.3456 58.0043 60.1948 58.104 59.0094C58.3074 56.8315 58.2842 54.6384 58.035 52.4652C58.0317 52.4529 58.0245 52.4421 58.0144 52.4343C58.0044 52.4266 57.992 52.4224 57.9793 52.4224C57.9666 52.4224 57.9543 52.4266 57.9442 52.4343C57.9342 52.4421 57.927 52.4529 57.9237 52.4652C57.974 55.4842 57.797 58.5027 57.3943 61.4952C57.1757 62.9337 56.4507 65.101 57.9582 65.3312C59.4658 65.5613 60.4823 61.9286 60.6665 60.9351C61.1463 58.1022 61.2559 55.2189 60.9925 52.3578Z" fill="#263238"/>
<path d="M57.9582 65.1049C57.8046 65.4794 57.6764 65.8639 57.5746 66.2557C57.4642 66.5565 57.4096 66.875 57.4135 67.1955C57.4154 67.2086 57.4212 67.2208 57.4302 67.2305C57.4391 67.2402 57.4508 67.247 57.4637 67.2499C57.4766 67.2528 57.4901 67.2518 57.5024 67.2468C57.5146 67.2419 57.5251 67.2334 57.5324 67.2223C57.7137 66.9396 57.8496 66.6303 57.9352 66.3055C58.0695 65.9488 58.2076 65.5997 58.3188 65.2391C58.3366 65.1913 58.3347 65.1384 58.3135 65.092C58.2923 65.0456 58.2535 65.0095 58.2057 64.9917C58.1578 64.9739 58.1049 64.9758 58.0585 64.997C58.0121 65.0183 57.976 65.0571 57.9582 65.1049Z" fill="#263238"/>
<path d="M58.7753 104.616C58.5912 101.885 58.6027 99.0037 57.4404 96.472C56.823 95.2382 56.1126 94.0533 55.3152 92.9275C54.5224 91.7153 53.7399 90.4967 52.9676 89.2718C49.8988 84.3732 46.9374 79.3749 44.2406 74.2538C42.9402 71.7872 41.7434 69.2401 41.0913 66.5166C40.4553 63.6505 40.3345 60.6942 40.7345 57.7858C40.8266 57.0608 40.9263 56.3396 41.0452 55.6185C41.0456 55.6087 41.0426 55.5991 41.0367 55.5913C41.0308 55.5835 41.0224 55.578 41.0129 55.5757C41.0033 55.5735 40.9933 55.5746 40.9846 55.5789C40.9758 55.5832 40.9687 55.5904 40.9647 55.5993C40.3335 58.365 40.1176 61.2092 40.3241 64.0385C40.6193 66.7435 41.3811 69.3769 42.5758 71.8218C43.765 74.3957 45.1805 76.8738 46.5768 79.3403C48.0166 81.8977 49.4985 84.4179 51.0227 86.9011C52.5571 89.3792 54.1376 91.8074 55.7218 94.2471C56.5299 95.3978 57.1597 96.6639 57.59 98.0025C57.9388 99.3994 58.1393 100.829 58.1884 102.268C58.572 108.306 60.1064 128.38 60.6511 134.387C60.7163 135.154 60.7854 135.921 60.8582 136.689C60.8561 136.697 60.8557 136.705 60.8573 136.713C60.8589 136.721 60.8623 136.729 60.8673 136.735C60.8723 136.742 60.8788 136.747 60.8862 136.751C60.8936 136.755 60.9018 136.757 60.91 136.757C60.9183 136.757 60.9264 136.755 60.9339 136.751C60.9413 136.747 60.9477 136.742 60.9527 136.735C60.9577 136.729 60.9612 136.721 60.9627 136.713C60.9643 136.705 60.964 136.697 60.9618 136.689C60.7316 130.658 59.1704 110.635 58.7753 104.616Z" fill="#263238"/>
<path d="M49.3886 55.3499C49.3886 55.3077 49.3195 55.3231 49.3195 55.3499C49.262 57.0263 49.3195 58.7601 48.6636 60.3367C48.0728 61.7906 46.8837 62.811 45.5526 63.5743C44.7784 64.0087 43.9806 64.3993 43.1627 64.7443C43.1052 64.7712 43.1282 64.8632 43.1934 64.8441C44.7278 64.3531 46.3121 63.8198 47.5972 62.7918C48.9704 61.687 49.5727 60.0874 49.6379 58.3612C49.6614 57.3515 49.5778 56.3421 49.3886 55.3499Z" fill="#263238"/>
<path d="M57.9006 28.0259C60.0948 34.762 66.0214 46.2355 68.1389 47.6203C70.0147 48.844 78.8414 47.4783 82.7158 46.5462C84.1581 46.1971 80.9128 35.2031 79.3746 35.6059C77.5295 36.0892 72.0325 37.3283 71.6335 37.0214C71.2346 36.7145 65.6915 29.8864 61.7635 25.8663C58.1883 22.2259 57.072 25.4788 57.9006 28.0259Z" fill="#D3766A"/>
<path d="M81.8682 46.6307C82.6085 46.5386 88.8727 46.2471 91.7459 44.6858C93.2803 43.8534 97.1969 41.0992 96.8056 40.1095C96.4488 39.208 95.1906 39.699 95.1906 39.699C95.1906 39.699 96.9207 38.4446 96.4143 37.1941C95.908 35.9436 93.8173 36.8834 93.8173 36.8834C93.8173 36.8834 95.5013 35.4641 94.9068 34.2557C94.3122 33.0474 92.3712 34.3401 92.3712 34.3401C92.3712 34.3401 93.9708 33.1164 93.0616 32.3262C91.9645 31.3749 89.2678 33.968 87.4457 34.5741C87.0314 34.7122 78.8684 36.776 78.8684 36.776L81.8682 46.6307Z" fill="#D3766A"/>
<path d="M92.3021 34.3055C90.315 36.2044 89.1143 36.6915 86.4598 37.2286C86.4099 37.2286 86.4138 37.3206 86.4598 37.313C89.1067 37.0253 90.6986 36.6302 92.3903 34.3976C92.4823 34.2863 92.3941 34.2135 92.3021 34.3055Z" fill="#263238"/>
<path d="M93.7521 36.8373C91.5157 38.6325 90.2191 39.1696 87.4802 39.9368C87.4419 39.9368 87.4572 40.0173 87.4994 40.0097C90.246 39.4803 91.8264 39.0507 93.825 36.9639C93.9171 36.8718 93.8557 36.7567 93.7521 36.8373Z" fill="#263238"/>
<path d="M95.0562 39.7297C92.7546 41.3102 91.3698 41.9661 88.6155 42.3689C88.6023 42.3689 88.5896 42.3742 88.5803 42.3835C88.5709 42.3929 88.5657 42.4055 88.5657 42.4188C88.5657 42.432 88.5709 42.4447 88.5803 42.454C88.5896 42.4634 88.6023 42.4686 88.6155 42.4686C91.4657 42.3305 93.2188 41.5288 95.0869 39.8064C95.225 39.699 95.1981 39.6338 95.0562 39.7297Z" fill="#263238"/>
<path d="M76.7278 37.1289C76.7278 37.1289 79.0102 34.5473 80.2607 33.6343C81.5113 32.7213 87.4341 31.0335 87.8714 32.2917C88.4353 33.9182 85.2092 35.5638 83.5252 36.1622C83.5252 36.1622 84.8333 39.9215 82.758 41.6017C80.6827 43.2819 76.7278 37.1289 76.7278 37.1289Z" fill="#D3766A"/>
<path d="M87.883 32.7942C87.3268 34.647 85.0636 35.2914 83.4716 35.9934C83.4481 36.0036 83.4272 36.0191 83.4107 36.0387C83.3942 36.0584 83.3825 36.0816 83.3765 36.1066C83.3706 36.1315 83.3705 36.1575 83.3764 36.1825C83.3822 36.2075 83.3938 36.2307 83.4102 36.2504C83.8552 37.8616 84.0087 40.2629 82.8809 41.6208C82.8502 41.6592 82.9001 41.7129 82.9384 41.6784C84.3462 40.3895 84.3846 38.015 83.7862 36.2811C85.4318 35.5868 87.672 34.8388 87.8984 32.8019C87.9022 32.7942 87.8869 32.7942 87.883 32.7942Z" fill="#263238"/>
<path d="M81.8643 48.5218L78.972 35.3489L71.814 36.6493C68.9907 33.4156 63.3479 26.9519 61.0731 25.0109C58.3879 22.7323 56.631 24.4431 57.6207 27.8955C59.8571 35.7862 66.3975 47.371 68.1084 48.4642C70.5903 50.0562 81.8643 48.5218 81.8643 48.5218Z" fill="#1867FF"/>
<path opacity="0.1" d="M71.645 40.658C71.9994 40.735 72.3604 40.7774 72.7229 40.7846C73.4901 40.8881 73.8277 42.0198 73.1296 42.4494C72.7629 42.6752 72.3485 42.8119 71.9195 42.8486C71.4904 42.8852 71.0588 42.8208 70.6592 42.6604C69.892 42.3612 69.2437 41.617 69.4086 40.7424C69.4372 40.5793 69.5075 40.4264 69.6126 40.2986C69.7178 40.1708 69.8542 40.0723 70.0087 40.0129C70.1632 39.9534 70.3304 39.9349 70.4941 39.9592C70.6579 39.9835 70.8125 40.0498 70.943 40.1516C71.1556 40.3483 71.3913 40.5183 71.645 40.658ZM69.6656 37.524C69.3895 38.8282 71.4072 39.9483 72.4391 39.254C72.5223 39.191 72.5902 39.1101 72.6378 39.0172C72.6854 38.9244 72.7114 38.822 72.714 38.7177C72.7166 38.6134 72.6956 38.5098 72.6527 38.4147C72.6097 38.3196 72.5459 38.2354 72.4659 38.1684C72.1629 37.9229 71.9097 37.8845 71.6412 37.662C71.5473 37.5887 71.4646 37.5022 71.3957 37.405C71.2435 37.1953 71.0488 37.0201 70.8241 36.891C70.7073 36.8411 70.5806 36.8183 70.4536 36.8244C70.3267 36.8305 70.2028 36.8654 70.0913 36.9263C69.9797 36.9872 69.8835 37.0727 69.8098 37.1762C69.736 37.2797 69.6868 37.3986 69.6656 37.524ZM66.4472 37.593C66.0329 38.1339 66.3437 38.9471 66.7081 39.4381C66.8721 39.6827 67.0981 39.8793 67.3629 40.008C67.6278 40.1367 67.922 40.1929 68.2156 40.1708C68.3226 40.1557 68.423 40.1101 68.5046 40.0393C68.5862 39.9684 68.6456 39.8755 68.6756 39.7717C68.7056 39.6679 68.705 39.5577 68.6737 39.4542C68.6425 39.3508 68.582 39.2586 68.4995 39.1888C68.2688 39.0133 68.0845 38.7842 67.9625 38.5213C67.7822 38.1147 67.6632 37.5892 67.1953 37.4127C67.0675 37.3601 66.9264 37.3493 66.792 37.3817C66.6577 37.414 66.537 37.488 66.4472 37.593ZM74.944 46.1243C74.4031 47.2176 76.0488 48.4604 77.0461 48.2456C77.3799 48.1727 77.7021 47.7354 77.4067 47.4209C77.1689 47.1677 76.885 46.9682 76.6625 46.6997C76.3902 46.3736 76.2406 45.9555 75.8148 45.7906C75.6546 45.7235 75.4747 45.7208 75.3125 45.7829C75.1503 45.8451 75.0184 45.9673 74.944 46.1243ZM59.4925 32.7174C59.3982 32.5378 59.2676 32.3798 59.1089 32.2533C59.3238 32.8031 59.5501 33.3542 59.7879 33.9066C59.8007 33.4906 59.6985 33.0791 59.4925 32.7174ZM61.6292 31.5666C61.5541 30.619 61.1838 29.7188 60.5705 28.9927C60.1101 28.3981 59.3122 27.4583 58.4683 27.6616C58.3786 27.6896 58.3003 27.7458 58.2451 27.8218C58.1898 27.8978 58.1605 27.9896 58.1615 28.0835C58.1077 28.7318 58.8519 29.4261 59.1742 29.944C59.5578 30.5961 59.8608 31.3173 60.2751 31.9656C60.3617 32.0989 60.4891 32.2005 60.6382 32.2555C60.7874 32.3104 60.9503 32.3156 61.1027 32.2702C61.255 32.2249 61.3886 32.1315 61.4835 32.004C61.5784 31.8765 61.6295 31.7217 61.6292 31.5628V31.5666ZM61.3799 35.6903C61.5298 35.6826 61.6732 35.627 61.7892 35.5317C61.9052 35.4365 61.9876 35.3065 62.0243 35.161C62.0839 34.8632 62.0641 34.5549 61.9668 34.2672C61.9094 33.9932 61.7765 33.7407 61.5832 33.5383C61.5139 33.4743 61.4292 33.4293 61.3374 33.4078C61.2455 33.3863 61.1497 33.389 61.0592 33.4157C60.9687 33.4424 60.8867 33.4921 60.8212 33.56C60.7557 33.6279 60.7089 33.7116 60.6855 33.803C60.6548 34.027 60.6548 34.2542 60.6855 34.4782C60.6855 34.5741 60.6855 34.67 60.6855 34.7697C60.6836 34.9142 60.699 35.0585 60.7316 35.1993C60.7728 35.3395 60.8582 35.4626 60.975 35.5503C61.0918 35.6381 61.2338 35.6858 61.3799 35.6865V35.6903Z" fill="#030402"/>
<path d="M79.3594 47.371C79.0295 46.6038 78.2086 43.1974 78.0283 42.3497C77.848 41.5019 77.1805 38.0725 76.9849 37.2017C76.9849 37.1519 77.0386 37.125 77.0501 37.171C77.2572 38.0303 78.1817 41.4137 78.385 42.2576C78.5883 43.1015 79.3517 46.5041 79.4054 47.3595C79.4061 47.3625 79.4063 47.3657 79.4058 47.3687C79.4054 47.3718 79.4043 47.3748 79.4027 47.3774C79.3995 47.3828 79.3942 47.3867 79.3881 47.3883C79.382 47.3898 79.3756 47.3888 79.3702 47.3856C79.3648 47.3823 79.3609 47.3771 79.3594 47.371Z" fill="#263238"/>
<path opacity="0.1" d="M72.7116 49.1817C70.6977 49.1817 68.9293 48.9899 68.1084 48.4644C66.3861 47.3519 59.8457 35.8055 57.5939 27.8995C57.0262 25.9201 57.3676 24.5085 58.2652 24.098L72.7116 49.1817Z" fill="black"/>
<path d="M40.2512 51.863C40.3011 51.9359 64.2378 55.0047 64.4948 54.7822C64.6301 54.1158 64.7262 53.4421 64.7825 52.7644C64.7825 52.7644 62.5883 26.7026 61.4528 25.172C60.4593 23.8371 57.4442 22.8704 55.392 23.7412C51.0841 25.5671 40.7691 48.8517 40.8803 49.8261C40.8727 49.8146 40.1898 51.7709 40.2512 51.863Z" fill="#1867FF"/>
<path opacity="0.1" d="M48.8823 48.6906C49.2514 48.8698 49.6368 49.0137 50.0331 49.1202C50.831 49.4386 50.9039 50.7697 50.0331 51.0382C49.5702 51.1851 49.0794 51.2217 48.5998 51.1451C48.1203 51.0685 47.6653 50.8808 47.2712 50.5971C46.504 50.06 46.0091 49.0627 46.4234 48.1727C46.4994 48.0034 46.6178 47.8564 46.767 47.746C46.9162 47.6357 47.0914 47.5655 47.2755 47.5424C47.4597 47.5193 47.6467 47.544 47.8186 47.614C47.9905 47.6841 48.1415 47.7972 48.257 47.9425C48.4718 48.1919 48.6023 48.5218 48.8823 48.6906ZM47.5704 44.728C46.9144 46.0821 48.8132 47.8505 50.129 47.371C50.2392 47.3269 50.3377 47.2579 50.4167 47.1693C50.4957 47.0807 50.5531 46.975 50.5843 46.8605C50.6156 46.746 50.6198 46.6258 50.5967 46.5093C50.5736 46.3929 50.5238 46.2834 50.4512 46.1895C50.1904 45.8404 49.9218 45.7292 49.684 45.4223C49.6019 45.3162 49.536 45.1986 49.4884 45.0732C49.375 44.8054 49.2094 44.5628 49.0012 44.3597C48.5447 43.9186 47.812 44.2293 47.5704 44.728ZM45.3532 43.2856C44.6358 43.5542 44.4517 44.5208 44.5054 45.2036C44.5164 45.5353 44.6153 45.8582 44.7918 46.1392C44.9684 46.4202 45.2164 46.6494 45.5104 46.8033C45.6214 46.8528 45.7444 46.8692 45.8644 46.8504C45.9845 46.8316 46.0966 46.7783 46.1871 46.6972C46.2775 46.616 46.3426 46.5104 46.3743 46.3931C46.4061 46.2758 46.4031 46.1517 46.3659 46.0361C46.2441 45.7293 46.2018 45.3968 46.2431 45.0694C46.3083 44.5784 46.504 44.003 46.1779 43.5618C46.0871 43.4347 45.9585 43.3395 45.8104 43.2898C45.6622 43.2402 45.5022 43.2388 45.3532 43.2856ZM53.217 47.8505C53.0354 47.8349 52.8547 47.8895 52.7121 48.0029C52.5694 48.1163 52.4756 48.28 52.4498 48.4604C52.4301 48.6542 52.4788 48.8489 52.5874 49.0106C52.6959 49.1724 52.8575 49.2912 53.0444 49.3465C53.3059 49.4329 53.5883 49.4329 53.8499 49.3465C53.9838 49.2936 54.0941 49.1942 54.1606 49.0665C54.2377 48.943 54.2689 48.7964 54.2489 48.6522C54.2276 48.5177 54.166 48.3928 54.0721 48.2942C53.9783 48.1955 53.8566 48.1277 53.7233 48.0998C53.6992 48.068 53.6708 48.0396 53.6389 48.0154C53.5172 47.9208 53.3706 47.8635 53.217 47.8505ZM47.3364 38.5942C46.6919 39.254 46.9528 40.7539 47.6893 41.2602C47.7841 41.3323 47.8961 41.3783 48.0143 41.3937C48.1324 41.4091 48.2525 41.3933 48.3626 41.348C48.4727 41.3026 48.5691 41.2292 48.6421 41.1351C48.7151 41.041 48.7622 40.9294 48.7787 40.8114C48.79 40.6594 48.79 40.5069 48.7787 40.3549C48.7787 40.19 48.7557 40.0864 48.7787 39.9713C48.8361 39.6433 48.8477 39.309 48.8132 38.9778C48.7834 38.8207 48.7096 38.6753 48.6004 38.5586C48.4912 38.4418 48.351 38.3585 48.1963 38.3183C48.0415 38.2781 47.8786 38.2827 47.7263 38.3316C47.5741 38.3804 47.4389 38.4715 47.3364 38.5942ZM43.1743 48.1382C42.2882 49.1892 43.7497 50.9922 44.8967 51.0267C45.2803 51.0267 45.7521 50.6431 45.5143 50.2211C45.3225 49.8836 45.0655 49.5844 44.8967 49.2353C44.6895 48.8056 44.6397 48.3031 44.2177 48.0116C44.0603 47.8959 43.8648 47.8446 43.6709 47.8682C43.477 47.8917 43.2994 47.9882 43.1743 48.1382ZM64.3376 47.8045C64.1932 47.8261 64.0585 47.8901 63.9505 47.9885C63.8426 48.0868 63.7664 48.2151 63.7315 48.3568C63.6087 48.7826 63.5934 49.1624 63.275 49.5076C62.9304 49.7787 62.6211 50.0919 62.3544 50.4398C62.3098 50.5267 62.2886 50.6236 62.2928 50.7211C62.297 50.8187 62.3265 50.9135 62.3783 50.9962C62.4301 51.0789 62.5025 51.1468 62.5884 51.1932C62.6743 51.2395 62.7708 51.2628 62.8684 51.2607C63.5383 51.1784 64.1515 50.8436 64.5831 50.3247C64.5064 49.5959 64.4296 48.7404 64.3414 47.7891L64.3376 47.8045ZM62.4196 44.6397C62.2048 45.1614 62.2431 45.7522 62.0628 46.2969C61.9046 46.7963 61.7163 47.2856 61.4989 47.7623C61.3378 48.1075 61.66 48.6522 62.0782 48.4681C62.7582 48.207 63.3144 47.6987 63.6356 47.0449C63.9271 46.4427 64.2493 45.43 63.9693 44.7893C63.6893 44.1487 62.738 43.8687 62.4119 44.6244L62.4196 44.6397ZM60.233 49.8682C59.9143 50.2801 59.5064 50.6145 59.04 50.8464C58.9289 50.8809 58.8264 50.9386 58.7393 51.0157C58.6521 51.0929 58.5824 51.1876 58.5347 51.2937C58.487 51.3999 58.4624 51.5149 58.4625 51.6313C58.4626 51.7476 58.4875 51.8626 58.5354 51.9687C58.5833 52.0747 58.6533 52.1693 58.7406 52.2462C58.8278 52.3232 58.9305 52.3807 59.0417 52.4149C59.1529 52.4492 59.2701 52.4594 59.3855 52.4449C59.501 52.4305 59.6121 52.3916 59.7113 52.3309C60.1083 52.1608 60.463 51.9057 60.7507 51.5836C61.0383 51.2615 61.2518 50.8802 61.3762 50.4666C61.5565 49.803 60.6588 49.3695 60.2254 49.8529L60.233 49.8682ZM56.7269 31.0718C56.9413 31.1171 57.1648 31.0777 57.3507 30.9619C57.5367 30.846 57.6705 30.6627 57.7243 30.4503C57.9391 29.6256 57.2026 28.7778 56.6195 28.2638C56.0364 27.7498 55.2155 27.2818 54.3985 27.5465C54.2897 27.5817 54.1917 27.6442 54.1139 27.7279C54.036 27.8116 53.9808 27.9139 53.9535 28.0249C53.9262 28.136 53.9278 28.2521 53.958 28.3624C53.9882 28.4727 54.0461 28.5734 54.1261 28.6551C54.4829 29.1001 54.9777 29.4223 55.3575 29.8596C55.7372 30.2969 56.0518 30.9452 56.7193 31.0564L56.7269 31.0718ZM59.6691 34.3285C59.9914 33.8644 59.742 33.1777 59.5119 32.7366C59.3893 32.4933 59.1987 32.2907 58.9633 32.1535C58.8049 32.0521 58.6128 32.0174 58.4289 32.0569C58.245 32.0965 58.0841 32.207 57.9813 32.3645C57.8767 32.5826 57.8602 32.8327 57.9353 33.0627C57.9673 33.183 58.011 33.2999 58.0657 33.4117V33.4463V33.4769C58.1343 33.8433 58.2895 34.1879 58.5183 34.482C58.5976 34.5618 58.6942 34.6221 58.8006 34.6584C58.907 34.6946 59.0204 34.7057 59.1318 34.6909C59.2433 34.676 59.3498 34.6356 59.443 34.5727C59.5362 34.5099 59.6136 34.4263 59.6691 34.3285ZM61.6485 31.582C61.5734 30.6344 61.2031 29.7342 60.5898 29.008C60.1295 28.4134 59.3316 27.4736 58.4877 27.6769C58.398 27.7049 58.3197 27.7611 58.2644 27.8371C58.2091 27.9131 58.1798 28.0049 58.1808 28.0989C58.1271 28.7471 58.8713 29.4415 59.1935 29.9593C59.5771 30.6114 59.8801 31.3326 60.2944 31.9809C60.3847 32.1068 60.5125 32.2011 60.6595 32.2502C60.8064 32.2993 60.9652 32.3008 61.1131 32.2545C61.2609 32.2082 61.3905 32.1164 61.4832 31.9922C61.5759 31.868 61.627 31.7177 61.6293 31.5628L61.6485 31.582ZM58.7523 38.1492C58.8926 38.1799 59.0379 38.1799 59.1781 38.1492C59.3908 38.0838 59.5705 37.9397 59.6807 37.7464C59.7837 37.5407 59.8351 37.3129 59.8303 37.0828C59.8233 36.8648 59.7641 36.6517 59.6576 36.4614L59.531 36.3041L59.3623 36.1813C59.2567 36.1269 59.1402 36.0969 59.0214 36.0937C58.9027 36.0905 58.7847 36.1141 58.6764 36.1627C58.568 36.2114 58.472 36.2839 58.3955 36.3748C58.319 36.4656 58.2639 36.5726 58.2345 36.6877C58.1706 36.9111 58.1257 37.1395 58.1002 37.3705L58.1347 37.5815C58.1616 37.6873 58.2143 37.7849 58.2882 37.8653C58.4041 37.9993 58.5602 38.0921 58.7332 38.13L58.7523 38.1492ZM61.3992 35.7057C61.5491 35.6979 61.6926 35.6423 61.8085 35.5471C61.9245 35.4518 62.0069 35.3218 62.0436 35.1763C62.1032 34.8785 62.0834 34.5702 61.9861 34.2825C61.9287 34.0085 61.7959 33.7561 61.6025 33.5537C61.5332 33.4896 61.4486 33.4446 61.3567 33.4231C61.2648 33.4016 61.169 33.4043 61.0785 33.431C60.988 33.4577 60.906 33.5074 60.8405 33.5753C60.775 33.6432 60.7283 33.727 60.7049 33.8184C60.6742 34.0424 60.6742 34.2695 60.7049 34.4935C60.7049 34.5894 60.7049 34.6853 60.7049 34.785C60.7029 34.9296 60.7184 35.0738 60.7509 35.2147C60.7938 35.3489 60.8775 35.4664 60.9902 35.5509C61.1029 35.6355 61.2392 35.6828 61.38 35.6865L61.3992 35.7057Z" fill="#030402"/>
<path d="M60.0527 29.2574C58.5912 29.1232 56.7192 26.0007 56.3625 24.0174C56.3395 23.8793 56.9225 22.7247 57.5631 21.29C57.9467 20.4193 58.361 19.4372 58.6679 18.5166L63.977 21.8578C63.2606 22.9 62.6745 24.0259 62.2316 25.2104C62.1919 25.3355 62.1637 25.4639 62.1472 25.594C62.1485 25.6158 62.1485 25.6375 62.1472 25.6593C62.0129 26.4265 61.4682 29.3879 60.0527 29.2574Z" fill="#D3766A"/>
<path d="M62.1472 25.6017C62.1484 25.6234 62.1484 25.6452 62.1472 25.6669C61.9427 25.6269 61.7414 25.5718 61.545 25.502C58.223 24.3051 58.8099 19.9474 59.0439 18.7429L60.3673 19.5792L63.9924 21.8808C63.2763 22.9225 62.6914 24.0486 62.2508 25.2334C62.2051 25.3528 62.1705 25.4761 62.1472 25.6017Z" fill="#263238"/>
<path d="M59.2241 12.3674C58.127 14.343 57.9352 20.6877 59.1512 22.3718C60.9081 24.8115 64.4372 25.7628 66.6736 23.5226C68.8409 21.3284 68.9407 13.0541 67.529 11.4583C65.4422 9.08764 60.8429 9.44823 59.2241 12.3674Z" fill="#D3766A"/>
<path d="M64.3183 17.4961C64.3183 17.4961 64.2838 17.4961 64.2838 17.5345C64.2838 17.9718 64.2071 18.4704 63.8081 18.6009V18.6277C64.2953 18.574 64.3873 17.9104 64.3183 17.4961Z" fill="#263238"/>
<path d="M63.9464 17.0282C63.2444 16.9515 63.1408 18.3554 63.7891 18.4283C64.4374 18.5012 64.5333 17.0934 63.9464 17.0282Z" fill="#263238"/>
<path d="M66.8349 17.6458C66.8349 17.6458 66.8656 17.6688 66.8656 17.6879C66.8157 18.1214 66.8349 18.6278 67.2147 18.8004C67.2147 18.8004 67.2147 18.8311 67.2147 18.8272C66.7352 18.7198 66.7198 18.0485 66.8349 17.6458Z" fill="#263238"/>
<path d="M67.2605 17.2239C67.9625 17.2239 67.905 18.6317 67.2605 18.6317C66.6161 18.6317 66.6698 17.22 67.2605 17.2239Z" fill="#263238"/>
<path d="M64.5142 16.7442C64.3185 16.7864 64.1306 16.7903 63.9388 16.8133C63.7401 16.8652 63.5298 16.8504 63.3404 16.7711C63.2852 16.7347 63.2436 16.6812 63.2221 16.6187C63.2006 16.5563 63.2004 16.4884 63.2214 16.4258C63.2843 16.3114 63.3764 16.2157 63.4882 16.1483C63.6 16.081 63.7277 16.0444 63.8582 16.0422C64.1232 15.9913 64.3976 16.0434 64.6254 16.188C64.6728 16.2236 64.7092 16.2719 64.7303 16.3273C64.7514 16.3827 64.7565 16.443 64.7449 16.5011C64.7332 16.5593 64.7054 16.6129 64.6646 16.656C64.6238 16.699 64.5716 16.7296 64.5142 16.7442Z" fill="#263238"/>
<path d="M67.8897 15.9157C67.7034 15.8634 67.5203 15.8006 67.3411 15.7277C67.1394 15.6896 66.9559 15.5858 66.8195 15.4323C66.7853 15.3761 66.771 15.3101 66.7786 15.2448C66.7863 15.1795 66.8155 15.1186 66.8616 15.0717C66.9664 14.9916 67.091 14.9415 67.2221 14.9266C67.3531 14.9118 67.4858 14.9328 67.6058 14.9873C67.865 15.0583 68.0889 15.2221 68.2349 15.4477C68.2653 15.5012 68.2795 15.5623 68.2758 15.6237C68.2721 15.6852 68.2507 15.7442 68.2142 15.7937C68.1777 15.8432 68.1276 15.8811 68.07 15.9027C68.0124 15.9243 67.9498 15.9288 67.8897 15.9157Z" fill="#263238"/>
<path d="M63.9998 20.9562C64.5646 20.8209 65.1535 20.8209 65.7183 20.9562C65.7682 20.9562 65.8181 20.8564 65.8296 20.8104L65.8602 19.8898C65.9792 19.9588 66.5776 20.2734 66.5776 20.1046C66.64 18.6083 66.5488 17.1095 66.3052 15.6318C66.3025 15.6232 66.2972 15.6157 66.2899 15.6104C66.2827 15.605 66.2739 15.6022 66.265 15.6022C66.256 15.6022 66.2472 15.605 66.24 15.6104C66.2327 15.6157 66.2273 15.6232 66.2247 15.6318C66.1633 17.0166 66.3398 18.3976 66.2976 19.79C66.0859 19.6727 65.8585 19.5862 65.6224 19.533C65.5726 19.533 65.6224 20.5112 65.6224 20.657C65.0944 20.4751 64.5163 20.5067 64.0113 20.7452C63.8118 20.8718 63.7313 21.0406 63.9998 20.9562Z" fill="#263238"/>
<path d="M62.8644 21.8691C62.9603 21.9765 63.0562 22.1223 63.2097 22.1453C63.3709 22.153 63.5319 22.1255 63.6815 22.0647C63.6815 22.0647 63.7084 22.0647 63.6815 22.0878C63.6154 22.1692 63.5282 22.2309 63.4294 22.266C63.3307 22.3012 63.2241 22.3086 63.1214 22.2872C63.0376 22.2604 62.9633 22.2099 62.9075 22.1419C62.8517 22.0738 62.8168 21.9911 62.8069 21.9036C62.8146 21.8614 62.8491 21.8538 62.8644 21.8691Z" fill="#263238"/>
<path opacity="0.2" d="M61.0769 10.3535C61.0194 11.3394 60.7854 14.3967 60.3097 15.0181C59.8341 15.6395 58.829 17.0857 58.3188 17.3197C58.3879 15.2828 58.7025 13.3456 59.228 12.3329C59.6588 11.5215 60.2968 10.8386 61.0769 10.3535Z" fill="#263238"/>
<path d="M66.5433 13.3418C66.2751 13.6148 65.9414 13.8146 65.5741 13.922C65.2068 14.0295 64.818 14.041 64.445 13.9556C64.0632 13.8706 63.7098 13.6887 63.4188 13.4273C63.1278 13.1659 62.9092 12.8339 62.784 12.4634C62.784 12.4403 62.7418 12.4634 62.7495 12.4634C62.847 12.8634 63.0523 13.2291 63.3431 13.5206C63.6339 13.8121 63.9991 14.0183 64.399 14.1167C64.7981 14.1929 65.2103 14.162 65.5937 14.0273C65.9771 13.8925 66.3179 13.6587 66.5816 13.3495C66.6047 13.3533 66.574 13.3188 66.5433 13.3418Z" fill="#263238"/>
<path d="M64.6175 7.65683C64.028 7.61696 63.4379 7.72606 62.9016 7.97409C62.3653 8.22212 61.9001 8.60111 61.5487 9.07616C61.2493 9.55962 61.1222 10.1301 61.1881 10.695H61.238C61.2453 10.1993 61.3864 9.7149 61.6463 9.29287C61.9063 8.87084 62.2755 8.52691 62.7148 8.29745C63.1951 8.0286 63.731 7.87451 64.2807 7.84722C64.8304 7.81994 65.3789 7.9202 65.8834 8.14017C66.3796 8.34476 66.7873 8.71849 67.0342 9.19507C67.0572 9.24494 67.1569 9.22192 67.1378 9.17206C66.8232 8.33581 65.8067 7.71437 64.6175 7.65683Z" fill="#263238"/>
<path d="M71.9442 11.0018C71.7774 10.3524 71.386 9.78297 70.8395 9.3945C70.0723 8.84595 69.1746 8.85362 68.277 8.88431C68.2502 8.88431 68.254 8.92267 68.277 8.91884C69.0402 8.83916 69.8101 8.98169 70.4942 9.32929C71.051 9.66344 71.4752 10.1798 71.6949 10.7908C71.9039 11.4175 71.8797 12.0987 71.6267 12.709C71.3737 13.3193 70.9089 13.8178 70.3178 14.1128C69.9737 14.2745 69.6001 14.3641 69.2201 14.3759C68.8401 14.3878 68.4617 14.3218 68.1082 14.1818C68.0814 14.1818 68.0584 14.2087 68.0852 14.224C68.5635 14.4353 69.0914 14.5086 69.6092 14.4357C70.127 14.3628 70.6141 14.1466 71.0155 13.8114C71.4169 13.4763 71.7165 13.0356 71.8806 12.5391C72.0448 12.0426 72.0668 11.5101 71.9442 11.0018Z" fill="#263238"/>
<path d="M58.8405 13.614C58.8405 13.614 57.7818 11.2012 58.9134 9.93528C59.554 9.22178 61.4797 9.46728 61.4797 9.46728C62.055 8.73707 62.8966 8.26518 63.8197 8.15537C65.4653 7.89835 67.3411 9.0108 67.3411 9.0108C67.3411 9.0108 68.9446 8.2436 70.3217 9.17575C72.2397 10.4762 71.7602 13.5181 69.6658 14.3467C68.1927 14.9336 66.3591 13.5296 66.3591 13.5296C66.175 13.5296 64.1879 14.5423 62.8799 12.7394C62.8799 12.7394 61.637 13.6869 60.6435 12.8813C60.4545 13.1738 60.1802 13.401 59.8576 13.5321C59.535 13.6632 59.1799 13.6918 58.8405 13.614Z" fill="#263238"/>
<path d="M59.4658 17.6228C59.4658 17.6228 58.4608 15.371 57.4673 15.7048C56.4737 16.0385 56.9571 19.0996 57.9391 19.6981C58.0588 19.7813 58.194 19.8396 58.3366 19.8697C58.4793 19.8997 58.6265 19.9008 58.7696 19.8729C58.9127 19.845 59.0487 19.7887 59.1696 19.7072C59.2905 19.6258 59.3939 19.5209 59.4735 19.3988L59.4658 17.6228Z" fill="#D3766A"/>
<path d="M57.6284 16.5717V16.5985C58.3112 17.0396 58.5682 17.803 58.7025 18.5664C58.6736 18.4841 58.6272 18.4091 58.5665 18.3465C58.5058 18.284 58.4323 18.2353 58.3509 18.2039C58.2696 18.1726 58.1824 18.1592 58.0954 18.1649C58.0084 18.1705 57.9237 18.1949 57.8471 18.2365C57.8241 18.2365 57.8471 18.2787 57.8471 18.2787C57.9868 18.2625 58.128 18.2909 58.2507 18.3598C58.3733 18.4287 58.471 18.5346 58.5299 18.6623C58.634 18.8698 58.7138 19.0886 58.7677 19.3144C58.7677 19.3873 58.9135 19.3758 58.9058 19.3144C59.1014 18.3247 58.6219 16.8632 57.6284 16.5717Z" fill="#263238"/>
<path d="M112.636 22.0919L71.3364 34.7421L78.7827 59.0523L120.082 46.4021L112.636 22.0919Z" fill="#1867FF"/>
<path opacity="0.2" d="M112.636 22.0919L71.3364 34.7421L78.7827 59.0523L120.082 46.4021L112.636 22.0919Z" fill="black"/>
<path opacity="0.2" d="M112.634 22.0921L98.7551 26.3433L106.201 50.6535L120.08 46.4023L112.634 22.0921Z" fill="black"/>
<path d="M111.969 23.3307C111.501 25.484 111.046 27.6372 110.604 29.7905L109.296 36.2657L108.03 42.7678C107.616 44.9313 107.211 47.0986 106.818 49.2698C107.286 47.1191 107.741 44.9658 108.183 42.8099L109.491 36.3348L110.757 29.8481C111.171 27.6743 111.576 25.5019 111.969 23.3307Z" fill="#1867FF"/>
<path d="M118.786 45.5872C117.252 44.0119 115.703 42.4429 114.141 40.8804L109.461 36.2158L104.75 31.5858C103.175 30.0514 101.592 28.5169 100.001 26.9825C101.535 28.5604 103.084 30.1293 104.646 31.6893L109.326 36.3539L114.037 40.984C115.615 42.5337 117.198 44.0681 118.786 45.5872Z" fill="#1867FF"/>
<path d="M79.2687 37.8748L79.4961 37.8052L78.5176 34.6105L78.2902 34.6802L79.2687 37.8748Z" fill="#263238"/>
<path d="M78.7284 38.0372L78.9558 37.9675L77.9773 34.7729L77.7499 34.8425L78.7284 38.0372Z" fill="#263238"/>
<path d="M78.1832 38.211L78.4106 38.1414L77.4321 34.9467L77.2047 35.0164L78.1832 38.211Z" fill="#263238"/>
<path d="M77.6437 38.3676L77.8711 38.298L76.8931 35.1031L76.6657 35.1728L77.6437 38.3676Z" fill="#263238"/>
<path d="M77.0993 38.5367L77.3267 38.467L76.3481 35.2724L76.1207 35.342L77.0993 38.5367Z" fill="#263238"/>
<path d="M76.558 38.6992L76.7854 38.6295L75.8069 35.4349L75.5795 35.5045L76.558 38.6992Z" fill="#263238"/>
<path d="M76.0101 38.8778L76.2375 38.8081L75.259 35.6134L75.0316 35.6831L76.0101 38.8778Z" fill="#263238"/>
<path d="M75.4679 39.0391L75.6953 38.9694L74.7162 35.7749L74.4888 35.8446L75.4679 39.0391Z" fill="#263238"/>
<path d="M74.921 39.2114L75.1484 39.1417L74.1699 35.9471L73.9425 36.0167L74.921 39.2114Z" fill="#263238"/>
<path d="M80.817 34.1712L79.8733 34.1942L81.9179 33.5613L81.12 34.0753L81.4806 35.2491C82.1289 35.1379 82.5662 35.6788 82.8961 36.7528L80.8515 37.3973C80.5216 36.327 80.5791 35.6327 81.1775 35.3604L80.817 34.1712Z" fill="#263238"/>
<path d="M82.873 34.9884L83.4063 34.8234L82.9268 33.2583L84.2924 32.8402L84.7719 34.4053L85.3089 34.2404L84.5877 36.2428L82.873 34.9884Z" fill="#263238"/>
<path opacity="0.1" d="M71.3384 34.7429L71.9483 36.7376L100.496 32.027L98.7544 26.3458L71.3384 34.7429Z" fill="black"/>
<path d="M125.434 49.1586L111.551 53.4089L106.2 50.6546L120.082 46.4005L125.434 49.1586Z" fill="#1867FF"/>
<path opacity="0.2" d="M125.434 49.1586L111.551 53.4089L106.2 50.6546L120.082 46.4005L125.434 49.1586Z" fill="black"/>
<path d="M75.8916 64.3339L89.7741 60.0797L92.6626 54.8014L78.7801 59.0517L75.8916 64.3339Z" fill="#1867FF"/>
<path opacity="0.1" d="M75.8916 64.3339L89.7741 60.0797L92.6626 54.8014L78.7801 59.0517L75.8916 64.3339Z" fill="black"/>
<path d="M53.0443 30.9913C55.0736 37.7772 60.7164 49.4042 62.8108 50.8235C64.6559 52.0932 73.5133 50.9386 77.3877 50.0985C78.8377 49.7878 75.8532 38.717 74.3188 39.0815C72.4622 39.5226 66.9345 40.6159 66.5432 40.3128C66.152 40.0098 60.7892 33.0244 56.9532 28.9275C53.4701 25.1989 52.2771 28.425 53.0443 30.9913Z" fill="#D3766A"/>
<path d="M73.521 39.9828C73.521 39.9828 76.4555 36.6762 78.5347 35.4141C80.7293 34.158 83.1963 33.4537 85.7234 33.3619C88.4508 33.2545 95.1216 34.8733 94.9873 36.8757C94.8684 38.6901 88.1362 36.6877 88.1362 36.6877C88.1362 36.6877 95.3364 37.5968 94.7917 39.7565C94.247 41.9162 86.5634 39.1427 86.5634 39.1427C86.5634 39.1427 93.9401 40.2398 93.0425 42.3842C92.352 43.9991 85.2515 41.8816 85.2515 41.8816C85.2515 41.8816 91.5886 42.8713 90.948 44.5669C90.2422 46.435 83.5637 44.8929 83.5637 44.8929C81.2199 48.9131 78.4541 49.8797 76.4095 50.3132C75.8993 50.4014 73.521 39.9828 73.521 39.9828Z" fill="#D3766A"/>
<path d="M85.6659 36.212C86.5136 36.2888 87.3767 36.3616 88.2168 36.5112C89.0569 36.6608 89.8893 36.845 90.714 37.0751C91.7944 37.3528 92.8394 37.7531 93.8289 38.2681C92.0068 37.4818 89.007 36.891 88.1669 36.7337C87.3269 36.5765 86.4944 36.3885 85.6582 36.2389C85.6352 36.2466 85.6428 36.212 85.6659 36.212Z" fill="#263238"/>
<path d="M85.0635 39.2387C86.1415 39.3806 87.2232 39.4842 88.2973 39.676C89.3714 39.8678 90.3649 40.144 91.4198 40.4086C91.5003 40.4278 91.462 40.4662 91.3814 40.447C90.315 40.2245 89.3177 40.1018 88.2513 39.8946C87.1848 39.6875 86.1261 39.4343 85.0559 39.2617C85.0405 39.2617 85.0444 39.2348 85.0635 39.2387Z" fill="#263238"/>
<path d="M84.0777 41.7397C85.7411 41.9203 87.3815 42.2725 88.9724 42.7907C89.053 42.8138 88.9993 42.856 88.9149 42.8368C87.2961 42.4532 86.0264 42.1463 84.0738 41.7972C84.0431 41.7934 84.0431 41.7358 84.0777 41.7397Z" fill="#263238"/>
<path d="M76.5092 52.0624L73.9314 38.8205L66.7465 39.9483C63.9999 36.6493 58.5144 30.0514 56.2742 28.0567C53.6465 25.7129 51.8475 27.3854 52.7489 30.857C54.8127 38.7937 61.0731 50.5165 62.7686 51.6673C65.2006 53.3168 76.5092 52.0624 76.5092 52.0624Z" fill="#1867FF"/>
<path opacity="0.1" d="M71.6453 40.658C71.9996 40.7351 72.3606 40.7775 72.7232 40.7846C73.4904 40.8882 73.828 42.0198 73.1298 42.4495C72.7632 42.6753 72.3487 42.812 71.9197 42.8487C71.4907 42.8853 71.059 42.8208 70.6594 42.6604C69.8922 42.3612 69.2439 41.617 69.4089 40.7424C69.4374 40.5794 69.5077 40.4265 69.6129 40.2987C69.718 40.1708 69.8545 40.0724 70.0089 40.0129C70.1634 39.9535 70.3306 39.935 70.4944 39.9593C70.6581 39.9836 70.8128 40.0499 70.9433 40.1517C71.1559 40.3483 71.3916 40.5184 71.6453 40.658ZM70.8781 39.3001C71.1188 39.4161 71.3838 39.4725 71.6509 39.4645C71.918 39.4565 72.1792 39.3843 72.4125 39.2541C72.4984 39.1967 72.5673 39.1172 72.6119 39.0239L70.8781 39.3001ZM67.1456 39.8832C67.451 40.1063 67.8281 40.2087 68.2044 40.1709C68.3341 40.1531 68.4535 40.0904 68.5418 39.9936C68.6301 39.8969 68.6817 39.7723 68.6877 39.6415L67.1456 39.8832ZM75.278 45.7945C75.1261 45.8581 75.0032 45.9756 74.9327 46.1244C74.6105 46.7726 75.0593 47.4708 75.6999 47.8889L75.278 45.7945ZM63.7239 48.3416C63.6012 48.7674 63.5858 49.1471 63.2674 49.4924C62.9246 49.7687 62.6178 50.087 62.3545 50.4399C62.3099 50.5268 62.2887 50.6237 62.2929 50.7212C62.2971 50.8188 62.3266 50.9135 62.3784 50.9963C62.4302 51.079 62.5026 51.1469 62.5885 51.1933C62.6744 51.2396 62.7709 51.2629 62.8685 51.2608C63.5368 51.1786 64.1499 50.8482 64.5862 50.3352C65.0224 49.8222 65.25 49.1641 65.2238 48.4912C65.2022 48.3187 65.1228 48.1587 64.9984 48.0373C64.874 47.916 64.7122 47.8404 64.5392 47.823C64.3663 47.8056 64.1926 47.8475 64.0466 47.9417C63.9006 48.0359 63.7909 48.1769 63.7354 48.3416H63.7239ZM62.4005 44.6245C62.1857 45.1462 62.224 45.7369 62.0437 46.2816C61.8855 46.781 61.6972 47.2704 61.4798 47.747C61.3187 48.0922 61.641 48.6369 62.0591 48.4528C62.7391 48.1918 63.2954 47.6834 63.6165 47.0297C63.908 46.4274 64.2303 45.4147 63.9502 44.7741C63.6702 44.1335 62.738 43.8688 62.412 44.6245H62.4005ZM56.7078 31.0565C56.9222 31.1019 57.1457 31.0625 57.3317 30.9466C57.5176 30.8308 57.6515 30.6475 57.7052 30.4351C57.92 29.6103 57.1835 28.7626 56.6004 28.2486C56.0174 27.7345 55.1965 27.2665 54.3794 27.5312C54.2706 27.5665 54.1726 27.6289 54.0948 27.7127C54.0169 27.7964 53.9617 27.8986 53.9344 28.0097C53.9071 28.1207 53.9087 28.2369 53.9389 28.3472C53.9691 28.4574 54.027 28.5582 54.107 28.6398C54.4638 29.0848 54.9586 29.407 55.3384 29.8443C55.7182 30.2816 56.0519 30.9453 56.7193 31.0565H56.7078ZM59.6692 34.3286C59.9915 33.8645 59.7421 33.1778 59.512 32.7367C59.3894 32.4933 59.1988 32.2908 58.9634 32.1536C58.805 32.0522 58.6129 32.0175 58.429 32.057C58.2451 32.0965 58.0842 32.2071 57.9814 32.3646C57.8768 32.5827 57.8603 32.8328 57.9354 33.0627C57.9674 33.1831 58.0111 33.3 58.0658 33.4118V33.4463V33.477C58.1343 33.8434 58.2896 34.188 58.5184 34.4821C58.5977 34.5618 58.6943 34.6222 58.8007 34.6584C58.9071 34.6947 59.0205 34.7058 59.1319 34.6909C59.2434 34.6761 59.3499 34.6356 59.4431 34.5728C59.5363 34.5099 59.6137 34.4264 59.6692 34.3286ZM58.7524 38.1646C58.8927 38.1953 59.038 38.1953 59.1782 38.1646C59.3909 38.0992 59.5706 37.9551 59.6808 37.7619C59.7838 37.5561 59.8352 37.3283 59.8304 37.0982C59.8234 36.8802 59.7642 36.6671 59.6577 36.4768L59.5311 36.3195L59.3624 36.1968C59.2568 36.1423 59.1403 36.1124 59.0215 36.1091C58.9028 36.1059 58.7848 36.1295 58.6764 36.1782C58.5681 36.2268 58.4721 36.2993 58.3956 36.3902C58.3191 36.4811 58.264 36.588 58.2346 36.7031C58.1707 36.9265 58.1258 37.155 58.1003 37.3859L58.1348 37.5969C58.1617 37.7028 58.2144 37.8003 58.2883 37.8808C58.4064 38.009 58.5622 38.0964 58.7333 38.1301L58.7524 38.1646ZM61.9708 34.2711L61.2036 33.408C61.0811 33.3934 60.9574 33.4244 60.8562 33.4952C60.755 33.5659 60.6834 33.6714 60.6551 33.7916C60.6244 34.0156 60.6244 34.2427 60.6551 34.4667C60.6551 34.5626 60.6551 34.6585 60.6551 34.7583C60.6531 34.9028 60.6686 35.0471 60.7011 35.1879C60.7431 35.3339 60.8328 35.4616 60.9558 35.5506C61.0789 35.6396 61.2283 35.6848 61.3801 35.6789C61.53 35.6712 61.6735 35.6156 61.7895 35.5203C61.9054 35.425 61.9878 35.2951 62.0246 35.1495C62.0822 34.857 62.0637 34.5545 61.9708 34.2711Z" fill="#030402"/>
<path d="M74.0311 50.8464C73.7204 50.06 72.9915 46.6459 72.8189 45.7905C72.6463 44.9351 72.0747 41.498 71.9021 40.6196C71.9021 40.5735 71.9558 40.5429 71.9673 40.5927C72.1514 41.4558 72.9992 44.8584 73.1795 45.71C73.3598 46.5616 74.0464 49.9756 74.0771 50.8349C74.0786 50.841 74.0777 50.8474 74.0744 50.8528C74.0712 50.8582 74.066 50.8621 74.0599 50.8636C74.0538 50.8652 74.0473 50.8642 74.0419 50.861C74.0365 50.8577 74.0326 50.8525 74.0311 50.8464Z" fill="#263238"/>
<path d="M71.6605 52.4346C70.4829 52.5037 69.3052 52.5305 68.1276 52.5228C66.9456 52.528 65.7644 52.4601 64.5908 52.3195C63.9894 52.26 63.4014 52.1046 62.8492 51.8592C62.3528 51.5087 61.9217 51.0737 61.5757 50.5741C60.8803 49.6142 60.251 48.6082 59.6922 47.5629C58.5414 45.4953 57.5517 43.3433 56.585 41.2028C55.6183 39.0623 54.7399 36.8604 53.9343 34.6432C54.9125 36.7875 55.8792 38.9357 56.8842 41.0647C57.8893 43.1937 58.9058 45.315 60.0029 47.3903C60.5504 48.4254 61.1549 49.4294 61.8135 50.3977C62.1209 50.8798 62.5104 51.3043 62.9643 51.6521C63.4874 51.8933 64.0454 52.0499 64.6176 52.1162C66.9539 52.3993 69.3082 52.5057 71.6605 52.4346Z" fill="#263238"/>
<path d="M54.6824 36.5151C54.5248 36.356 54.3822 36.1826 54.2566 35.9973C54.1264 35.8137 54.0266 35.6103 53.9612 35.395C54.019 35.4903 54.0817 35.5825 54.1491 35.6712L54.3371 35.9436C54.4634 36.1271 54.5786 36.318 54.6824 36.5151Z" fill="#263238"/>
<path d="M60.7395 32.9591C61.71 33.9335 62.5808 35.0037 63.4823 36.0279C64.3837 37.0521 65.2468 38.1339 66.1675 39.1543L66.5089 39.5379C66.5702 39.5954 66.6278 39.6606 66.6853 39.7143C66.7429 39.768 66.7429 39.7642 66.7697 39.7872C66.7966 39.8102 66.7697 39.7872 66.7697 39.7872C66.7697 39.7872 66.7966 39.7872 66.8119 39.7872C67.1034 39.7872 67.4717 39.722 67.8016 39.6798L69.8424 39.3768C71.2003 39.1773 72.5621 38.9701 73.9239 38.786L73.9776 39.1236L73.897 38.7898H73.9162C72.5698 39.0775 71.231 39.3346 69.8654 39.5839C69.1864 39.7067 68.5074 39.8141 67.8246 39.9176C67.4755 39.9782 67.1234 40.0192 66.7697 40.0404C66.7417 40.044 66.7133 40.044 66.6853 40.0404C66.6477 40.0291 66.6126 40.0109 66.5818 39.9867C66.5431 39.9566 66.5059 39.9246 66.4705 39.8908L66.2825 39.7067C66.1598 39.5801 66.0447 39.4535 65.9296 39.3231C65.0282 38.2758 64.1536 37.2171 63.2943 36.143L62.0092 34.528C61.5873 34.0255 61.2037 33.4731 60.7395 32.9591Z" fill="#263238"/>
<path d="M61.2419 33.0742C61.3864 33.2517 61.5148 33.4417 61.6255 33.642C61.7337 33.8398 61.81 34.0534 61.8519 34.2749C61.8058 34.1713 61.7483 34.0793 61.6946 33.9795L61.5373 33.6841C61.428 33.4863 61.3294 33.2827 61.2419 33.0742Z" fill="#263238"/>
<path d="M15.2328 133.382C15.0909 129.792 15.1408 126.198 15.3824 122.614C15.9115 115.227 17.0391 107.896 18.7543 100.691C19.6941 96.6328 20.8526 92.6357 22.0609 88.6539C22.0955 88.535 22.2873 88.5695 22.2566 88.6923C18.5241 102.747 15.4592 117.255 15.6701 131.863C15.7315 135.952 16.2034 139.968 16.5908 144.031C16.5908 144.142 16.422 144.184 16.399 144.073C15.628 140.586 15.3786 136.934 15.2328 133.382Z" fill="#1867FF"/>
<path d="M22.2567 88.6732C22.2567 88.6732 27.9109 103.028 26.6451 106.399C25.3792 109.771 22.7668 110.492 22.7668 110.492C22.7668 110.492 26.2193 115.433 23.8102 120.082C21.4012 124.732 16.0231 124.494 15.6626 129.749C15.6626 129.734 15.3633 107.769 22.2567 88.6732Z" fill="#1867FF"/>
<path d="M16.28 120.666C16.2706 120.641 16.2706 120.613 16.28 120.589C17.0257 110.789 18.867 101.104 21.7694 91.7151C21.7694 91.6883 21.8231 91.696 21.8154 91.7151C20.6953 95.9117 19.7056 100.131 18.8463 104.374C19.6019 103.657 20.525 103.14 21.5315 102.87C21.5315 102.87 21.5584 102.87 21.5315 102.897C20.4692 103.29 19.5149 103.929 18.7466 104.761C18.5829 105.59 18.4231 106.422 18.2671 107.259C19.5291 105.847 21.2822 105.145 23.0352 104.478C23.0583 104.478 23.0736 104.508 23.0352 104.516C21.2093 105.26 19.3872 106.219 18.152 107.792C17.7173 110.173 17.3337 112.563 17.0012 114.961C17.9154 114.009 19.0869 113.342 20.3731 113.043C20.4114 113.043 20.4344 113.093 20.3731 113.105C19.0456 113.488 17.8582 114.249 16.9552 115.295H16.9322C16.8196 116.139 16.7135 116.984 16.6138 117.831C17.3424 117.229 18.1655 116.752 19.0496 116.419C19.0726 116.419 19.0842 116.446 19.0496 116.454C18.1837 116.837 17.3908 117.368 16.7058 118.022C16.7058 118.022 16.7058 118.022 16.6751 118.022C16.5831 118.824 16.4872 119.63 16.4066 120.435C17.6806 118.897 19.3331 117.716 21.2016 117.01C21.2054 117.008 21.2094 117.008 21.2135 117.008C21.2176 117.008 21.2216 117.008 21.2253 117.01C21.2291 117.012 21.2325 117.014 21.2353 117.017C21.2382 117.02 21.2404 117.023 21.2419 117.027C21.2434 117.031 21.2442 117.035 21.2441 117.039C21.2441 117.043 21.2432 117.047 21.2416 117.051C21.24 117.055 21.2377 117.058 21.2348 117.061C21.2319 117.064 21.2284 117.066 21.2246 117.067C19.379 117.88 17.7575 119.128 16.4987 120.704C16.4857 120.722 16.4671 120.736 16.4457 120.743C16.4242 120.75 16.4011 120.75 16.3798 120.742C16.257 121.977 16.1458 123.216 16.0575 124.455H16.0269C16.0882 123.201 16.1765 121.931 16.28 120.666Z" fill="#263238"/>
<path d="M20.8218 101.459C21.8455 100.821 23.0157 100.456 24.2205 100.4C24.2473 100.4 24.2512 100.438 24.2205 100.442C23.0567 100.657 21.9268 101.026 20.8601 101.539C20.8501 101.541 20.8397 101.54 20.8305 101.535C20.8214 101.531 20.814 101.523 20.8096 101.514C20.8052 101.505 20.8041 101.494 20.8062 101.484C20.8084 101.474 20.8139 101.465 20.8218 101.459Z" fill="#263238"/>
<path d="M20.1352 116.653C20.9226 116.203 21.7883 115.908 22.6862 115.782C22.7169 115.782 22.7207 115.824 22.6862 115.828C21.8066 116.005 20.9558 116.303 20.1583 116.714C20.1314 116.73 20.1007 116.672 20.1352 116.653Z" fill="#263238"/>
<path d="M0.368316 106.633C2.75914 108.288 4.95459 110.208 6.91255 112.357C8.93707 114.628 10.5005 117.272 11.5158 120.14C13.6614 126.118 14.8159 132.406 14.9336 138.756C15.0071 142.273 14.6686 145.786 13.9248 149.225C13.9183 149.249 13.903 149.269 13.882 149.283C13.861 149.296 13.8357 149.301 13.8112 149.297C13.7867 149.292 13.7647 149.279 13.7495 149.259C13.7343 149.24 13.727 149.215 13.7291 149.19C14.6557 143.122 14.6246 136.947 13.6371 130.888C12.6627 124.95 11.1398 118.49 7.3652 113.665C5.28992 111.049 2.72746 108.973 0.211039 106.829C0.061435 106.722 0.230219 106.537 0.368316 106.633Z" fill="#1867FF"/>
<path d="M14.0897 134.483C12.7297 132.28 11.1306 130.235 9.32151 128.384C6.49053 125.556 4.10837 123.546 3.74011 121.674C3.37185 119.802 6.57492 118.429 6.57492 118.429C6.57492 118.429 2.65836 119.131 1.58811 117.485C0.517861 115.84 0 106.33 0 106.33C0 106.33 7.1158 111.432 10.4416 118.54C13.7674 125.648 14.0897 134.483 14.0897 134.483Z" fill="#1867FF"/>
<path d="M2.54338 115.268C3.01211 115.201 3.48677 115.186 3.95887 115.222C4.01641 115.222 4.01257 115.322 3.95887 115.322C3.49087 115.322 3.02288 115.299 2.55105 115.322C2.51269 115.314 2.51269 115.268 2.54338 115.268Z" fill="#263238"/>
<path d="M7.66835 124.475C8.42137 124.49 9.1656 124.64 9.86638 124.916C9.86638 124.916 9.86638 124.95 9.86638 124.946C9.14138 124.774 8.4087 124.701 7.67602 124.582C7.60314 124.582 7.60697 124.475 7.66835 124.475Z" fill="#263238"/>
<path d="M9.20634 121.295C9.51907 121.292 9.8313 121.32 10.1385 121.379C10.1692 121.379 10.1653 121.437 10.1385 121.437C9.82701 121.452 9.51477 121.437 9.20634 121.39C9.19592 121.388 9.18675 121.381 9.18022 121.373C9.1737 121.364 9.17017 121.353 9.17017 121.343C9.17017 121.332 9.1737 121.321 9.18022 121.313C9.18675 121.304 9.19592 121.298 9.20634 121.295Z" fill="#263238"/>
<path d="M34.9652 116.734C32.6489 117.519 30.429 118.564 28.3481 119.848C26.1933 121.225 24.3243 123.004 22.8434 125.088C19.7252 129.431 17.3372 134.254 15.7736 139.366C14.9035 142.195 14.3654 145.116 14.1702 148.07C14.1702 148.092 14.1791 148.114 14.1949 148.13C14.2107 148.145 14.2322 148.154 14.2546 148.154C14.2769 148.154 14.2984 148.145 14.3142 148.13C14.3301 148.114 14.339 148.092 14.339 148.07C14.9872 142.952 16.433 137.968 18.6238 133.298C20.7834 128.717 23.5109 123.842 27.6806 120.811C29.9515 119.158 32.5025 118.08 35.0457 116.937C35.1953 116.876 35.1186 116.688 34.9652 116.734Z" fill="#1867FF"/>
<path d="M17.427 136.098C19.0357 134.629 20.802 133.342 22.6938 132.262C25.6399 130.628 28.0297 129.55 28.7624 128.123C29.4951 126.696 27.228 124.839 27.228 124.839C27.228 124.839 30.2316 126.312 31.4783 125.223C32.725 124.133 35.3412 116.557 35.3412 116.557C35.3412 116.557 28.4057 119.028 24.071 124.03C19.7363 129.032 17.427 136.098 17.427 136.098Z" fill="#1867FF"/>
<path d="M23.1847 129.132C23.8655 129.084 24.5492 129.167 25.1986 129.377C25.1986 129.377 25.1986 129.412 25.1986 129.408C24.5349 129.297 23.8648 129.227 23.1924 129.201C23.1832 129.202 23.174 129.199 23.1668 129.193C23.1597 129.188 23.155 129.179 23.154 129.17C23.153 129.161 23.1557 129.152 23.1614 129.144C23.1672 129.137 23.1756 129.133 23.1847 129.132Z" fill="#263238"/>
<path d="M29.2381 121.191C29.5486 121.169 29.8606 121.187 30.1664 121.245C30.1723 121.247 30.1774 121.251 30.1809 121.256C30.1845 121.261 30.1864 121.267 30.1864 121.274C30.1864 121.28 30.1845 121.286 30.1809 121.291C30.1774 121.296 30.1723 121.3 30.1664 121.302C29.8634 121.268 29.5603 121.279 29.2535 121.272C29.244 121.271 29.235 121.268 29.2279 121.261C29.2207 121.255 29.2159 121.247 29.2141 121.237C29.2124 121.228 29.2138 121.218 29.2181 121.21C29.2225 121.202 29.2295 121.195 29.2381 121.191Z" fill="#263238"/>
<path d="M8.47754 157.637H24.1361L21.9036 141.276L21.332 137.084H11.2817L10.7101 141.276L8.47754 157.637Z" fill="#455A64"/>
<path d="M10.7102 141.276H21.9037L21.3321 137.084H11.2818L10.7102 141.276Z" fill="#263238"/>
<path d="M9.83932 139.178H22.7705V135.626H9.83932V139.178Z" fill="#455A64"/>
</svg>
