<svg width="344" height="345" viewBox="0 0 344 345" fill="none" xmlns="http://www.w3.org/2000/svg">
<path d="M48.5123 85.6286C48.5123 85.8298 48.4526 86.0265 48.3407 86.1938C48.2289 86.3611 48.0699 86.4915 47.8839 86.5685C47.6979 86.6455 47.4932 86.6656 47.2957 86.6264C47.0982 86.5871 46.9169 86.4902 46.7745 86.348C46.6321 86.2057 46.5352 86.0244 46.4959 85.8271C46.4566 85.6298 46.4768 85.4252 46.5538 85.2393C46.6309 85.0534 46.7613 84.8946 46.9287 84.7828C47.0962 84.671 47.293 84.6113 47.4943 84.6113C47.7643 84.6113 48.0232 84.7185 48.2141 84.9093C48.405 85.1001 48.5123 85.3588 48.5123 85.6286V85.6286Z" fill="#455A64"/>
<path d="M38.752 90.0475C41.6117 89.83 44.4636 89.8145 47.3 89.7834C50.1364 89.7524 53.0116 89.83 55.848 90.0475C52.9961 90.2727 50.1364 90.2804 47.3 90.3115C44.4636 90.3426 41.6117 90.2649 38.752 90.0475Z" fill="#EBEBEB"/>
<path d="M38.752 92.6877C40.2991 92.5029 41.8563 92.4147 43.4145 92.4237C44.9728 92.4104 46.5303 92.4986 48.0771 92.6877C44.9788 93.0409 41.8503 93.0409 38.752 92.6877Z" fill="#EBEBEB"/>
<path d="M38.752 95.328C40.7413 95.1261 42.7229 95.0795 44.7045 95.0639C46.6861 95.0484 48.6677 95.1261 50.6493 95.328C48.6734 95.5167 46.6893 95.6048 44.7045 95.592C42.7171 95.6046 40.7304 95.5165 38.752 95.328V95.328Z" fill="#EBEBEB"/>
<path d="M38.752 97.9681C41.2387 97.7662 43.7176 97.7196 46.1965 97.7041C48.6754 97.6885 51.1544 97.7662 53.6411 97.9681C51.1544 98.1778 48.6754 98.2244 46.1965 98.2399C43.7176 98.2554 41.2387 98.1778 38.752 97.9681Z" fill="#EBEBEB"/>
<path d="M38.752 100.616C40.9123 100.406 43.0648 100.36 45.2174 100.344C47.3699 100.329 49.5302 100.406 51.6828 100.616C49.5302 100.818 47.3777 100.872 45.2174 100.88C43.0571 100.888 40.9123 100.818 38.752 100.616Z" fill="#EBEBEB"/>
<path d="M38.752 103.256C41.5106 103.031 44.2693 103.023 47.028 102.992C49.7867 102.961 52.5454 102.992 55.304 103.256C52.5454 103.474 49.7867 103.489 47.028 103.52C44.2693 103.551 41.5106 103.474 38.752 103.256Z" fill="#EBEBEB"/>
<path d="M38.752 105.897C40.5277 105.708 42.3127 105.62 44.0984 105.633C45.884 105.62 47.669 105.708 49.4448 105.897C47.669 106.085 45.884 106.173 44.0984 106.161C42.3128 106.169 40.528 106.081 38.752 105.897V105.897Z" fill="#EBEBEB"/>
<path d="M38.752 108.537C41.6117 108.32 44.4636 108.304 47.3 108.273C50.1364 108.242 53.0116 108.32 55.848 108.537C52.9961 108.755 50.1364 108.77 47.3 108.801C44.4636 108.832 41.6117 108.778 38.752 108.537Z" fill="#EBEBEB"/>
<path d="M38.752 111.177C41.6117 110.96 44.4636 110.944 47.3 110.913C50.1364 110.882 53.0116 110.96 55.848 111.177C52.9961 111.403 50.1364 111.41 47.3 111.441C44.4636 111.472 41.6117 111.395 38.752 111.177Z" fill="#EBEBEB"/>
<path d="M87.6855 128.052C90.3907 127.69 93.1321 127.69 95.8373 128.052C93.1314 128.404 90.3914 128.404 87.6855 128.052Z" fill="#EBEBEB"/>
<path d="M87.6855 131.026C91.0827 130.674 94.5072 130.674 97.9043 131.026C94.5077 131.389 91.0822 131.389 87.6855 131.026V131.026Z" fill="#EBEBEB"/>
<path d="M87.6855 134.008C91.0827 133.656 94.5072 133.656 97.9043 134.008C94.5077 134.371 91.0822 134.371 87.6855 134.008V134.008Z" fill="#EBEBEB"/>
<path d="M102.279 110.16C105.504 109.798 108.76 109.798 111.985 110.16C110.376 110.345 108.756 110.433 107.136 110.424C105.513 110.429 103.892 110.341 102.279 110.16V110.16Z" fill="#EBEBEB"/>
<path d="M102.279 113.142C104.39 112.78 106.548 112.78 108.659 113.142C107.607 113.326 106.541 113.414 105.473 113.406C104.403 113.411 103.334 113.322 102.279 113.142Z" fill="#EBEBEB"/>
<path d="M102.279 116.124C105.312 115.761 108.377 115.761 111.41 116.124C109.897 116.308 108.373 116.396 106.849 116.388C105.322 116.393 103.796 116.305 102.279 116.124V116.124Z" fill="#EBEBEB"/>
<path d="M102.279 119.106C105.229 118.744 108.212 118.744 111.161 119.106C109.69 119.291 108.208 119.379 106.724 119.37C105.239 119.375 103.754 119.287 102.279 119.106V119.106Z" fill="#EBEBEB"/>
<path d="M102.279 122.088C105.504 121.726 108.76 121.726 111.985 122.088C108.759 122.44 105.505 122.44 102.279 122.088V122.088Z" fill="#EBEBEB"/>
<path d="M102.279 125.086C104.839 124.723 107.436 124.723 109.996 125.086C107.436 125.438 104.839 125.438 102.279 125.086V125.086Z" fill="#EBEBEB"/>
<path d="M102.279 128.052C105.312 127.69 108.377 127.69 111.41 128.052C108.377 128.404 105.313 128.404 102.279 128.052V128.052Z" fill="#EBEBEB"/>
<path d="M102.279 131.026C104.621 130.674 107.002 130.674 109.343 131.026C107.002 131.389 104.62 131.389 102.279 131.026V131.026Z" fill="#EBEBEB"/>
<path d="M102.279 134.008C104.524 133.656 106.811 133.656 109.056 134.008C106.811 134.371 104.523 134.371 102.279 134.008V134.008Z" fill="#EBEBEB"/>
<path d="M128.607 257.473L109.436 285.429C105.745 290.741 102.605 295.47 101.207 298.064V298.11C100.804 298.679 100.538 299.333 100.43 300.021C100.425 300.041 100.425 300.062 100.43 300.083C101.269 302.25 142.929 332.97 144.724 333.553C146.519 334.135 148.337 329.01 147.677 326.564C147.016 324.117 136.316 305.185 136.316 305.185L155.199 277.112L128.607 257.473Z" fill="#D3766A"/>
<path d="M115.156 277.074L143.007 295.23C143.007 295.23 170.104 261.325 176.422 240.265C180.89 225.262 153.334 152.514 153.334 152.514L123.027 151.877C123.027 151.877 146.092 222.078 144.219 229.09C141.88 237.687 115.156 277.074 115.156 277.074Z" fill="#0D378D"/>
<path d="M142.983 219.764C138.383 198.797 122.965 151.893 122.965 151.893L140.295 152.25L142.983 219.764Z" fill="#37474F"/>
<path d="M100.438 299.998C100.438 299.998 100.438 300.036 100.438 300.044C101.285 302.218 142.945 332.939 144.732 333.522C146.519 334.104 148.353 328.979 147.685 326.533C147.32 325.181 144.048 319.07 141.103 313.719C143.823 318.907 149.2 333.91 105.924 290.531C103.802 293.684 102.108 296.348 101.184 298.064C101.18 298.071 101.178 298.079 101.178 298.087C101.178 298.095 101.18 298.103 101.184 298.11C100.798 298.676 100.543 299.321 100.438 299.998V299.998Z" fill="#0D378D"/>
<path d="M88.9131 200.878L69.5712 177.799C65.0952 173.139 58.7541 165.941 57.5574 165.793C55.2261 166.181 16.2626 201.103 15.3301 202.765C14.3976 204.427 19.0524 207.215 21.6246 207.059C24.1968 206.904 44.8519 200.21 44.8519 200.21L65.3594 223.243L88.9131 200.878Z" fill="#D3766A"/>
<path d="M21.6168 207.059C22.9146 206.973 28.7194 205.265 34.2057 203.572C27.9346 204.349 15.8896 203.494 68.7631 176.944C64.3725 172.285 58.6608 165.932 57.5651 165.8C55.2339 166.189 16.2626 201.103 15.3301 202.765C14.3976 204.426 19.0524 207.214 21.6168 207.059Z" fill="#0D378D"/>
<path d="M153.054 152.522C153.054 152.522 146.061 176.238 145.097 176.781C144.001 177.395 138.927 179.002 137.155 179.701C137.155 179.701 125.747 227.848 116.694 241.337C113.586 245.996 98.7278 251.137 91.1279 246.656C73.3091 236.134 51.0842 207.207 51.0842 207.207L74.8633 184.104L97.4767 209.117C102.256 199.162 104.183 179.437 104.183 179.437C104.183 179.437 104.463 160.023 111.177 151.636L153.054 152.522Z" fill="#0D378D"/>
<path d="M148.314 175.849C143.174 176.697 138.218 178.417 133.658 180.935C133.549 180.998 133.596 181.199 133.728 181.153C138.632 179.53 143.481 177.759 148.369 176.113C148.404 176.106 148.434 176.085 148.454 176.055C148.474 176.025 148.481 175.989 148.473 175.954C148.466 175.919 148.445 175.888 148.416 175.868C148.386 175.849 148.349 175.842 148.314 175.849Z" fill="#37474F"/>
<path d="M146.395 156.8C146.395 156.699 146.216 156.692 146.193 156.8C145.695 158.711 145.229 164.007 144.98 165.964C144.848 166.973 144.701 167.983 144.576 168.992C144.452 170.002 144.359 171.035 144.149 172.029C144.102 172.469 143.954 172.893 143.715 173.266C143.476 173.64 143.154 173.952 142.773 174.18C142.409 174.32 142.005 174.318 141.642 174.174C141.28 174.03 140.984 173.755 140.815 173.403C140.453 172.538 140.335 171.59 140.473 170.662C140.52 169.637 140.582 168.62 140.636 167.595C140.768 165.265 141.305 159.681 141.413 157.352C141.413 157.251 141.258 157.212 141.243 157.313C140.745 159.596 140.061 165.133 139.828 167.447C139.704 168.653 139.611 169.857 139.548 171.058C139.433 172.018 139.606 172.992 140.046 173.854C140.239 174.222 140.523 174.534 140.871 174.761C141.22 174.988 141.62 175.122 142.035 175.15V175.15C141.988 175.272 141.959 175.401 141.95 175.531C141.919 175.807 141.919 176.086 141.95 176.362C141.967 176.483 141.993 176.602 142.027 176.719C142.058 176.858 142.111 176.992 142.183 177.115L142.136 177.022C142.191 177.193 142.284 177.34 142.338 177.511C142.338 177.528 142.345 177.543 142.356 177.555C142.368 177.567 142.384 177.573 142.4 177.573C142.417 177.573 142.433 177.567 142.444 177.555C142.456 177.543 142.463 177.528 142.463 177.511C142.463 177.263 142.564 177.037 142.595 176.789C142.622 176.515 142.622 176.24 142.595 175.966C142.595 175.748 142.532 175.508 142.517 175.306C142.517 175.236 142.517 175.166 142.517 175.088C143.134 174.941 143.682 174.587 144.071 174.087C144.615 173.283 144.939 172.351 145.011 171.384C145.182 170.227 145.353 169.054 145.478 167.913C145.625 166.585 145.757 165.257 145.882 163.921C146.006 162.586 146.496 158.066 146.395 156.8Z" fill="#37474F"/>
<path d="M126.532 95.227C123.494 93.9923 114.985 94.862 111.55 98.605C108.115 102.348 107.175 109.205 108.441 110.106C109.708 111.007 115.824 111.527 120.339 109.951C124.854 108.374 128.024 95.8405 126.532 95.227Z" fill="#0D378D"/>
<path d="M126.532 95.2502C126.641 95.2502 126.688 95.0716 126.532 95.0483C123.781 94.5047 120.665 94.9318 117.899 95.2424C115.635 95.37 113.422 95.9677 111.402 96.9974C110.459 97.5377 109.645 98.2755 109.014 99.1603C108.384 100.045 107.952 101.056 107.75 102.123C107.245 104.546 107.089 107.559 107.921 109.888C107.921 109.958 108.068 109.958 108.061 109.888C107.571 105.066 107.423 99.2572 112.529 96.9042C116.896 94.9162 121.924 95.4598 126.532 95.2502Z" fill="#0D378D"/>
<path d="M109.125 108.987C106.305 108.871 98.2461 112.87 96.1324 117.933C94.0187 122.996 96.9639 131.453 98.215 132.253C99.4661 133.053 106.437 129.054 109.055 125.707C110.812 123.462 110.252 120.403 110.136 117.436C109.972 113.064 109.561 109.003 109.125 108.987Z" fill="#0D378D"/>
<path d="M110.827 125.326C112.56 120.123 110.439 114.307 109.436 109.166C109.436 109.119 109.343 109.127 109.343 109.166C109.56 113.973 111.635 118.609 110.897 123.462C110.738 124.897 110.236 126.272 109.434 127.472C108.632 128.672 107.554 129.662 106.289 130.358C103.958 131.531 101.269 131.795 98.7434 132.23C98.5802 132.23 98.6423 132.509 98.8055 132.486C103.818 131.756 109.055 130.7 110.827 125.326Z" fill="#0D378D"/>
<path d="M99.4584 131.407C95.7128 134.031 91.0347 138.054 91.6874 142.193C92.3402 146.332 96.9872 152.576 97.4535 152.591C97.9197 152.607 105.411 148.328 107.089 143.482C108.768 138.636 99.9402 131.065 99.4584 131.407Z" fill="#0D378D"/>
<path d="M97.8186 152.925C94.819 150.161 91.3298 146.394 91.291 142.053C91.291 137.852 95.7826 134.078 98.891 131.865V131.803C95.5106 133.798 91.12 137.526 90.9879 141.789C90.8558 146.053 94.446 150.766 97.7719 153.057C97.803 153.096 97.8807 152.98 97.8186 152.925Z" fill="#0D378D"/>
<path d="M99.0308 150.867C96.9404 150.634 92.8995 151.791 90.2963 154.571C85.8435 159.324 84.5302 156.901 77.7384 154.47C72.0035 152.389 67.2788 157.212 68.0947 161.692C68.0947 161.692 68.8329 157.266 73.2701 157.809C78.5777 158.454 84.9265 168.681 93.1637 166.08C103.872 162.725 99.0308 150.867 99.0308 150.867Z" fill="#0D378D"/>
<path d="M95.2853 151.947C95.3121 151.941 95.3353 151.924 95.3499 151.901C95.3645 151.877 95.3692 151.849 95.363 151.822C95.3568 151.796 95.3403 151.772 95.3169 151.758C95.2936 151.743 95.2655 151.739 95.2387 151.745C94.1195 151.97 93.0504 152.396 92.0837 153.003C90.8248 153.779 89.9855 155.006 88.8044 155.884C85.7892 158.113 82.3156 155.651 79.6191 154.129C76.0134 152.079 71.8482 152.343 69.2216 155.822C69.2133 155.832 69.2095 155.845 69.211 155.858C69.2125 155.871 69.2191 155.883 69.2294 155.892C69.2397 155.9 69.2528 155.904 69.2659 155.902C69.2791 155.901 69.2911 155.894 69.2993 155.884C70.1174 154.814 71.2144 153.991 72.47 153.503C73.7256 153.015 75.0914 152.883 76.4175 153.119C78.9974 153.609 80.9712 155.566 83.4113 156.451C85.0665 157.057 86.8927 157.39 88.4857 156.451C89.3124 155.855 90.0754 155.176 90.7626 154.424C92.0357 153.228 93.592 152.376 95.2853 151.947V151.947Z" fill="#0D378D"/>
<path d="M99.5049 152.117C99.5049 152.071 99.4117 152.117 99.4194 152.117C100.088 155.34 100.873 158.64 99.5593 161.832C98.145 165.265 94.5626 167.268 90.9647 167.501C86.9315 167.773 84.7479 164.9 82.1369 162.337C80.2563 160.481 78.2514 158.765 75.6248 158.097C75.5471 158.097 75.5083 158.206 75.6248 158.237C79.5569 159.712 82.0048 162.795 84.95 165.56C87.39 167.819 90.172 168.301 93.3426 167.346C100.336 165.272 101.518 158.345 99.5049 152.117Z" fill="#0D378D"/>
<path d="M124.038 89.4413C123.152 88.3153 121.411 89.7131 122.305 90.8469C123.198 91.9807 124.931 90.5673 124.038 89.4413Z" fill="#8CB3FF"/>
<path d="M124.908 91.3284C124.721 91.1008 124.451 90.9564 124.157 90.9266C123.864 90.8968 123.57 90.9841 123.341 91.1694C123.112 91.3546 122.965 91.623 122.932 91.916C122.9 92.209 122.984 92.503 123.168 92.7339C123.355 92.9615 123.625 93.1059 123.918 93.1357C124.212 93.1655 124.505 93.0782 124.735 92.893C124.964 92.7077 125.111 92.4393 125.144 92.1463C125.176 91.8533 125.091 91.5594 124.908 91.3284Z" fill="#8CB3FF"/>
<path d="M126.097 93.0524C125.903 92.847 125.639 92.7224 125.357 92.7036C125.075 92.6849 124.797 92.7733 124.578 92.9512C124.358 93.1291 124.214 93.3832 124.175 93.6627C124.135 93.9422 124.203 94.2263 124.364 94.458C125.25 95.5762 126.983 94.1862 126.097 93.0524Z" fill="#8CB3FF"/>
<path d="M127.465 94.5666C127.271 94.3612 127.007 94.2366 126.725 94.2178C126.443 94.199 126.165 94.2875 125.945 94.4653C125.726 94.6432 125.582 94.8974 125.543 95.1769C125.503 95.4563 125.571 95.7404 125.732 95.9721C126.618 97.1292 128.358 95.6926 127.465 94.5666Z" fill="#8CB3FF"/>
<path d="M129.112 95.8479C128.925 95.6203 128.655 95.4759 128.361 95.4462C128.068 95.4164 127.774 95.5036 127.545 95.6889C127.315 95.8742 127.168 96.1425 127.136 96.4355C127.103 96.7285 127.188 97.0225 127.371 97.2535C127.559 97.4811 127.829 97.6254 128.122 97.6552C128.416 97.685 128.709 97.5978 128.939 97.4125C129.168 97.2272 129.315 96.9589 129.347 96.6659C129.38 96.3729 129.295 96.0789 129.112 95.8479V95.8479Z" fill="#8CB3FF"/>
<path d="M130.892 96.78C130.704 96.5524 130.434 96.4081 130.141 96.3783C129.847 96.3485 129.554 96.4357 129.324 96.621C129.095 96.8063 128.948 97.0746 128.916 97.3676C128.883 97.6606 128.968 97.9546 129.151 98.1856C130.037 99.3116 131.777 97.906 130.892 96.78Z" fill="#8CB3FF"/>
<path d="M100.049 148.04C102.419 143.816 112.77 128.285 114.386 122.072C116.003 115.86 122.041 107.589 124.877 106.347C127.713 105.104 125.079 107.861 123.144 110.074C121.209 112.288 118.264 122.127 116.5 126.087C114.736 130.047 105.17 149.205 103.196 151.488C101.222 153.771 100.049 148.04 100.049 148.04Z" fill="#8CB3FF"/>
<path opacity="0.3" d="M100.049 148.04C102.419 143.816 112.77 128.285 114.386 122.072C116.003 115.86 122.041 107.589 124.877 106.347C127.713 105.104 125.079 107.861 123.144 110.074C121.209 112.288 118.264 122.127 116.5 126.087C114.736 130.047 105.17 149.205 103.196 151.488C101.222 153.771 100.049 148.04 100.049 148.04Z" fill="black"/>
<path d="M131.941 114.346C137.94 117.592 164.905 124.674 173.632 118.757C182.53 112.723 190.324 86.739 191.505 83.5162C194.334 75.9681 170.524 73.5763 169.661 75.6497C166.708 83.0037 162.667 102.557 159.434 103.388C152.627 105.151 146.169 105.074 135.345 106.347C127.768 107.225 125.32 110.773 131.941 114.346Z" fill="#D3766A"/>
<path d="M190.479 85.3412C192.033 82.9106 198.196 71.0681 199.144 67.426C200.092 63.7839 202.05 53.1062 199.33 52.0967C196.61 51.0872 195.787 54.1701 195.787 54.1701C195.787 54.1701 195.903 49.5108 193.075 48.7342C190.246 47.9577 189.096 52.8655 189.096 52.8655C189.096 52.8655 188.871 48.0897 185.988 47.5305C183.104 46.9714 182.794 52.0191 182.794 52.0191C182.794 52.0191 182.794 47.647 180.221 48.1363C177.113 48.7808 178.061 56.8415 176.717 60.7864C176.414 61.6795 169.226 78.492 169.226 78.492L190.479 85.3412Z" fill="#D3766A"/>
<path d="M182.879 51.5533C183.54 57.4862 182.809 60.1964 180.245 65.4848C180.191 65.5858 180.338 65.6867 180.4 65.578C183.377 60.6313 184.791 57.3698 183.159 51.5067C183.066 51.2194 182.833 51.3126 182.879 51.5533Z" fill="#0D378D"/>
<path d="M189.096 52.361C189.244 58.5734 188.474 61.5321 186.198 67.2631C186.198 67.3486 186.299 67.4107 186.337 67.333C189.042 61.8971 190.378 58.6045 189.407 52.4076C189.337 52.128 189.096 52.0892 189.096 52.361Z" fill="#0D378D"/>
<path d="M195.662 54.4573C195.375 60.4912 194.668 63.7761 191.777 69.0411C191.762 69.0658 191.757 69.0957 191.763 69.1241C191.77 69.1525 191.787 69.1771 191.812 69.1925C191.837 69.208 191.867 69.213 191.895 69.2064C191.923 69.1999 191.948 69.1823 191.963 69.1576C195.468 64.0634 196.385 59.9942 195.849 54.4884C195.81 54.1079 195.686 54.0768 195.662 54.4573Z" fill="#0D378D"/>
<path d="M167.555 81.8465C167.555 81.8465 165.364 74.6944 165.092 71.3396C164.82 67.9849 168.418 55.1173 171.223 55.7385C174.875 56.5151 174.261 64.3739 173.461 68.1635C173.461 68.1635 181.9 70.0039 182.685 75.7194C183.47 81.4349 167.555 81.8465 167.555 81.8465Z" fill="#D3766A"/>
<path d="M172.171 56.2822C174.976 59.3884 173.601 64.3273 173.096 68.0781C173.088 68.1327 173.093 68.1884 173.11 68.2407C173.128 68.293 173.157 68.3405 173.197 68.3791C173.236 68.4177 173.284 68.4465 173.337 68.463C173.39 68.4795 173.445 68.4834 173.5 68.4742C176.989 69.4837 181.613 71.9143 182.825 75.5409C182.825 75.5635 182.834 75.5852 182.85 75.6013C182.866 75.6173 182.888 75.6263 182.91 75.6263C182.933 75.6263 182.955 75.6173 182.971 75.6013C182.987 75.5852 182.996 75.5635 182.996 75.5409C182.219 71.4717 177.859 68.7071 173.966 67.8529C174.541 64.0245 175.699 59.0234 172.187 56.2977C172.179 56.2434 172.155 56.2667 172.171 56.2822Z" fill="#0D378D"/>
<path d="M153.552 152.529L110.812 151.628C110.812 151.628 116.818 118.298 121.691 110.199C124.931 104.763 129.19 104.6 133.301 106.743C134.326 107.279 148.065 118.632 149.993 123.206C151.702 127.244 149.285 132.657 149.285 132.657L153.552 152.529Z" fill="#8CB3FF"/>
<path d="M134.699 132.797C136.533 132.545 138.382 132.428 140.232 132.447C141.157 132.447 142.066 132.533 142.983 132.618C143.442 132.657 143.892 132.688 144.351 132.711C144.831 132.748 145.313 132.73 145.789 132.657C145.827 132.657 145.843 132.704 145.789 132.719C145.353 132.844 144.909 132.937 144.46 132.999C144.024 133.048 143.585 133.066 143.146 133.053C142.214 133.053 141.281 132.983 140.349 132.96C138.468 132.906 136.588 132.859 134.707 132.96C134.699 132.952 134.645 132.805 134.699 132.797Z" fill="#0D378D"/>
<path d="M130.659 135.406C132.102 134.91 133.573 134.497 135.065 134.171C135.842 134.008 136.565 133.892 137.318 133.791L138.406 133.667C138.81 133.628 139.183 133.667 139.611 133.597C139.65 133.597 139.665 133.651 139.611 133.659C139.238 133.713 138.834 133.83 138.499 133.907L137.38 134.132L135.142 134.591C133.643 134.886 132.158 135.189 130.674 135.53C130.604 135.554 130.589 135.437 130.659 135.406Z" fill="#0D378D"/>
<path d="M124.931 107.318C129.773 106.541 126.657 128.696 120.766 135.841C117.106 140.29 115.544 128.075 116.943 122.569C118.342 117.064 122.826 107.659 124.931 107.318Z" fill="#D3766A"/>
<path d="M125.716 116.815C116.469 131.306 105.846 147.831 96.7929 148.033C88.6102 148.219 75.2519 141.727 60.7047 134.777C57.8139 133.395 69.7423 111.48 72.672 113.274C78.4458 116.784 90.8404 126.281 94.7259 126.732C96.3966 126.934 110.369 116.101 120.572 109.073C129.54 102.891 127.511 113.996 125.716 116.815Z" fill="#D3766A"/>
<path d="M120.199 126.359L119.577 126.934C120.385 125.784 121.162 124.596 121.908 123.369H121.87C120.875 124.604 119.911 125.854 118.971 127.151C118.528 127.764 117.052 130.016 116.539 130.692C116.484 130.77 116.601 130.948 116.663 130.871C117.145 130.218 118.684 128.238 119.095 127.671C119.263 127.548 119.424 127.416 119.577 127.275C119.834 127.042 120.075 126.809 120.315 126.553C120.789 126.048 121.248 125.528 121.706 125C121.209 125.458 120.712 125.916 120.199 126.359Z" fill="#0D378D"/>
<path d="M65.608 136.734C62.8105 136.105 50.0661 132.121 46.7946 130.218C43.523 128.316 34.5942 122.165 35.7987 119.533C37.0032 116.9 39.7696 118.492 39.7696 118.492C39.7696 118.492 36.4048 115.293 37.858 112.754C39.3112 110.214 43.5308 112.831 43.5308 112.831C43.5308 112.831 40.3136 109.298 41.9766 106.867C43.6396 104.437 47.4162 107.776 47.4162 107.776C47.4162 107.776 44.3079 104.67 46.507 103.241C49.1414 101.517 54.2003 107.861 57.9459 109.694C58.8007 110.105 75.7801 116.893 75.7801 116.893L65.608 136.734Z" fill="#D3766A"/>
<path d="M47.0434 107.473C50.7812 112.133 53.2602 113.523 58.7775 115.441C58.8863 115.441 58.8552 115.65 58.7775 115.619C53.1047 114.214 49.8099 112.932 46.8103 107.636C46.6626 107.38 46.888 107.225 47.0434 107.473Z" fill="#0D378D"/>
<path d="M43.2432 112.428C47.5405 116.932 50.1749 118.461 55.8477 120.9C55.9254 120.9 55.8477 121.078 55.7933 121.047C49.9962 119.121 46.7557 117.747 43.0489 112.66C42.878 112.451 43.0412 112.226 43.2432 112.428Z" fill="#0D378D"/>
<path d="M40.0651 118.586C44.5411 122.639 47.3542 124.449 53.1669 126.103C53.1957 126.109 53.2209 126.126 53.237 126.151C53.253 126.176 53.2585 126.206 53.2524 126.235C53.2462 126.264 53.2288 126.289 53.204 126.305C53.1792 126.321 53.1491 126.326 53.1202 126.32C47.0278 125.202 43.4998 122.973 39.9563 118.733C39.7154 118.438 39.7775 118.33 40.0651 118.586Z" fill="#0D378D"/>
<path d="M61.6172 74.9982L25.5081 105.676L29.7814 110.699L65.8906 80.0212L61.6172 74.9982Z" fill="#37474F"/>
<path d="M65.8867 80.0168L29.7776 110.694L47.6361 131.686L83.7452 101.008L65.8867 80.0168Z" fill="#455A64"/>
<path d="M62.0603 75.5192L25.9512 106.197L29.3386 110.179L65.4478 79.5009L62.0603 75.5192Z" fill="white"/>
<path d="M30.9729 107.38C41.7046 97.9059 53.6873 87.7407 64.7609 78.686C54.0293 88.1368 42.0465 98.3174 30.9884 107.38H30.9729Z" fill="#DBDBDB"/>
<path d="M30.3047 106.596C41.0363 97.145 53.0191 86.9643 64.0849 77.9019C53.3533 87.3526 41.3705 97.5333 30.3047 106.635V106.596Z" fill="#DBDBDB"/>
<path d="M29.6443 105.811C40.3759 96.3526 52.3276 86.1797 63.4168 77.125C52.6929 86.5757 40.6712 96.7486 29.6443 105.811Z" fill="#DBDBDB"/>
<path d="M29.0147 105.035C39.7075 95.5762 51.6903 85.4033 62.7561 76.3408C52.0244 85.7915 40.0416 95.9722 28.9758 105.074L29.0147 105.035Z" fill="#DBDBDB"/>
<path d="M79.3159 118.027C79.3159 118.027 75.7957 111.426 73.6121 108.871C71.4284 106.316 59.772 99.7619 58.2178 102.2C56.2052 105.345 62.1888 110.447 65.4448 112.56C65.4448 112.56 60.7822 119.836 64.2947 124.425C67.8072 129.015 79.3159 118.027 79.3159 118.027Z" fill="#D3766A"/>
<path d="M57.9459 103.249C58.179 107.435 62.6084 109.935 65.6469 112.226C65.6934 112.257 65.7314 112.299 65.7578 112.349C65.7841 112.398 65.7979 112.453 65.7979 112.509C65.7979 112.565 65.7841 112.62 65.7578 112.67C65.7314 112.719 65.6934 112.762 65.6469 112.793C63.8984 115.969 62.3598 120.962 64.0927 124.395C64.104 124.415 64.1067 124.439 64.1002 124.462C64.0936 124.485 64.0783 124.504 64.0577 124.515C64.0371 124.526 64.0128 124.529 63.9903 124.522C63.9677 124.516 63.9486 124.501 63.9373 124.48C61.606 121.055 62.7328 116.023 64.8698 112.669C61.7614 110.339 57.3864 107.66 57.9381 103.249C57.907 103.218 57.9459 103.218 57.9459 103.249Z" fill="#0D378D"/>
<path d="M115.598 182.674L129.072 156.259L125.424 154.401L111.949 180.816L115.598 182.674Z" fill="#8CB3FF"/>
<path d="M111.948 180.819L125.422 154.404L115.903 149.555L102.428 175.97L111.948 180.819Z" fill="#8CB3FF"/>
<path opacity="0.1" d="M111.948 180.819L125.422 154.404L115.903 149.555L102.428 175.97L111.948 180.819Z" fill="black"/>
<path d="M117.03 179.88L118.287 177.417L114.638 175.558L113.382 178.021L117.03 179.88Z" fill="#455A64"/>
<path d="M119.104 175.791L119.591 174.836L115.942 172.977L115.455 173.932L119.104 175.791Z" fill="#455A64"/>
<path d="M109.739 180.484L124.215 152.104L119.653 149.779L105.176 178.159L109.739 180.484Z" fill="#C7C7C7"/>
<path d="M121.898 156.617L123.306 153.857L118.744 151.533L117.336 154.293L121.898 156.617Z" fill="#8CB3FF"/>
<path d="M120.792 158.797L121.377 157.648L116.815 155.324L116.229 156.473L120.792 158.797Z" fill="#8CB3FF"/>
<path d="M111.498 177.026L112.906 174.265L108.344 171.941L106.935 174.702L111.498 177.026Z" fill="#8CB3FF"/>
<path d="M96.556 173.804L105.176 178.194L119.666 149.787L111.047 145.396L96.556 173.804Z" fill="#EBEBEB"/>
<path d="M104.505 177.294L117.869 151.094L114.082 149.165L100.717 175.365L104.505 177.294Z" fill="#455A64"/>
<path d="M100.721 175.358L114.086 149.158L104.476 144.263L91.1115 170.463L100.721 175.358Z" fill="#37474F"/>
<path d="M104.11 177.093L117.475 150.893L114.47 149.362L101.105 175.563L104.11 177.093Z" fill="white"/>
<path d="M114.231 151.388C110.431 159.41 105.994 168.107 101.735 175.896C105.535 167.874 109.972 159.177 114.231 151.388V151.388Z" fill="#DBDBDB"/>
<path d="M114.821 151.69C111.014 159.705 106.584 168.402 102.326 176.191C106.126 168.169 110.563 159.479 114.821 151.69V151.69Z" fill="#DBDBDB"/>
<path d="M115.412 151.985C111.604 160.007 107.175 168.705 102.908 176.494C106.716 168.472 111.153 159.774 115.412 151.985Z" fill="#DBDBDB"/>
<path d="M116.002 152.265C112.195 160.287 107.757 168.984 103.499 176.773C107.307 168.751 111.744 160.054 116.002 152.265Z" fill="#DBDBDB"/>
<path d="M100.049 148.041C98.3315 146.635 77.5132 175.375 78.1115 180.928C78.6089 185.277 98.7511 200.342 113.819 199.115C119.461 198.649 130.651 161.592 130.394 159.79C130.208 158.532 121.163 160.846 112.071 157.654C108.061 156.249 104.75 151.908 100.049 148.041Z" fill="#8CB3FF"/>
<path opacity="0.3" d="M100.049 148.041C98.3315 146.635 77.5132 175.375 78.1115 180.928C78.6089 185.277 98.7511 200.342 113.819 199.115C119.461 198.649 130.651 161.592 130.394 159.79C130.208 158.532 121.163 160.846 112.071 157.654C108.061 156.249 104.75 151.908 100.049 148.041Z" fill="black"/>
<path opacity="0.1" d="M92.4643 180.571C91.0223 179.346 89.6425 178.05 88.3302 176.688C89.0288 175.237 89.8232 173.833 90.7081 172.487C90.7081 172.487 90.7081 172.448 90.7081 172.487C89.7805 173.767 88.9244 175.096 88.1437 176.471C87.693 175.989 87.25 175.492 86.8149 174.972C87.8641 172.868 89.083 170.852 90.4594 168.946C90.4983 168.891 90.4206 168.814 90.3817 168.868C88.9891 170.708 87.6922 172.618 86.4963 174.591C85.9911 173.962 85.5016 173.31 85.0276 172.611C85.0214 172.602 85.0118 172.595 85.0008 172.593C84.9899 172.591 84.9785 172.593 84.9693 172.599C84.96 172.606 84.9536 172.615 84.9514 172.626C84.9492 172.637 84.9514 172.648 84.9576 172.658C85.3564 173.444 85.8055 174.204 86.302 174.933C85.7969 175.795 85.3384 176.68 84.911 177.581C84.367 176.905 83.8464 176.199 83.3568 175.453C83.3485 175.439 83.3349 175.428 83.3189 175.424C83.3029 175.42 83.2858 175.422 83.2713 175.43C83.2569 175.438 83.2463 175.452 83.242 175.468C83.2376 175.484 83.2398 175.501 83.248 175.515C83.7155 176.339 84.2346 177.133 84.8022 177.892C84.3919 178.792 84.0339 179.715 83.7298 180.656C83.6754 180.827 83.9552 180.92 84.0329 180.757C84.4136 179.981 84.81 179.165 85.1674 178.373C85.5871 178.901 86.0222 179.414 86.4885 179.926C85.8451 181.428 85.348 182.988 85.0042 184.586C84.9654 184.78 85.2451 184.826 85.3073 184.648C85.7813 183.165 86.2864 181.72 86.8615 180.291C87.8474 181.298 88.9451 182.189 90.1331 182.947C90.2341 183.009 90.3429 182.854 90.2496 182.776C89.1205 181.872 88.0414 180.908 87.0169 179.887C87.3744 179.002 87.7396 178.125 88.1359 177.27C89.3636 178.666 90.8065 179.856 92.4099 180.796C92.4247 180.8 92.4401 180.8 92.4551 180.798C92.4702 180.795 92.4846 180.79 92.4976 180.782C92.5106 180.774 92.5219 180.764 92.5308 180.752C92.5398 180.739 92.5462 180.725 92.5498 180.711C92.5534 180.696 92.554 180.68 92.5517 180.665C92.5493 180.65 92.544 180.636 92.536 180.623C92.5281 180.61 92.5177 180.599 92.5054 180.59C92.4931 180.581 92.4791 180.574 92.4643 180.571V180.571ZM85.284 178.008C85.7114 177.115 86.1388 176.222 86.5895 175.337C86.9781 175.888 87.3666 176.424 87.8329 176.937C87.3821 177.767 86.9858 178.622 86.6051 179.484C86.1466 179.01 85.7425 178.513 85.284 178.008V178.008Z" fill="black"/>
<path opacity="0.1" d="M123.478 176.02C122.96 175.896 122.471 175.764 122.009 175.624C122.243 174.948 122.46 174.265 122.686 173.582C123.133 173.705 123.591 173.786 124.053 173.822C124.162 173.822 124.178 173.651 124.053 173.636C123.61 173.543 123.183 173.418 122.755 173.294C123.198 171.904 123.626 170.506 124.061 169.124C124.061 169.062 123.975 169.039 123.952 169.124C123.517 170.514 123.012 171.881 122.491 173.232C122.118 173.116 121.753 172.976 121.388 172.828C122.165 170.7 122.779 168.534 123.408 166.406C123.408 166.328 123.307 166.305 123.284 166.406C122.561 168.518 121.73 170.592 120.953 172.673C119.85 172.176 118.778 171.613 117.743 170.988C117.743 170.988 117.689 170.988 117.743 171.034C118.733 171.742 119.771 172.378 120.852 172.937C120.58 173.628 120.308 174.327 120.074 175.018C119.217 174.684 118.39 174.276 117.603 173.799C117.603 173.799 117.541 173.799 117.603 173.853C118.343 174.356 119.123 174.797 119.935 175.173C119.585 176.098 119.243 177.029 118.924 177.961C118.87 178.124 119.134 178.21 119.204 178.062C119.639 177.193 120.036 176.292 120.409 175.383C120.757 175.528 121.112 175.655 121.473 175.764C120.696 177.666 119.919 179.561 119.259 181.487C119.196 181.65 119.468 181.743 119.546 181.588C120.448 179.741 121.226 177.837 121.877 175.888C122.386 176.026 122.906 176.119 123.432 176.167C123.54 176.175 123.579 176.043 123.478 176.02ZM120.525 175.15C120.797 174.467 121.054 173.783 121.302 173.092C121.659 173.252 122.024 173.39 122.398 173.504L121.621 175.507L120.525 175.15Z" fill="black"/>
<path d="M130.394 159.79C132.912 153.345 137.007 146.736 140.753 139.871C144.499 133.007 144.234 115.736 141.872 111.915C139.51 108.095 132.252 105.066 129.959 105.54C127.667 106.013 137.466 108.902 138.942 112.241C140.419 115.581 139.665 134.187 138.321 136.004C136.976 137.821 126.035 157.919 126.004 159.534C125.973 161.149 130.394 159.79 130.394 159.79Z" fill="#8CB3FF"/>
<path opacity="0.3" d="M130.394 159.79C132.912 153.345 137.007 146.736 140.753 139.871C144.499 133.007 144.234 115.736 141.872 111.915C139.51 108.095 132.252 105.066 129.959 105.54C127.667 106.013 137.466 108.902 138.942 112.241C140.419 115.581 139.665 134.187 138.321 136.004C136.976 137.821 126.035 157.919 126.004 159.534C125.973 161.149 130.394 159.79 130.394 159.79Z" fill="black"/>
<path d="M126.851 108.056C127.138 108.832 131.614 113.569 135.259 112.948C136.448 112.738 135.616 106.207 135.616 106.207L135.663 105.718L136.339 98.7757L127.791 94.6599L126.563 94.1318C126.563 94.1318 126.501 96.0422 126.454 98.4184C126.454 98.5349 126.454 98.6436 126.454 98.7601C126.454 98.8766 126.454 99.0242 126.454 99.1484C126.454 99.5056 126.454 99.8706 126.454 100.228C126.454 100.585 126.454 100.771 126.454 101.059C126.454 101.346 126.454 101.633 126.454 101.928C126.447 103.977 126.579 106.025 126.851 108.056V108.056Z" fill="#D3766A"/>
<path d="M126.431 98.4184C127.347 100.233 128.647 101.825 130.241 103.086C131.836 104.347 133.686 105.245 135.663 105.718L136.339 98.7757L127.791 94.6599L126.563 94.1318C126.563 94.1318 126.478 96.0422 126.431 98.4184Z" fill="#0D378D"/>
<path d="M142.323 83.7569C148.205 94.4889 142.439 99.226 140.116 100.492C138.01 101.641 130.697 105.283 123.735 95.2111C116.772 85.1392 119.935 79.0121 124.597 76.1622C129.26 73.3122 136.44 73.0559 142.323 83.7569Z" fill="#D3766A"/>
<path d="M138.725 83.4696C138.47 83.5588 138.211 83.634 137.948 83.6947C137.671 83.8162 137.363 83.8435 137.07 83.7724C136.983 83.7304 136.912 83.6617 136.867 83.5764C136.823 83.4912 136.806 83.3939 136.821 83.2987C136.884 83.1167 136.994 82.9547 137.14 82.8291C137.286 82.7036 137.463 82.6191 137.652 82.5843C138.019 82.4394 138.428 82.4394 138.795 82.5843C138.886 82.6216 138.964 82.687 139.016 82.7712C139.068 82.8554 139.091 82.9539 139.084 83.0525C139.076 83.151 139.037 83.2446 138.972 83.3196C138.908 83.3946 138.821 83.4471 138.725 83.4696V83.4696Z" fill="#0D378D"/>
<path d="M131.319 87.5002C131.56 87.3371 131.754 87.143 131.98 86.9644C132.236 86.8072 132.433 86.5696 132.539 86.2888C132.558 86.1933 132.543 86.0943 132.498 86.0082C132.453 85.9221 132.38 85.8539 132.291 85.8151C132.107 85.7616 131.912 85.7578 131.726 85.8042C131.541 85.8506 131.371 85.9455 131.234 86.0791C130.913 86.312 130.689 86.6548 130.604 87.042C130.591 87.1306 130.604 87.2211 130.641 87.3026C130.679 87.384 130.738 87.4531 130.814 87.5014C130.889 87.5497 130.977 87.5753 131.067 87.5751C131.156 87.5749 131.244 87.5489 131.319 87.5002V87.5002Z" fill="#0D378D"/>
<path d="M134.427 89.2705C134.427 89.2705 134.427 89.3326 134.427 89.3637C134.847 90.0859 135.205 90.9789 134.692 91.5847C134.692 91.5847 134.692 91.639 134.692 91.5847C135.477 91.0644 134.948 89.884 134.427 89.2705Z" fill="#0D378D"/>
<path d="M133.355 88.8668C132.135 89.4182 133.355 91.8255 134.474 91.313C135.593 90.8004 134.389 88.4009 133.355 88.8668Z" fill="#0D378D"/>
<path d="M132.951 89.2242C132.803 89.4727 132.718 89.8144 132.477 90.0008C132.236 90.1871 131.855 90.0008 131.537 89.892C131.537 89.892 131.498 89.892 131.537 89.9386C131.762 90.4046 132.174 90.7851 132.702 90.6065C132.926 90.497 133.1 90.3078 133.19 90.0764C133.281 89.845 133.282 89.5881 133.192 89.3562C133.145 89.2242 133.006 89.131 132.951 89.2242Z" fill="#0D378D"/>
<path d="M138.437 86.8633C138.437 86.8633 138.515 86.8633 138.531 86.8633C138.872 87.6398 139.393 88.4164 140.193 88.3543C140.193 88.3543 140.232 88.3543 140.193 88.4009C139.362 88.7193 138.639 87.6321 138.437 86.8633Z" fill="#0D378D"/>
<path d="M138.725 85.7529C139.883 85.0695 141.165 87.4381 140.085 88.0826C139.004 88.7271 137.753 86.3198 138.725 85.7529Z" fill="#0D378D"/>
<path d="M139.3 85.6365C139.556 85.6365 139.867 85.7918 140.077 85.6908C140.287 85.5899 140.395 85.2016 140.427 84.8677C140.427 84.8677 140.427 84.8677 140.481 84.8677C140.737 85.3181 140.838 85.8694 140.481 86.1878C140.123 86.5062 139.626 86.25 139.276 85.8539C139.207 85.7918 139.199 85.6287 139.3 85.6365Z" fill="#0D378D"/>
<path d="M139.875 92.4233C139.808 93.0047 139.591 93.5587 139.245 94.0308C139.046 94.2799 138.775 94.4615 138.468 94.5511C137.8 94.7452 137.466 94.225 137.303 93.7047C137.216 93.4301 137.163 93.1458 137.147 92.8582C138.08 93.0103 139.036 92.8578 139.875 92.4233Z" fill="#0D378D"/>
<path d="M139.245 94.0231C139.046 94.2722 138.775 94.4538 138.468 94.5434C137.8 94.7375 137.466 94.2173 137.303 93.697C137.614 93.5187 137.978 93.4537 138.332 93.5132C138.687 93.5726 139.009 93.7528 139.245 94.0231Z" fill="#FF9BBC"/>
<path d="M139.362 90.8395C139.362 90.8395 140.085 91.8645 140.349 92.3926C140.349 92.4469 140.264 92.5324 140.093 92.6333C139.685 92.9449 139.201 93.1386 138.691 93.1934C138.181 93.2482 137.666 93.1619 137.202 92.9439C137.14 92.9439 137.202 92.8197 137.248 92.8275C138.146 92.9419 139.057 92.762 139.844 92.3149C139.844 92.1519 138.554 90.591 138.632 90.5444C139.055 90.3731 139.499 90.2582 139.953 90.2027C138.515 88.0206 136.728 86.0792 135.29 83.8815C135.277 83.865 135.27 83.8439 135.273 83.8228C135.275 83.8017 135.285 83.7823 135.302 83.7689C135.318 83.7555 135.339 83.7492 135.361 83.7514C135.382 83.7536 135.401 83.7641 135.414 83.7805C137.391 85.7952 139.159 88.0041 140.691 90.3735C140.916 90.6609 139.611 90.8162 139.362 90.8395Z" fill="#0D378D"/>
<path d="M124.154 95.5297C125.351 94.8619 126.905 89.9075 124.108 83.8814C124.108 83.8814 126.253 89.4338 126.229 90.4122C126.206 91.3907 127.092 87.6321 124.9 82.7709C126.939 83.1161 129.017 83.1684 131.071 82.9262C133.643 82.4525 135.018 81.7613 135.104 81.5206C135.189 81.2799 131.335 81.8468 129.928 81.2488C129.928 81.2488 137.318 81.1168 140.201 79.9753C140.536 79.8432 137.684 74.1666 132.026 73.4522C126.369 72.7377 121.054 77.964 120.082 80.6198C120.082 80.6198 118.427 81.6759 117.86 86.0169C117.246 90.7306 122.864 96.2597 124.154 95.5297Z" fill="#0D378D"/>
<path d="M134.793 94.6832C134.067 94.9948 133.269 95.0966 132.488 94.9771C131.707 94.8577 130.976 94.5217 130.377 94.0074C129.778 93.4931 129.336 92.8212 129.1 92.0681C128.864 91.3149 128.844 90.5107 129.043 89.747C129.242 88.9833 129.651 88.2907 130.225 87.7479C130.798 87.2052 131.512 86.8341 132.286 86.6768C133.06 86.5196 133.862 86.5825 134.602 86.8585C135.342 87.1344 135.99 87.6123 136.471 88.2378V88.2378C137.152 89.1259 137.453 90.2477 137.307 91.357C137.162 92.4664 136.581 93.4727 135.694 94.1551C135.419 94.3709 135.116 94.5486 134.793 94.6832V94.6832ZM131.684 87.4534C131.407 87.5721 131.145 87.7261 130.907 87.9116C130.168 88.481 129.673 89.3108 129.524 90.2319C129.376 91.153 129.584 92.0961 130.107 92.8689C130.63 93.6418 131.429 94.1862 132.34 94.3912C133.25 94.5962 134.205 94.4464 135.009 93.9723C135.813 93.4982 136.406 92.7354 136.667 91.8396C136.928 90.9437 136.837 89.9822 136.413 89.1509C135.989 88.3196 135.264 87.6813 134.385 87.3658C133.507 87.0504 132.541 87.0818 131.684 87.4534V87.4534Z" fill="#8CB3FF"/>
<path d="M142.828 89.9542C141.344 90.591 139.339 89.6513 138.243 87.741C137.705 86.8384 137.46 85.7909 137.544 84.7435C137.554 84.2931 137.68 83.8528 137.909 83.4652C138.139 83.0775 138.465 82.7555 138.855 82.53C139.245 82.3046 139.687 82.1833 140.138 82.1779C140.589 82.1725 141.033 82.2832 141.429 82.4992C142.381 82.9499 143.167 83.689 143.675 84.6115C144.833 86.6227 144.561 88.968 143.053 89.8299C142.981 89.8767 142.906 89.9183 142.828 89.9542V89.9542ZM139.362 82.9186C139.297 82.9433 139.234 82.9745 139.175 83.0117C138.87 83.205 138.616 83.469 138.435 83.7813C138.254 84.0936 138.151 84.4449 138.134 84.8056C138.063 85.7347 138.283 86.6627 138.764 87.4614C139.766 89.2087 141.584 90.0551 142.82 89.3407C144.056 88.6263 144.234 86.6383 143.232 84.891C142.779 84.0743 142.084 83.4178 141.242 83.0117C140.953 82.8664 140.636 82.783 140.312 82.767C139.988 82.7509 139.665 82.8026 139.362 82.9186V82.9186Z" fill="#8CB3FF"/>
<path d="M136.634 88.7115L136.184 88.5484C136.424 87.8883 137.202 86.739 138.422 87.1118L138.282 87.5622C137.194 87.2282 136.658 88.6493 136.634 88.7115Z" fill="#8CB3FF"/>
<path d="M122.211 98.0691H121.73C121.73 97.8516 121.66 95.8869 122.507 95.2113C123.354 94.5357 129.112 91.911 129.361 91.8022L129.563 92.2371C127.892 93.0137 123.416 95.0871 122.81 95.5763C122.204 96.0656 122.188 97.5333 122.211 98.0691Z" fill="#8CB3FF"/>
<path d="M125.887 99.1797C126.082 99.1752 126.276 99.1438 126.462 99.0865C126.899 98.9809 127.286 98.7287 127.558 98.372C127.673 98.2143 127.768 98.042 127.838 97.8595C127.931 97.5976 127.981 97.3222 127.985 97.0441L126.043 94.3262C126.043 94.3262 122.056 91.9033 120.852 93.4797C119.647 95.0561 123.719 99.3117 125.887 99.1797Z" fill="#D3766A"/>
<path d="M122.048 94.6679V94.7223C123.603 94.6757 124.815 95.5843 125.848 96.6326C125.715 96.5344 125.562 96.4663 125.4 96.433C125.238 96.3996 125.071 96.4019 124.91 96.4395C124.749 96.4772 124.598 96.5494 124.467 96.6511C124.337 96.7528 124.23 96.8816 124.154 97.0286C124.154 97.0286 124.193 97.1063 124.224 97.083C124.421 96.9086 124.668 96.7999 124.93 96.7721C125.192 96.7442 125.456 96.7986 125.685 96.9277C126.068 97.1491 126.428 97.4093 126.758 97.7043C126.866 97.7897 127.053 97.6344 126.952 97.5256C126.229 95.8094 123.913 94.0234 122.048 94.6679Z" fill="#0D378D"/>
<path d="M125.833 98.6825C125.919 98.8061 126.052 98.8902 126.2 98.9164C126.349 98.9427 126.502 98.9088 126.626 98.8223C126.749 98.7358 126.833 98.6037 126.86 98.4552C126.886 98.3066 126.852 98.1538 126.765 98.0302C126.679 97.9066 126.547 97.8225 126.398 97.7963C126.249 97.77 126.096 97.8039 125.973 97.8904C125.849 97.9769 125.765 98.109 125.739 98.2575C125.712 98.4061 125.746 98.5589 125.833 98.6825V98.6825Z" fill="white"/>
<path d="M124.426 98.3254C124.456 98.3694 124.494 98.4069 124.538 98.4359C124.583 98.4649 124.632 98.4846 124.685 98.4941C124.737 98.5035 124.79 98.5023 124.842 98.4907C124.894 98.4791 124.943 98.4572 124.986 98.4264C125.072 98.3641 125.13 98.2705 125.147 98.1659C125.164 98.0613 125.14 97.954 125.079 97.8672C125.018 97.7807 124.925 97.7219 124.821 97.7037C124.717 97.6855 124.61 97.7094 124.523 97.7702C124.437 97.8309 124.378 97.9236 124.36 98.0277C124.342 98.1318 124.365 98.2389 124.426 98.3254V98.3254Z" fill="white"/>
<path d="M298.985 198.509C299.824 200.303 294.742 202.819 292.092 202.454C289.827 201.847 287.605 201.092 285.44 200.194C278.392 197.507 268.499 193.423 268.499 193.423L264 197.888L240.843 216.657L218.804 191.994C218.804 191.994 229.575 181.759 239.926 172.331C241.48 170.879 243.096 169.466 244.588 168.091L244.876 167.835C251.87 161.623 257.737 156.691 258.615 156.924C261.016 157.522 298.145 196.708 298.985 198.509Z" fill="#FFC4C0"/>
<path d="M298.985 198.509C299.824 200.311 294.742 202.819 292.092 202.454C289.826 201.847 287.604 201.089 285.44 200.186C278.392 197.515 268.499 193.423 268.499 193.423L263.992 197.896L263.215 198.517L239.607 172.634L239.941 172.324L244.604 168.091C244.697 167.998 244.798 167.913 244.891 167.835C251.885 161.623 257.752 156.691 258.638 156.917C261.016 157.515 298.145 196.707 298.985 198.509Z" fill="#EBEBEB"/>
<path d="M299.707 199.014C298.884 197.166 261.576 156.793 259.174 156.156C258.273 155.899 252.064 160.994 244.751 167.354L244.518 167.556L268.297 193.873L268.733 193.454C268.733 193.454 289.932 202.524 292.644 202.943C295.356 203.363 300.547 200.855 299.707 199.014Z" fill="#8CB3FF"/>
<path opacity="0.1" d="M299.707 199.014C298.884 197.166 261.576 156.793 259.174 156.156C258.273 155.899 252.064 160.994 244.751 167.354L244.518 167.556L268.297 193.873L268.733 193.454C268.733 193.454 289.932 202.524 292.644 202.943C295.356 203.363 300.547 200.855 299.707 199.014Z" fill="black"/>
<path d="M297.718 200C291.268 193.353 265.857 165.917 259.975 158.842C259.928 158.788 259.975 158.749 260.021 158.842C266.564 165.296 291.75 192.933 297.835 199.93C297.959 200.047 297.889 200.14 297.718 200Z" fill="#0D378D"/>
<path d="M271.056 196.707C268.08 194.486 265.461 190.829 265.484 187.024C265.484 186.876 265.694 186.876 265.741 187.024C267.282 190.345 269.173 193.492 271.382 196.412C271.401 196.457 271.406 196.506 271.395 196.553C271.385 196.6 271.36 196.643 271.324 196.676C271.288 196.708 271.243 196.729 271.195 196.734C271.147 196.74 271.099 196.731 271.056 196.707V196.707Z" fill="#0D378D"/>
<path d="M274.001 197.562C271.033 195.349 268.414 191.691 268.429 187.878C268.429 187.731 268.647 187.738 268.693 187.878C270.231 191.201 272.122 194.349 274.335 197.267C274.356 197.312 274.361 197.363 274.351 197.412C274.341 197.461 274.315 197.505 274.277 197.538C274.24 197.571 274.193 197.591 274.143 197.596C274.093 197.6 274.044 197.588 274.001 197.562V197.562Z" fill="#0D378D"/>
<path d="M276.954 198.416C273.986 196.203 271.367 192.545 271.382 188.74C271.382 188.593 271.592 188.593 271.647 188.74C273.191 192.045 275.082 195.177 277.288 198.082C277.31 198.104 277.328 198.13 277.34 198.159C277.351 198.187 277.358 198.218 277.358 198.249C277.358 198.28 277.351 198.311 277.34 198.339C277.328 198.368 277.31 198.394 277.288 198.416C277.266 198.438 277.24 198.455 277.212 198.467C277.183 198.479 277.152 198.485 277.121 198.485C277.09 198.485 277.059 198.479 277.031 198.467C277.002 198.455 276.976 198.438 276.954 198.416V198.416Z" fill="#0D378D"/>
<path d="M271.134 200.862C270.854 197.601 269.183 194.58 267.955 191.613C267.922 191.551 267.874 191.498 267.816 191.457C267.758 191.417 267.691 191.39 267.621 191.38C267.551 191.369 267.48 191.375 267.412 191.397C267.345 191.418 267.283 191.455 267.233 191.505C267.224 191.492 267.213 191.481 267.199 191.474C267.186 191.467 267.17 191.463 267.155 191.463C267.14 191.463 267.124 191.467 267.111 191.474C267.097 191.481 267.086 191.492 267.077 191.505C265.452 194.507 264.648 197.885 264.746 201.297C264.839 203.285 265.997 205.84 268.422 205.56C270.691 205.312 271.297 202.741 271.134 200.862ZM269.58 203.534C267.07 206.717 265.694 202.136 265.694 200.668C265.704 199.72 265.777 198.773 265.912 197.834C266.226 195.898 266.638 193.98 267.147 192.087C267.66 193.586 268.297 195.023 268.857 196.49C269.564 198.253 270.986 201.771 269.611 203.518L269.58 203.534Z" fill="#0D378D"/>
<path d="M254.737 186.356C253.657 188.546 255.693 190.488 257.542 191.233C260.738 192.463 264.202 192.824 267.582 192.281C267.598 192.279 267.612 192.273 267.625 192.265C267.638 192.256 267.648 192.244 267.656 192.231C267.663 192.217 267.667 192.202 267.668 192.187C267.669 192.171 267.666 192.156 267.66 192.142C267.724 192.111 267.779 192.066 267.822 192.009C267.865 191.953 267.894 191.888 267.907 191.818C267.92 191.748 267.916 191.677 267.896 191.609C267.876 191.541 267.841 191.479 267.792 191.427C265.399 189.292 263.13 186.706 260.122 185.37C258.35 184.586 255.747 184.291 254.737 186.356ZM263.464 188.927C264.668 189.952 265.795 191.023 267.062 192.033C265.111 191.823 263.176 191.699 261.226 191.295C260.293 191.115 259.374 190.871 258.475 190.565C257.092 190.068 253.222 187.257 257.06 185.953C259.174 185.207 262.034 187.708 263.464 188.927V188.927Z" fill="#0D378D"/>
<path d="M261.195 205.071C261.195 205.071 208.624 239.884 185.988 244.039C175.17 246.027 162.954 235.753 164.066 223.942C165.099 212.922 191.388 188.103 197.178 179.678C199.004 177.037 201.452 159.712 201.452 159.712L226.606 163.914C226.606 163.914 226.381 176.09 225.409 182.939C225.397 183.058 225.373 183.175 225.34 183.289L233.305 176.3L261.195 205.071Z" fill="#37474F"/>
<path d="M242.599 194.285C238.426 190.161 234.051 186.24 229.878 182.163C229.792 182.085 229.66 182.163 229.738 182.271C233.825 186.449 237.765 190.752 241.931 194.852C246.096 198.952 250.424 202.912 254.683 206.935C254.791 207.036 254.97 206.888 254.861 206.78C250.766 202.625 246.749 198.385 242.599 194.285Z" fill="#0D378D"/>
<path d="M225.565 183.498C224.454 184.857 223.459 186.333 222.418 187.738C221.376 189.144 220.343 190.51 219.263 191.869C217.079 194.595 214.787 197.243 212.432 199.829C207.694 205.046 202.61 209.939 197.217 214.475C194.201 216.999 191.147 219.507 187.891 221.736C187.821 221.783 187.891 221.891 187.977 221.837C190.308 220.237 192.709 218.653 194.971 216.96C193.937 218.327 192.935 219.732 191.901 221.107C191.855 221.177 191.956 221.262 192.01 221.192C193.16 219.74 194.341 218.311 195.46 216.844C195.473 216.827 195.483 216.808 195.488 216.788C195.493 216.768 195.493 216.747 195.49 216.726C195.486 216.706 195.478 216.686 195.466 216.669C195.455 216.652 195.439 216.637 195.421 216.626L196.595 215.749C199.408 213.564 202.125 211.271 204.747 208.868C209.931 204.108 214.696 198.912 218.991 193.337C220.203 191.784 221.384 190.192 222.534 188.561C223.704 186.979 224.774 185.324 225.736 183.607C225.852 183.498 225.619 183.389 225.565 183.498Z" fill="#0D378D"/>
<path d="M322.904 182.232C324.131 183.786 319.795 187.397 317.099 187.668C314.755 187.594 312.419 187.369 310.105 186.993C302.622 185.999 292.053 184.29 292.053 184.29L288.704 189.68L271.165 212.759L243.368 194.308C243.368 194.308 251.497 181.883 259.4 170.32C260.62 168.55 261.824 166.81 263.005 165.117L263.215 164.806C268.593 157.15 273.177 151.007 274.094 151.03C276.527 151.054 321.676 180.672 322.904 182.232Z" fill="#FFC4C0"/>
<path d="M322.904 182.232C324.131 183.785 319.795 187.404 317.099 187.668C314.755 187.595 312.419 187.369 310.105 186.993C302.629 185.999 292.053 184.29 292.053 184.29L288.711 189.68L288.214 190.332L258.957 170.964L259.415 170.304C260.627 168.534 261.832 166.794 263.005 165.101C263.083 165.001 263.153 164.892 263.223 164.791C268.6 157.134 273.185 150.999 274.102 151.015C276.527 151.046 321.668 180.671 322.904 182.232Z" fill="#EBEBEB"/>
<path d="M323.58 182.318C322.329 180.765 276.317 150.627 273.846 150.596C272.905 150.596 268.126 157.01 262.57 164.962C262.518 165.048 262.461 165.131 262.399 165.211L291.867 184.958L292.185 184.454C292.185 184.454 314.954 188.096 317.689 187.847C320.425 187.599 324.839 183.902 323.58 182.318Z" fill="#8CB3FF"/>
<path d="M321.893 183.755C314.014 178.878 282.689 158.439 275.268 153.011C275.206 152.964 275.268 152.925 275.268 152.964C283.186 157.623 314.34 178.327 321.948 183.63C322.134 183.739 322.057 183.863 321.893 183.755Z" fill="#0D378D"/>
<path d="M295.224 187.039C291.797 185.611 288.37 182.698 287.453 179.002C287.453 178.862 287.624 178.808 287.701 178.909C290.005 181.769 292.61 184.373 295.472 186.674C295.502 186.713 295.518 186.76 295.519 186.809C295.521 186.858 295.507 186.906 295.479 186.946C295.452 186.987 295.412 187.017 295.366 187.034C295.32 187.051 295.271 187.053 295.224 187.039V187.039Z" fill="#0D378D"/>
<path d="M298.293 187.148C294.866 185.727 291.439 182.815 290.522 179.118C290.522 178.971 290.693 178.924 290.771 179.017C293.077 181.876 295.682 184.479 298.542 186.783C298.571 186.822 298.588 186.869 298.589 186.918C298.59 186.966 298.576 187.014 298.549 187.055C298.521 187.095 298.482 187.126 298.436 187.142C298.39 187.159 298.34 187.161 298.293 187.148V187.148Z" fill="#0D378D"/>
<path d="M301.363 187.265C297.943 185.836 294.516 182.931 293.592 179.227C293.553 179.087 293.755 179.041 293.84 179.134C296.146 181.992 298.751 184.596 301.611 186.9C301.641 186.938 301.657 186.986 301.658 187.034C301.66 187.083 301.645 187.131 301.618 187.171C301.591 187.212 301.551 187.242 301.505 187.259C301.459 187.276 301.41 187.278 301.363 187.265V187.265Z" fill="#0D378D"/>
<path d="M296.335 191.046C295.27 187.94 292.916 185.432 291.004 182.854C290.957 182.8 290.897 182.757 290.831 182.731C290.764 182.704 290.692 182.694 290.621 182.701C290.549 182.708 290.48 182.731 290.42 182.77C290.36 182.809 290.309 182.862 290.273 182.924C290.261 182.916 290.246 182.911 290.231 182.91C290.216 182.909 290.201 182.912 290.187 182.918C290.174 182.924 290.161 182.934 290.152 182.945C290.143 182.957 290.136 182.971 290.134 182.986C289.29 186.291 289.333 189.759 290.258 193.042C290.825 194.953 292.589 197.15 294.858 196.288C296.988 195.465 296.925 192.848 296.335 191.046ZM295.503 194.013C293.848 197.709 291.408 193.601 291.035 192.18C290.815 191.257 290.657 190.321 290.561 189.377C290.336 187.42 290.39 185.494 290.359 183.498C291.221 184.826 292.185 186.069 293.094 187.381C294.159 188.895 296.389 191.971 295.48 194.013H295.503Z" fill="#0D378D"/>
<path d="M276.907 180.998C276.395 183.382 278.842 184.772 280.793 185.044C284.18 185.455 287.616 184.968 290.755 183.63C290.77 183.625 290.783 183.616 290.794 183.605C290.805 183.593 290.813 183.579 290.818 183.564C290.822 183.549 290.823 183.533 290.82 183.518C290.818 183.502 290.811 183.488 290.802 183.475C290.856 183.429 290.898 183.371 290.926 183.305C290.953 183.24 290.965 183.169 290.961 183.098C290.956 183.028 290.935 182.959 290.899 182.898C290.864 182.836 290.815 182.784 290.755 182.745C287.911 181.254 285.051 179.313 281.834 178.738C279.954 178.373 277.35 178.715 276.907 180.998ZM285.999 181.37C287.422 182.069 288.797 182.83 290.235 183.483C288.292 183.755 286.349 184.104 284.399 184.182C283.448 184.231 282.495 184.218 281.547 184.143C280.094 183.995 275.656 182.209 279.06 180.012C280.902 178.769 284.282 180.509 285.968 181.339L285.999 181.37Z" fill="#0D378D"/>
<path d="M206.068 160.489L240.757 166.414C240.757 166.414 247.098 177.099 247.751 183.995C248.404 190.891 224.283 217.543 224.283 217.543L253.898 175.678L287.647 197.259C287.647 197.259 246.344 240.304 218.921 254.926C208.632 260.416 194.124 251.905 193.277 238.455C192.375 224.306 208.741 184.57 208.741 184.57L206.068 160.489Z" fill="#37474F"/>
<path d="M252.818 176.339C244.378 190.084 235.667 203.65 226.218 216.72C224.904 218.537 223.591 220.346 222.255 222.156C220.918 223.965 219.581 225.992 218.074 227.762C217.996 227.848 218.144 227.964 218.214 227.871C219.41 226.194 220.786 224.648 222.052 223.025C223.319 221.402 224.524 219.841 225.736 218.226L227.29 216.129L227.072 216.689C226.723 217.527 226.381 218.366 226.055 219.22C225.386 220.967 224.92 222.823 224.12 224.516C224.065 224.617 224.236 224.687 224.275 224.586C224.943 222.831 225.915 221.2 226.653 219.476C227.005 218.638 227.339 217.791 227.655 216.937C227.976 216.183 228.236 215.404 228.432 214.607C229.948 212.542 231.455 210.476 232.94 208.395C237.602 201.81 242.055 195.08 246.298 188.204C248.668 184.376 250.96 180.501 253.167 176.556C253.261 176.339 252.911 176.09 252.818 176.339Z" fill="#0D378D"/>
<path d="M267.582 190.317C262.578 187.265 257.441 184.446 252.413 181.441C252.32 181.386 252.211 181.518 252.312 181.58C257.247 184.687 262.073 187.987 267.077 191.023C272.082 194.06 277.179 196.917 282.269 199.853C282.401 199.93 282.541 199.744 282.409 199.659C277.444 196.568 272.563 193.369 267.582 190.317Z" fill="#0D378D"/>
<path d="M208.71 184.57C206.511 188.794 200.278 205.405 198.685 209.894C197.092 214.382 195.709 218.871 194.567 223.452C193.992 225.782 193.51 228.112 193.098 230.441C192.671 232.679 192.445 234.951 192.422 237.228C192.403 241.329 193.754 245.319 196.261 248.566C197.594 250.288 199.207 251.773 201.032 252.962C202.882 254.094 204.88 254.964 206.969 255.548C207.047 255.548 207.078 255.431 206.969 255.415C205.026 254.904 203.207 254.003 201.623 252.767C199.275 251.075 197.333 248.882 195.937 246.348C194.541 243.814 193.725 241.001 193.549 238.114C193.331 233.617 194.38 229.059 195.359 224.703C196.382 220.206 197.629 215.764 199.097 211.392C199.921 208.938 200.799 206.5 201.708 204.077C202.617 201.654 208.119 187.171 208.951 184.71C208.965 184.678 208.968 184.642 208.957 184.609C208.947 184.576 208.924 184.548 208.894 184.53C208.864 184.513 208.828 184.507 208.794 184.514C208.76 184.522 208.73 184.542 208.71 184.57V184.57Z" fill="#0D378D"/>
<path d="M217.553 186.566C214.938 185.548 212.208 184.851 209.425 184.492C206.709 184.061 203.972 183.768 201.226 183.615C201.149 183.615 201.149 183.731 201.226 183.747C204.008 184.127 206.775 184.632 209.518 185.207C212.261 185.781 214.833 186.504 217.522 186.853C217.677 186.876 217.685 186.62 217.553 186.566Z" fill="#0D378D"/>
<path d="M241.115 182.031C239.103 182.222 237.081 182.282 235.061 182.209C233.39 182.171 231.673 182.132 230.181 181.27C227.275 179.592 225.767 176.214 224.819 173.139C224.819 173.069 224.671 173.139 224.695 173.178C225.557 176.54 226.187 180.439 229.466 182.372C231.094 183.222 232.941 183.563 234.766 183.351C236.924 183.174 239.059 182.782 241.138 182.178C241.153 182.171 241.166 182.159 241.174 182.144C241.182 182.13 241.185 182.112 241.182 182.096C241.179 182.079 241.171 182.064 241.159 182.052C241.147 182.04 241.131 182.033 241.115 182.031V182.031Z" fill="#0D378D"/>
<path d="M245.14 183.521C244.579 181.6 243.88 179.721 243.05 177.899C242.226 176.02 241.327 174.177 240.353 172.37C239.25 170.32 238.022 168.324 236.81 166.352C236.8 166.337 236.786 166.327 236.769 166.322C236.753 166.318 236.735 166.32 236.72 166.327C236.704 166.335 236.692 166.348 236.686 166.364C236.679 166.38 236.679 166.398 236.685 166.414C238.566 169.784 240.338 173.224 241.938 176.742C242.731 178.482 243.477 180.244 244.176 182.03C244.945 183.735 245.291 185.6 245.187 187.466C244.998 189.365 244.249 191.166 243.034 192.638C243.034 192.638 243.034 192.677 243.034 192.638C244.11 191.41 244.865 189.935 245.233 188.344C245.6 186.753 245.568 185.097 245.14 183.521V183.521Z" fill="#0D378D"/>
<path d="M253.944 185.657C252.196 187.637 250.603 189.765 248.979 191.87C247.355 193.974 245.715 196.032 244.099 198.121C240.866 202.307 237.68 206.531 234.494 210.748C232.683 213.147 230.927 215.586 229.163 218.009C229.108 218.079 229.209 218.164 229.264 218.094C235.9 209.863 242.376 201.507 248.691 193.027C250.486 190.619 252.359 188.251 254.014 185.75C254.045 185.704 253.983 185.657 253.944 185.657Z" fill="#0D378D"/>
<path d="M206.612 165.218C206.697 167.408 206.985 174.047 207.148 176.237C207.218 177.239 207.288 178.264 207.451 179.258C207.591 180.097 207.863 181.075 208.725 181.44C209.72 181.86 210.202 181.036 210.28 180.167C210.356 179.182 210.382 178.195 210.357 177.208C210.357 176.082 210.116 165.777 210.116 165.746C210.116 165.715 210.116 165.645 210.202 165.606C210.215 165.595 210.231 165.588 210.248 165.588C210.266 165.588 210.282 165.595 210.295 165.606C210.474 165.762 211.072 174.871 211.072 175.927C211.072 176.983 211.15 178.039 211.181 179.095C211.286 179.883 211.187 180.685 210.893 181.425C210.725 181.774 210.448 182.06 210.103 182.238C209.758 182.415 209.364 182.476 208.982 182.411C208.982 182.489 209.028 182.559 209.044 182.636C209.091 182.861 209.114 183.094 209.145 183.32C209.176 183.545 209.207 183.786 209.223 184.018C209.23 184.13 209.23 184.241 209.223 184.352C209.223 184.477 209.16 184.585 209.153 184.71C209.145 184.834 208.857 184.966 208.803 184.764C208.749 184.562 208.71 184.547 208.671 184.43C208.634 184.306 208.608 184.178 208.593 184.05C208.593 183.824 208.554 183.607 208.539 183.382C208.523 183.157 208.539 182.931 208.539 182.714C208.544 182.581 208.557 182.449 208.578 182.318C208.152 182.188 207.77 181.943 207.474 181.611C206.988 180.986 206.694 180.233 206.627 179.445C206.495 178.513 206.441 177.565 206.378 176.626C206.239 174.296 205.928 167.509 206.2 165.187C206.204 165.132 206.23 165.082 206.271 165.046C206.313 165.01 206.367 164.993 206.421 164.997C206.476 165.001 206.527 165.026 206.562 165.068C206.598 165.109 206.616 165.163 206.612 165.218V165.218Z" fill="#0D378D"/>
<path d="M235.823 85.6905C232.567 83.7569 224.78 82.3513 219.504 90.1868C211.981 101.315 221.112 124.798 223.319 128.184C223.319 128.184 241.192 130.218 254.045 118.415C254.045 118.415 242.311 103.815 241.721 95.1179C241.594 93.1817 240.989 91.3071 239.96 89.6618C238.931 88.0166 237.509 86.6521 235.823 85.6905V85.6905Z" fill="#0D378D"/>
<path d="M245.264 103.916C245.342 104.041 245.42 104.165 245.505 104.289C246.57 105.84 247.774 107.29 249.103 108.622C250.344 109.93 251.768 111.052 253.33 111.954C253.33 111.954 253.416 111.915 253.33 111.892C251.779 110.897 250.404 109.654 249.259 108.211C248.086 106.865 246.996 105.449 245.995 103.971C243.948 100.969 242.29 97.7206 241.06 94.3025C241.06 94.2327 240.913 94.3025 240.936 94.3025C241.068 94.7918 241.208 95.281 241.363 95.7625C241.353 95.7608 241.342 95.7618 241.333 95.7652C241.323 95.7687 241.314 95.7745 241.307 95.7822C241.3 95.79 241.295 95.7993 241.293 95.8094C241.29 95.8195 241.291 95.8301 241.293 95.8401C242.259 99.0735 243.561 102.197 245.179 105.159C246.888 108.018 248.979 110.631 251.396 112.924C252.746 114.233 254.176 115.457 255.677 116.59C255.677 116.59 255.724 116.59 255.677 116.551C251.496 112.978 247.972 108.702 245.264 103.916V103.916Z" fill="#0D378D"/>
<path d="M222.185 88.1137C214.864 95.1726 214.67 105.889 216.745 114.913C217.353 117.697 218.233 120.415 219.371 123.028C219.371 123.038 219.376 123.048 219.383 123.055C219.39 123.062 219.4 123.067 219.41 123.067C219.421 123.067 219.431 123.062 219.438 123.055C219.445 123.048 219.449 123.038 219.449 123.028C217.778 118.388 216.788 113.531 216.512 108.607C216.271 103.994 216.473 99.1175 218.167 94.7066C219.055 92.2844 220.46 90.0848 222.286 88.2612C222.34 88.168 222.247 88.0515 222.185 88.1137Z" fill="#0D378D"/>
<path d="M220.77 166.173C221.143 166.663 253.105 168.969 254.644 168.573C254.719 168.551 254.791 168.522 254.861 168.487C256.765 167.657 265.741 159.883 266.386 159.231C267.629 158.019 258.964 137.122 251.745 124.62C249.336 120.449 245.435 116.854 244.324 115.728C243.213 114.602 223.342 113.6 219.783 115.122C218.229 115.767 214.445 119.44 214.344 120.116C214.212 121.102 220.405 165.669 220.77 166.173Z" fill="#455A64"/>
<path d="M220.77 166.173C221.143 166.663 253.105 168.969 254.644 168.573C254.718 168.551 254.791 168.522 254.861 168.488C252.017 160.116 238.659 120.838 238.255 120.582C237.851 120.325 218.882 119.914 214.328 120.123C214.211 121.102 220.405 165.669 220.77 166.173Z" fill="#0D378D"/>
<path d="M233.872 117.025C234.198 116.73 234.533 112.366 233.965 111.511C233.398 110.657 225.705 110.797 225.239 111.612C224.772 112.428 224.461 116.761 224.656 116.924C224.85 117.087 226.148 117.274 226.326 117.002C226.505 116.73 226.591 113.119 226.731 112.948C226.87 112.777 232.209 112.56 232.388 112.839C232.567 113.119 232.015 116.722 232.225 116.901C232.434 117.079 233.553 117.32 233.872 117.025Z" fill="#37474F"/>
<path d="M221.361 114.788C220.887 101.066 219.558 89.8917 217.367 72.9395C216.216 64.11 213.846 49.6815 213.287 45.8764C212.51 40.8598 188.979 49.4253 189.857 52.7955C190.433 54.9932 193.354 68.3267 197.279 78.5462C202.322 91.6545 205.314 103.093 211.266 116.924C215.766 127.361 221.679 123.874 221.361 114.788Z" fill="#FFC4C0"/>
<path d="M192.647 59.7071C189.026 56.2747 179.74 41.7375 178.551 38.4682C177.362 35.1989 174.626 25.5385 177.043 24.3736C179.46 23.2088 180.478 25.9733 180.478 25.9733C180.478 25.9733 179.856 21.314 182.506 20.7626C184.62 20.32 186.275 24.1329 186.275 24.1329C186.275 24.1329 185.855 18.9921 188.56 18.7824C191.015 18.5883 191.761 23.1467 191.761 23.1467C191.761 23.1467 191.847 18.8135 194.256 19.0775C197.147 19.4036 196.999 26.9052 198.584 30.4153C198.942 31.1918 211.367 47.95 211.367 47.95L192.647 59.7071Z" fill="#FFC4C0"/>
<path d="M191.932 22.9913C192.399 28.6213 192.756 30.9432 195.577 35.5871C195.631 35.6725 195.507 35.7734 195.445 35.688C192.266 31.3937 191.645 28.699 191.668 22.9758C191.668 22.6962 191.917 22.7273 191.932 22.9913Z" fill="#0D378D"/>
<path d="M186.329 24.1329C186.726 29.8794 187.798 32.4265 190.394 37.5052C190.433 37.5751 190.308 37.645 190.269 37.5751C187.301 32.807 185.786 29.8949 186.135 24.1018C186.151 23.8611 186.306 23.8921 186.329 24.1329Z" fill="#0D378D"/>
<path d="M180.61 26.2298C181.387 31.7589 182.335 34.702 185.49 39.3148C185.498 39.3255 185.504 39.3377 185.508 39.3507C185.511 39.3637 185.512 39.3773 185.51 39.3906C185.508 39.404 185.504 39.4168 185.497 39.4285C185.49 39.4401 185.481 39.4503 185.471 39.4585C185.46 39.4666 185.448 39.4726 185.435 39.476C185.422 39.4795 185.408 39.4803 185.395 39.4785C185.381 39.4767 185.369 39.4723 185.357 39.4655C185.345 39.4587 185.335 39.4497 185.327 39.439C181.651 35.0515 180.462 31.3861 180.447 26.2375C180.447 25.9191 180.548 25.8803 180.61 26.2298Z" fill="#0D378D"/>
<path d="M213.839 50.9166C213.839 50.9166 214.942 43.1898 209.355 37.8859C207.093 35.7426 206.612 26.2375 204.078 25.3911C201.226 24.4359 200.263 32.4578 202.035 37.7073C202.035 37.7073 194.613 43.0034 196.074 48.1365C196.393 49.247 200.131 53.883 201.428 54.1315L213.839 50.9166Z" fill="#FFC4C0"/>
<path d="M202.027 38.3128C199.066 40.2697 196.074 43.8729 196.16 47.4063C196.154 47.4237 196.143 47.4389 196.129 47.4496C196.114 47.4604 196.096 47.4662 196.078 47.4662C196.06 47.4662 196.042 47.4604 196.027 47.4496C196.013 47.4389 196.002 47.4237 195.996 47.4063C195.39 43.6244 198.809 39.4155 201.56 37.8313C202.089 37.5517 202.788 37.8002 202.027 38.3128Z" fill="#0D378D"/>
<path opacity="0.1" d="M221.384 115.51L207.35 52.6091L206.969 50.7376L205.671 44.8901L204.125 38.1107L201.731 27.3865C202.229 25.8799 203.021 25.0102 204.063 25.3596C206.596 26.2139 207.078 35.7112 209.339 37.8545C213.691 41.9858 214.002 47.5925 213.893 49.8601C214.841 55.8862 216.457 66.0746 217.351 72.9084C219.542 89.8606 220.871 101.035 221.353 114.757C221.376 115.029 221.384 115.27 221.384 115.51Z" fill="black"/>
<path d="M203.767 102.728L221.337 92.2681C221.337 92.2681 222.573 114.718 221.073 121.42C219.387 128.968 215.89 126.452 211.904 120.279C207.917 114.105 203.767 102.728 203.767 102.728Z" fill="#8CB3FF"/>
<path d="M213.916 108.002C213.458 106.992 212.673 104.988 211.173 105.517C210.008 105.92 209.992 107.419 210.085 108.421C210.241 110.033 210.862 111.566 211.873 112.832C212.284 113.368 212.96 114.043 213.59 114.004C214.212 114.082 214.639 113.593 214.794 112.824C215.024 111.164 214.716 109.474 213.916 108.002ZM218.765 104.189C218.05 104.119 217.048 105.478 217.032 107.598C217.032 109.927 217.903 111.139 218.524 111.069C219.752 110.921 220.133 109.011 220.141 107.528C220.18 106.402 219.628 104.297 218.765 104.212V104.189Z" fill="#0D378D"/>
<path d="M206.278 105.54C208.694 104.507 215.517 100.399 216.644 99.731C217.242 99.3816 219.566 97.8673 220.164 97.5256C220.242 97.479 220.164 97.3703 220.086 97.4091C218.944 98.0769 217.755 98.6205 216.574 99.2728C215.393 99.9252 208.337 103.855 206.231 105.485C206.23 105.492 206.23 105.499 206.232 105.506C206.234 105.512 206.237 105.518 206.241 105.523C206.246 105.529 206.251 105.533 206.258 105.536C206.264 105.538 206.271 105.54 206.278 105.54Z" fill="#0D378D"/>
<path opacity="0.1" d="M221.734 114.532C221.704 116.843 221.483 119.146 221.073 121.42C219.387 128.961 215.898 126.452 211.904 120.287C211.352 119.432 210.808 118.477 210.256 117.475L221.734 114.532Z" fill="black"/>
<path d="M248.233 182.955C248.077 183.064 196.463 177.426 196.105 176.742C195.919 176.401 206.106 125.404 221.407 113.15C224.259 110.867 231.595 112.234 234.369 115.635C242.591 125.738 248.784 182.551 248.233 182.955Z" fill="#EBEBEB"/>
<path d="M221.889 112.661C216.885 120.527 208.974 143.568 207.808 152.917C207.288 157.064 207.194 189.478 207.194 189.478L193.759 181.433C193.759 181.433 200.17 151.923 203.806 141.906C207.443 131.888 216.807 117.475 218.734 115.309C220.809 112.932 221.889 112.661 221.889 112.661Z" fill="#8CB3FF"/>
<path d="M231.665 113.057C231.665 113.057 234.191 114.229 236.273 117.832C238.356 121.436 245.404 150.929 248.272 155.107C251.139 159.285 261.607 156.148 261.607 156.148C261.581 158.244 261.843 160.335 262.384 162.36C263.215 164.775 247.813 190.317 246.904 190.317C245.995 190.317 230.756 171.757 229.318 162.764C227.881 153.772 230.282 124.806 230.562 121.203C230.841 117.6 231.665 113.057 231.665 113.057Z" fill="#8CB3FF"/>
<path d="M206.65 161.825C205.889 162.897 205.377 164.125 205.151 165.42C205.042 166.135 205.026 167.23 205.928 167.331C206.203 167.324 206.473 167.256 206.717 167.131C206.962 167.006 207.176 166.827 207.342 166.608C207.342 164.535 207.404 162.539 207.443 160.745C207.121 161.059 206.854 161.424 206.65 161.825V161.825ZM201.716 165.319C201.576 164.387 201.071 163.331 199.96 163.766C198.848 164.201 198.359 165.925 198.227 167.074C198.09 168.012 198.119 168.966 198.312 169.893C198.376 170.4 198.606 170.873 198.965 171.237C200.006 172.099 200.581 170.553 200.908 169.792C201.59 168.406 201.87 166.856 201.716 165.319V165.319ZM247.378 184.205C247.435 182.657 247.058 181.124 246.29 179.779C245.769 179.002 244.883 178.226 244.052 179.095C243.22 179.965 243.469 181.72 243.819 182.838C244.08 183.744 244.495 184.598 245.047 185.362C245.313 185.801 245.718 186.14 246.197 186.325C247.448 186.682 247.378 185.036 247.378 184.205ZM206.192 155.698C205.485 155.387 204.894 155.822 204.459 156.474C203.915 157.252 203.535 158.132 203.34 159.06C203.239 159.612 203.06 160.613 203.596 161.017C204.133 161.421 204.816 160.955 205.151 160.536C205.803 159.782 207.699 156.412 206.145 155.698H206.192ZM198.273 174.824C197.838 173.885 197.131 172.075 195.825 172.269C195.421 174.009 195.048 175.578 194.776 176.929C195.085 177.928 195.575 178.863 196.222 179.686C196.641 180.206 197.317 180.889 197.947 180.858C198.576 180.827 198.996 180.447 199.151 179.678C199.367 178.003 199.043 176.303 198.227 174.824H198.273ZM203.122 171.011C202.407 170.942 201.405 172.308 201.389 174.428C201.389 176.758 202.26 177.969 202.881 177.9C204.109 177.744 204.49 175.842 204.498 174.358C204.467 173.232 203.938 171.105 203.083 171.011H203.122ZM204.164 147.078C203.387 147.295 203.091 148.103 203.029 148.957C202.955 149.594 202.981 150.239 203.107 150.867C203.2 151.279 203.441 151.799 203.954 151.644C204.467 151.489 204.778 150.642 204.894 150.176C204.995 149.586 205.617 146.635 204.117 147.078H204.164ZM249.833 175.616C249.056 175.834 248.769 176.641 248.707 177.503C248.633 178.14 248.659 178.785 248.784 179.414C248.87 179.818 249.111 180.346 249.624 180.19C250.137 180.035 250.455 179.196 250.564 178.73C250.665 178.125 251.263 175.174 249.787 175.616H249.833ZM240.951 132.486C240.297 133.402 239.895 134.473 239.786 135.593C239.521 136.548 239.537 137.456 240.423 137.542C241.029 137.604 241.643 136.866 242.055 136.346C241.635 135.041 241.27 133.752 240.905 132.486H240.951ZM245.287 147.241C244.733 147.695 244.237 148.217 243.811 148.794C243.376 149.369 242.871 150.347 243.656 150.852C244.44 151.357 245.528 150.798 246.305 150.378C245.932 149.431 245.591 148.382 245.241 147.264L245.287 147.241ZM239.957 144.911C238.651 144.803 237.532 146.099 236.848 147.055C236.302 147.826 235.892 148.685 235.636 149.594C235.46 150.073 235.446 150.597 235.597 151.085C236.118 152.32 237.346 151.225 237.991 150.697C239.236 149.775 240.199 148.524 240.773 147.086C241.06 146.208 241.107 145.043 239.91 144.935L239.957 144.911ZM232.03 150.44C230.81 150.27 230.111 151.582 229.699 152.529C229.106 154.029 228.949 155.666 229.248 157.251C229.38 157.919 229.66 158.804 230.235 159.099C230.81 159.394 231.354 159.208 231.851 158.594C232.816 157.234 233.322 155.602 233.297 153.935C233.328 152.824 233.553 150.712 231.984 150.464L232.03 150.44ZM239.382 152.77C238.783 152.374 237.268 153.12 236.273 155.007C235.201 157.026 235.411 158.54 236.001 158.757C237.167 159.2 238.332 157.678 239.071 156.373C239.56 155.372 240.065 153.259 239.335 152.786L239.382 152.77ZM243.811 161.545C242.855 161.677 242.334 162.594 242.109 163.619C241.904 164.377 241.823 165.164 241.868 165.948C241.868 166.453 242.109 167.121 242.754 167.035C243.399 166.95 243.928 165.972 244.153 165.428C244.394 164.737 245.66 161.281 243.764 161.584L243.811 161.545Z" fill="#0D378D"/>
<path d="M234.268 112.917C242.101 100.609 248.458 91.7636 259.602 77.4361C265.406 69.9734 272.688 61.0585 275.26 57.8823C278.648 53.6889 295.589 74.1901 292.97 76.8226C291.26 78.5233 285.642 84.0135 275.874 92.711C264.715 102.612 255.289 110.844 242.381 120.294C232.613 127.415 229.093 121.055 234.268 112.917Z" fill="#FFC4C0"/>
<path d="M287.507 80.5577C292.667 79.3618 309.002 71.0604 311.846 68.7074C314.69 66.3544 322.406 58.9926 320.829 56.6241C319.251 54.2556 316.819 56.2359 316.819 56.2359C316.819 56.2359 319.927 52.3531 317.775 50.3806C316.073 48.8275 312.506 51.4367 312.506 51.4367C312.506 51.4367 315.661 46.956 313.283 45.3097C311.139 43.8032 307.999 47.5772 307.999 47.5772C307.999 47.5772 310.253 43.5624 307.914 42.5141C305.108 41.2172 301.2 48.2062 297.889 50.5359C297.112 51.0717 276.744 59.6993 276.744 59.6993L287.507 80.5577Z" fill="#FFC4C0"/>
<path d="M307.945 47.344C304.487 52.2441 302.917 54.1777 297.842 56.9035C297.741 56.9578 297.804 57.1209 297.912 57.0743C303.134 54.8533 305.163 52.6945 308.217 47.4683C308.349 47.2198 308.108 47.1188 307.945 47.344Z" fill="#0D378D"/>
<path d="M312.452 51.421C308.994 56.4609 306.647 58.2159 301.526 61.4619C301.456 61.5085 301.526 61.6406 301.604 61.594C306.888 58.8294 309.849 56.9812 312.638 51.4987C312.77 51.2502 312.654 51.1958 312.452 51.421Z" fill="#0D378D"/>
<path d="M316.539 56.399C312.84 61.0584 310.393 63.225 305.023 65.7177C304.999 65.7299 304.98 65.7505 304.97 65.7757C304.961 65.8008 304.961 65.8286 304.97 65.8538C304.98 65.8789 304.999 65.8996 305.023 65.9117C305.047 65.9239 305.075 65.9267 305.101 65.9196C310.828 63.885 313.897 61.1749 316.671 56.5077C316.881 56.2126 316.796 56.1117 316.539 56.399Z" fill="#0D378D"/>
<path d="M328.823 59.6716L300.607 21.0479L295.229 24.9718L323.444 63.5956L328.823 59.6716Z" fill="#8CB3FF"/>
<path d="M323.441 63.593L295.226 24.9692L272.743 41.3703L300.959 79.994L323.441 63.593Z" fill="#8CB3FF"/>
<path opacity="0.1" d="M323.441 63.593L295.226 24.9692L272.743 41.3703L300.959 79.994L323.441 63.593Z" fill="black"/>
<path d="M328.264 60.0788L300.049 21.4551L295.787 24.564L324.002 63.1878L328.264 60.0788Z" fill="white"/>
<path d="M298.464 26.4624C307.214 37.9399 316.539 50.7532 324.846 62.5569C316.127 51.056 306.771 38.235 298.464 26.4624Z" fill="#DBDBDB"/>
<path d="M299.303 25.8257C307.991 37.3343 317.378 50.1475 325.686 61.9512C316.967 50.4504 307.61 37.6294 299.303 25.8257Z" fill="#DBDBDB"/>
<path d="M300.135 25.2124C308.854 36.721 318.218 49.5342 326.556 61.3379C317.837 49.8371 308.473 37.0161 300.135 25.2124V25.2124Z" fill="#DBDBDB"/>
<path d="M300.997 24.6064C309.716 36.1073 319.08 48.9283 327.38 60.732C318.637 49.2234 309.281 36.4101 300.997 24.6064Z" fill="#DBDBDB"/>
<path d="M272.851 61.1051C272.851 61.1051 276.014 53.4405 283.979 51.6C287.204 50.8235 292.76 42.4211 295.542 43.0035C298.651 43.6636 295.231 51.5457 290.771 55.3741C290.771 55.3741 294.711 64.2113 290.608 68.1174C289.714 68.9639 283.8 71.2237 282.479 70.7267L272.851 61.1051Z" fill="#FFC4C0"/>
<path d="M290.46 55.925C292.115 59.3108 292.9 64.2187 290.919 67.4103C290.912 67.4195 290.907 67.4299 290.905 67.4409C290.902 67.4519 290.902 67.4633 290.903 67.4745C290.905 67.4857 290.909 67.4964 290.915 67.506C290.921 67.5157 290.929 67.524 290.938 67.5307C290.947 67.5373 290.958 67.5421 290.969 67.5447C290.98 67.5473 290.991 67.5477 291.002 67.5459C291.013 67.5441 291.024 67.5401 291.034 67.5342C291.043 67.5282 291.052 67.5204 291.058 67.5113C293.654 64.405 292.791 58.6973 291.128 55.7619C290.81 55.195 290.033 55.0553 290.46 55.925Z" fill="#0D378D"/>
<path d="M255.545 112.063L245.598 94.2017C245.598 94.2017 233.258 113.002 231.191 119.556C228.86 126.934 233.142 126.507 239.7 123.167C246.259 119.828 255.545 112.063 255.545 112.063Z" fill="#8CB3FF"/>
<path d="M244.658 109.733C243.951 109.415 243.36 109.85 242.925 110.51C242.389 111.289 242.009 112.165 241.806 113.088C241.705 113.647 241.526 114.641 242.07 115.053C242.614 115.464 243.283 114.983 243.624 114.571C244.316 113.81 246.212 110.44 244.658 109.733ZM242.101 99.6846C240.936 101.517 239.607 103.676 238.278 105.897C238.327 106.155 238.427 106.401 238.572 106.62C238.718 106.838 238.906 107.026 239.125 107.171C239.638 107.52 240.244 107.287 240.741 106.674C241.973 104.565 242.452 102.101 242.101 99.6846ZM248.248 100.842C247.642 100.453 246.134 101.199 245.14 103.07C244.067 105.097 244.277 106.611 244.868 106.829C246.026 107.264 247.238 105.75 247.937 104.445C248.474 103.42 248.979 101.323 248.248 100.842Z" fill="#0D378D"/>
<path d="M251.963 113.235C250.409 111.131 246.523 104.157 245.909 103.008C245.567 102.402 244.316 99.9016 243.974 99.3347C243.928 99.2571 244.06 99.2027 244.099 99.2804C244.759 100.422 245.536 101.501 246.204 102.651C246.873 103.8 251.022 110.742 252.048 113.181C252.04 113.235 251.994 113.282 251.963 113.235Z" fill="#0D378D"/>
<path d="M237.454 125.272C237.711 125.016 237.975 124.767 238.231 124.495C236.739 125.396 235.216 126.227 233.654 127.004C233.654 127.004 233.592 126.965 233.654 126.942C235.278 125.816 236.91 124.728 238.589 123.696C239.366 123.206 240.555 122.507 241.433 121.933C241.534 121.863 241.651 122.018 241.55 122.08C240.703 122.624 239.91 123.494 239.172 123.952C239 124.157 238.816 124.352 238.62 124.534C238.309 124.837 237.983 125.132 237.649 125.404C236.973 125.955 236.273 126.483 235.589 127.019C236.211 126.468 236.84 125.862 237.454 125.272Z" fill="#0D378D"/>
<path d="M222.55 111.705C216.481 111.045 204.265 128.013 201.172 135.53C199.618 139.343 200.48 151.543 200.698 151.683C200.915 151.822 201.56 148.988 201.871 147.924C202.182 146.86 204.568 138.908 206.114 135.181C208.819 128.658 222.876 112.901 223.101 112.66C223.327 112.42 223.109 111.767 222.55 111.705Z" fill="#455A64"/>
<path d="M221.881 122.212C224.073 122.857 229.707 119.883 232.364 116.776C232.543 116.567 232.73 113.988 233.142 110.867C233.375 108.964 233.686 106.86 234.105 104.965L221.532 105.229C221.689 107.754 221.535 110.289 221.073 112.777C221.015 113.044 220.929 113.304 220.817 113.554C220.814 113.595 220.814 113.636 220.817 113.678C220.18 115.138 218.455 121.203 221.881 122.212Z" fill="#FFC4C0"/>
<path d="M220.794 113.585C220.771 113.624 220.753 113.666 220.739 113.709C221.136 113.853 221.544 113.965 221.959 114.043C228.774 115.387 232.256 107.489 233.165 105.02L221.509 105.26C221.666 107.79 221.514 110.33 221.058 112.824C220.985 113.083 220.897 113.337 220.794 113.585V113.585Z" fill="#0D378D"/>
<path d="M240.384 90.9171C240.338 95.4367 234.385 106.674 230.608 108.405C225.13 110.914 218.035 109.081 216.38 102.969C214.771 97.0054 222.791 82.4992 226.839 81.117C232.761 79.0203 240.384 84.1999 240.384 90.9171Z" fill="#FFC4C0"/>
<path d="M230.126 92.843C229.823 92.5867 229.598 92.3072 229.349 92.0664C229.029 91.8184 228.8 91.4718 228.697 91.0802C228.688 90.9519 228.722 90.8245 228.794 90.7177C228.866 90.6109 228.971 90.5309 229.093 90.49C229.346 90.444 229.608 90.4666 229.849 90.5553C230.091 90.6441 230.305 90.7958 230.468 90.9948C230.862 91.3485 231.111 91.8353 231.168 92.3615C231.172 92.484 231.141 92.6052 231.077 92.7097C231.012 92.8142 230.919 92.8974 230.808 92.9489C230.696 93.0003 230.572 93.0178 230.451 92.9989C230.33 92.9801 230.217 92.9258 230.126 92.843V92.843Z" fill="#0D378D"/>
<path d="M222.55 89.1155C222.915 89.2137 223.286 89.2889 223.661 89.3408C224.044 89.4727 224.46 89.4727 224.842 89.3408C224.954 89.278 225.042 89.1801 225.093 89.0621C225.144 88.9441 225.154 88.8128 225.122 88.6884C225.023 88.4505 224.862 88.2434 224.656 88.089C224.449 87.9347 224.205 87.8386 223.949 87.8109C223.43 87.6641 222.874 87.7196 222.394 87.9662C222.284 88.0266 222.195 88.1189 222.138 88.231C222.082 88.3432 222.06 88.4698 222.077 88.5942C222.094 88.7187 222.148 88.8351 222.233 88.9282C222.317 89.0213 222.428 89.0866 222.55 89.1155V89.1155Z" fill="#0D378D"/>
<path d="M225.192 101.509C224.929 101.654 224.624 101.704 224.329 101.649C224.046 101.501 223.794 101.298 223.591 101.051C223.591 101.051 223.537 101.051 223.537 101.051C223.576 101.255 223.669 101.445 223.805 101.602C223.942 101.759 224.117 101.877 224.314 101.944C224.49 101.979 224.674 101.962 224.841 101.894C225.008 101.827 225.151 101.712 225.254 101.564C225.285 101.548 225.231 101.502 225.192 101.509Z" fill="#0D378D"/>
<path d="M222.729 98.5737C222.853 99.1483 223.12 99.6824 223.506 100.127C223.725 100.364 224.013 100.527 224.329 100.593C225.021 100.733 225.316 100.173 225.441 99.6376C225.502 99.352 225.531 99.0601 225.526 98.7679C224.597 99.0021 223.617 98.9341 222.729 98.5737V98.5737Z" fill="#0D378D"/>
<path d="M223.498 100.15C223.717 100.388 224.005 100.55 224.322 100.616C225.013 100.756 225.308 100.197 225.433 99.6612C225.102 99.5131 224.731 99.4808 224.38 99.5696C224.029 99.6584 223.718 99.863 223.498 100.15V100.15Z" fill="#FF9BBC"/>
<path d="M229.085 94.7067C229.147 94.4831 229.147 94.247 229.085 94.0233C229.042 93.9042 228.975 93.7951 228.888 93.703C228.801 93.6108 228.696 93.5375 228.58 93.4875C228.454 93.4354 228.318 93.4145 228.183 93.4267C228.047 93.4389 227.917 93.4837 227.803 93.5574C227.612 93.6791 227.452 93.8441 227.337 94.0389C227.266 94.1549 227.206 94.2771 227.158 94.4038C227.044 94.6626 226.993 94.9448 227.01 95.227C227.076 95.0334 227.165 94.8483 227.274 94.6756C227.367 94.5163 227.474 94.3656 227.593 94.2252C227.834 93.9379 228.137 93.7438 228.37 93.868C228.603 93.9923 228.767 94.2874 228.735 94.6446C228.699 95.0318 228.624 95.4143 228.51 95.7861C228.784 95.4766 228.981 95.1067 229.085 94.7067Z" fill="#0D378D"/>
<path d="M221.656 90.8315C221.802 90.6539 221.993 90.5175 222.208 90.4355C222.328 90.3935 222.456 90.3773 222.583 90.388C222.711 90.3987 222.834 90.436 222.946 90.4976C223.058 90.5641 223.153 90.6554 223.225 90.7644C223.296 90.8734 223.342 90.9973 223.358 91.1266C223.379 91.3534 223.347 91.5821 223.265 91.7944C223.216 91.9212 223.156 92.0434 223.086 92.1594C222.951 92.4076 222.759 92.6205 222.526 92.7807C222.731 92.4517 222.876 92.0888 222.954 91.709C223.031 91.344 223 90.979 222.744 90.8548C222.599 90.7886 222.437 90.7725 222.282 90.8091C222.127 90.8457 221.989 90.9328 221.889 91.0567C221.6 91.3241 221.34 91.6208 221.112 91.942C221.202 91.5337 221.389 91.1529 221.656 90.8315V90.8315Z" fill="#0D378D"/>
<path d="M235.792 100.608C235.286 99.8317 235.558 95.615 235.558 95.615C235.558 95.615 228.86 90.5674 229.855 83.524C229.855 83.524 225.138 86.537 221.734 86.5448C221.734 86.5448 223.785 79.5558 230.507 80.3789C230.507 80.3789 237.501 79.6878 241.239 87.1893C244.977 94.6909 237.688 101.292 237.688 101.292L235.792 100.608Z" fill="#0D378D"/>
<path d="M230.406 82.2893C229.855 83.3597 229.602 84.5588 229.676 85.7605C229.697 86.949 229.888 88.1284 230.243 89.2628C230.574 90.4344 231.099 91.5422 231.797 92.5399C232.659 93.6224 233.678 94.5699 234.82 95.351C234.82 95.351 234.82 95.4364 234.773 95.4131C233.565 94.6352 232.464 93.7004 231.502 92.6331C230.729 91.634 230.127 90.5134 229.722 89.3171C229.26 88.1309 229.051 86.8613 229.108 85.5897C229.227 84.3892 229.629 83.2341 230.282 82.2194C230.321 82.1417 230.453 82.2116 230.406 82.2893Z" fill="#0D378D"/>
<path d="M229.14 78.9502C230.616 78.3522 234.059 77.2883 236.833 77.7077C239.607 78.127 243.05 80.1616 244.246 80.8139C245.225 81.3575 248.668 82.367 251.077 84.3473C251.763 85.0148 252.256 85.8545 252.505 86.7782C252.754 87.7019 252.749 88.6755 252.491 89.5968C251.769 91.445 248.039 89.5968 247.72 90.2957C247.51 90.7694 247.72 93.3398 246.313 94.2639C244.907 95.188 244.985 95.0405 244.184 95.5142C242.234 96.7334 241.853 87.3137 238.908 84.2463C235.963 81.1789 229.14 78.9502 229.14 78.9502Z" fill="#8CB3FF"/>
<path opacity="0.1" d="M229.396 79.1365C229.396 79.1365 235.978 81.1866 238.908 84.254C241.837 87.3214 241.767 96.2907 243.726 95.0715C244.58 94.5357 245.016 93.7125 245.404 92.3225C245.078 89.6899 244.137 85.5897 242.032 82.7087C240.058 80.0062 236.592 78.5696 232.807 78.0493C231.642 78.3174 230.501 78.6811 229.396 79.1365Z" fill="black"/>
<path d="M243.104 99.4123C241.721 96.3061 240.695 91.5147 238.247 87.7639C235.799 84.0131 228.362 81.6602 227.313 81.6912C224.757 81.7689 224.166 82.9648 223.77 82.724C223.373 82.4833 226 79.6722 226.73 79.2606C227.842 78.7422 229.055 78.4769 230.282 78.484C231.385 78.5384 238.193 79.4159 240.586 82.3668C242.979 85.3177 246.259 93.6036 245.559 95.6693C245.388 96.1663 244.712 96.4458 244.479 97.1758C244.176 98.0999 243.943 99.1716 243.648 99.8161C243.399 100.375 243.189 99.5987 243.104 99.4123Z" fill="#8CB3FF"/>
<path d="M237.711 86.1101C238.305 85.7704 238.869 85.3807 239.397 84.9452C239.939 84.5138 240.429 84.0213 240.858 83.4775C240.858 83.4775 240.951 83.4775 240.928 83.4775C240.581 84.109 240.135 84.6806 239.607 85.1704C239.067 85.6349 238.445 85.9956 237.773 86.2343C237.688 86.2576 237.641 86.1489 237.711 86.1101Z" fill="#0D378D"/>
<path d="M243.135 97.9992C243.218 97.8303 243.311 97.6669 243.415 97.5099C243.511 97.3228 243.592 97.128 243.656 96.9275C243.713 96.5341 243.814 96.1485 243.959 95.7782C244.122 95.4972 244.317 95.2366 244.542 95.0017C244.819 94.7447 244.998 94.3984 245.047 94.0232C245.047 93.9688 245.132 93.9688 245.124 94.0232C244.999 94.694 244.705 95.3219 244.27 95.8481C244.114 96.2484 243.995 96.6615 243.912 97.0828C243.801 97.4707 243.57 97.8134 243.252 98.0613C243.189 98.1079 243.112 98.0535 243.135 97.9992Z" fill="#0D378D"/>
<path d="M242.381 95.3899C242.622 95.1181 242.871 94.8852 243.081 94.6134C243.281 94.3321 243.46 94.0362 243.617 93.7281C243.78 93.433 243.912 93.1224 244.067 92.8195C244.223 92.5167 244.479 92.1206 244.643 91.7556C244.643 91.709 244.728 91.7556 244.705 91.8022C244.541 92.175 244.433 92.5788 244.277 92.9748C244.122 93.3709 243.966 93.6271 243.795 93.9378C243.624 94.2342 243.426 94.5148 243.205 94.7764C242.992 95.0457 242.728 95.27 242.428 95.4365C242.428 95.4365 242.366 95.4055 242.381 95.3899Z" fill="#0D378D"/>
<path d="M240.703 90.7615C240.955 90.5938 241.176 90.3836 241.356 90.1403C241.565 89.8763 241.775 89.6122 241.977 89.3637L242.56 88.5872C242.773 88.3344 242.927 88.0372 243.011 87.7174C243.014 87.7091 243.02 87.702 243.028 87.6971C243.036 87.6921 243.044 87.6895 243.053 87.6895C243.063 87.6895 243.071 87.6921 243.079 87.6971C243.087 87.702 243.093 87.7091 243.096 87.7174C243.053 88.0416 242.951 88.3549 242.793 88.6415C242.629 88.9631 242.436 89.2697 242.218 89.5579C242.007 89.8454 241.776 90.1179 241.526 90.3733C241.325 90.6166 241.054 90.7927 240.749 90.878C240.679 90.8703 240.641 90.7926 240.703 90.7615Z" fill="#0D378D"/>
<path d="M240.097 87.9037C240.33 87.694 240.555 87.4766 240.765 87.2514C240.975 87.0262 241.177 86.7855 241.371 86.5447C241.565 86.304 241.783 86.04 241.969 85.7682C241.966 85.7622 241.965 85.7557 241.965 85.7491C241.966 85.7426 241.968 85.7362 241.971 85.7306C241.975 85.725 241.98 85.7204 241.985 85.7173C241.991 85.7141 241.998 85.7124 242.004 85.7124C242.011 85.7124 242.017 85.7141 242.023 85.7173C242.029 85.7204 242.034 85.725 242.037 85.7306C242.041 85.7362 242.043 85.7426 242.043 85.7491C242.043 85.7557 242.042 85.7622 242.039 85.7682C241.907 86.0649 241.751 86.3506 241.573 86.6224C241.207 87.1455 240.779 87.6226 240.299 88.0435C240.077 88.2676 239.813 88.4446 239.521 88.5638C239.475 88.5638 239.428 88.5638 239.459 88.4861C239.651 88.2707 239.865 88.0755 240.097 87.9037Z" fill="#0D378D"/>
<path d="M235.916 84.7047C236.16 84.4144 236.42 84.1371 236.693 83.8738C236.968 83.5983 237.258 83.339 237.563 83.0973C238.145 82.628 238.779 82.2268 239.452 81.9014C239.49 81.9014 239.537 81.9014 239.506 81.9635C238.34 82.8954 237.175 83.7806 235.993 84.728L235.916 84.7047Z" fill="#0D378D"/>
<path d="M234.525 82.6079C234.772 82.3186 235.051 82.0581 235.356 81.8314C236.01 81.3986 236.708 81.0367 237.439 80.752C237.485 80.752 237.524 80.752 237.485 80.8218C236.848 81.2179 236.211 81.5984 235.605 82.0255C235.301 82.2357 235.008 82.4612 234.727 82.7011C234.447 82.9496 234.237 83.2447 233.95 83.4777H233.895C234.049 83.151 234.262 82.856 234.525 82.6079V82.6079Z" fill="#0D378D"/>
<path d="M232.559 81.5983C232.789 81.3119 233.049 81.0515 233.336 80.8217C233.868 80.3989 234.466 80.0681 235.108 79.8433C235.154 79.8433 235.178 79.8976 235.108 79.9209C234.516 80.2526 233.955 80.6345 233.429 81.0625C233.165 81.2799 232.908 81.5129 232.652 81.7381C232.396 81.9633 232.178 82.2506 231.875 82.4447C231.875 82.4447 231.828 82.4447 231.836 82.4059C232.053 82.1164 232.295 81.8462 232.559 81.5983V81.5983Z" fill="#0D378D"/>
<path d="M231.152 80.3792C231.416 80.1877 231.675 80.0013 231.929 79.8201C232.187 79.6289 232.472 79.4795 232.776 79.3774C232.823 79.3774 232.838 79.424 232.776 79.4473C232.271 79.8278 231.782 80.2239 231.284 80.5966C230.857 80.9869 230.469 81.4187 230.126 81.8857C230.126 81.8857 230.08 81.8857 230.088 81.8857C230.282 81.2874 230.653 80.7621 231.152 80.3792V80.3792Z" fill="#0D378D"/>
<path d="M229.373 79.944C229.847 79.5259 230.399 79.2042 230.997 78.9966C231.036 78.9966 231.067 79.0509 230.997 79.0665C230.453 79.3414 229.953 79.6946 229.512 80.1148C229.067 80.5339 228.668 80.9999 228.324 81.5049C228.324 81.5049 228.261 81.5049 228.277 81.5049C228.513 80.9051 228.889 80.37 229.373 79.944V79.944Z" fill="#0D378D"/>
<path d="M226.987 80.946C227.052 80.8225 227.125 80.7032 227.205 80.5887C227.365 80.3571 227.55 80.1436 227.756 79.952C228.182 79.5718 228.646 79.2361 229.14 78.9502C229.186 78.9502 229.225 78.9502 229.186 79.0201C228.711 79.3112 228.273 79.6579 227.881 80.0529C227.69 80.2472 227.513 80.4548 227.352 80.6742C227.27 80.7805 227.195 80.892 227.127 81.0081C227.069 81.1265 226.999 81.2385 226.917 81.342H226.855C226.872 81.2024 226.917 81.0676 226.987 80.946V80.946Z" fill="#0D378D"/>
<path d="M225.542 81.0314C225.689 80.8528 225.837 80.6741 226 80.5111C226.16 80.3438 226.331 80.1881 226.513 80.0451C226.692 79.8976 226.886 79.7578 227.065 79.6025C227.073 79.5963 227.083 79.5937 227.094 79.5951C227.104 79.5966 227.113 79.602 227.119 79.6103C227.125 79.6185 227.128 79.6289 227.126 79.639C227.125 79.6492 227.12 79.6584 227.111 79.6646C226.927 79.8155 226.753 79.979 226.591 80.1538L226.132 80.6431L225.666 81.1323C225.511 81.2954 225.378 81.4895 225.207 81.6371H225.153C225.261 81.4223 225.392 81.2193 225.542 81.0314V81.0314Z" fill="#0D378D"/>
<path d="M234.719 99.793C234.719 99.793 238.698 96.8731 240.112 98.4107C241.526 99.9483 237.633 104.833 235.333 104.895C235.039 104.925 234.742 104.895 234.461 104.807C234.179 104.719 233.918 104.575 233.693 104.383C233.469 104.191 233.286 103.956 233.155 103.692C233.024 103.428 232.948 103.139 232.932 102.845L234.719 99.793Z" fill="#FFC4C0"/>
<path d="M238.962 99.7854C239.001 99.7854 238.962 99.8398 238.962 99.8398C237.338 99.933 236.133 101.012 235.139 102.169C235.27 102.054 235.425 101.968 235.592 101.918C235.76 101.868 235.936 101.855 236.109 101.881C236.282 101.906 236.448 101.968 236.594 102.064C236.741 102.159 236.864 102.285 236.957 102.433C236.957 102.472 236.957 102.519 236.895 102.496C236.667 102.337 236.396 102.252 236.118 102.252C235.84 102.252 235.569 102.337 235.341 102.496C234.956 102.762 234.6 103.066 234.276 103.404C234.167 103.513 233.965 103.365 234.059 103.233C234.657 101.377 236.942 99.3039 238.962 99.7854Z" fill="#0D378D"/>
<path d="M233.165 113.779C228.86 118.12 234.416 139.258 238.356 146.348C240.361 149.959 248.023 155.154 248.272 155.076C248.52 154.999 248.909 150.937 248.272 150.029C247.634 149.12 244.231 145.796 242.28 142.263C238.861 136.051 234.299 114.307 234.276 113.965C234.253 113.624 233.553 113.383 233.165 113.779Z" fill="#455A64"/>
</svg>
